{
.appVersion = "939";
copyright = "Copyright (c) 2013 by Juan Pablo del Peral (huertatipografica.com.ar)";
customParameters = (
{
name = panose;
value = (
0,
0,
0,
0,
0,
0,
0,
0,
0,
0
);
},
{
name = openTypeOS2VendorID;
value = Huer;
},
{
name = glyphOrder;
value = (
A,
Aacute,
Abreve,
uni1EAE,
uni1EB6,
uni1EB0,
uni1EB2,
uni1EB4,
uni01CD,
Acircumflex,
uni1EA4,
uni1EAC,
uni1EA6,
uni1EA8,
uni1EAA,
uni0200,
Adieresis,
uni1EA0,
Agrave,
uni1EA2,
uni0202,
Amacron,
Aogonek,
Aring,
Aringacute,
Atilde,
AE,
AEacute,
B,
C,
Cacute,
Ccaron,
Ccedilla,
uni1E08,
Ccircumflex,
Cdotaccent,
D,
uni01C4,
Eth,
Dcaron,
Dcroat,
uni1E0C,
uni1E0E,
uni01C5,
E,
Eacute,
Ebreve,
Ecaron,
uni1E1C,
Ecircumflex,
uni1EBE,
uni1EC6,
uni1EC0,
uni1EC2,
uni1EC4,
uni0204,
Edieresis,
Edotaccent,
uni1EB8,
Egrave,
uni1EBA,
uni0206,
Emacron,
uni1E16,
uni1E14,
Eogonek,
uni1EBC,
F,
G,
Gbreve,
Gcaron,
Gcircumflex,
Gcommaaccent,
Gdotaccent,
uni1E20,
H,
Hbar,
uni1E2A,
Hcircumflex,
uni1E24,
I,
IJ,
Iacute,
Ibreve,
uni01CF,
Icircumflex,
uni0208,
Idieresis,
uni1E2E,
Idotaccent,
uni1ECA,
Igrave,
uni1EC8,
uni020A,
Imacron,
Iogonek,
Itilde,
J,
Jcircumflex,
K,
Kcommaaccent,
L,
uni01C7,
Lacute,
Lcaron,
Lcommaaccent,
Ldot,
uni1E36,
uni01C8,
uni1E3A,
Lslash,
M,
uni1E42,
N,
uni01CA,
Nacute,
Ncaron,
Ncommaaccent,
uni1E44,
uni1E46,
Eng,
uni01CB,
uni1E48,
Ntilde,
O,
Oacute,
Obreve,
uni01D1,
Ocircumflex,
uni1ED0,
uni1ED8,
uni1ED2,
uni1ED4,
uni1ED6,
uni020C,
Odieresis,
uni022A,
uni0230,
uni1ECC,
Ograve,
uni1ECE,
Ohorn,
uni1EDA,
uni1EE2,
uni1EDC,
uni1EDE,
uni1EE0,
Ohungarumlaut,
uni020E,
Omacron,
uni1E52,
uni1E50,
uni01EA,
Oslash,
Oslashacute,
Otilde,
uni1E4C,
uni1E4E,
uni022C,
OE,
P,
Thorn,
Q,
R,
Racute,
Rcaron,
Rcommaaccent,
uni0210,
uni1E5A,
uni0212,
uni1E5E,
S,
Sacute,
uni1E64,
uniA78B,
Scaron,
uni1E66,
Scedilla,
Scircumflex,
Scommaaccent,
uni1E60,
uni1E62,
uni1E68,
uni1E9E,
uni018F,
T,
Tbar,
Tcaron,
uni0162,
uni021A,
uni1E6C,
uni1E6E,
U,
Uacute,
Ubreve,
uni01D3,
Ucircumflex,
uni0214,
Udieresis,
uni01D7,
uni01D9,
uni01DB,

glyphs = (
{
glyphname = A;
lastChange = "2016-12-06 12:48:41 +0000";
layers = (
{
anchors = (
{
name = bottom;
position = "{234, 0}";
},
{
name = ogonek;
position = "{470, 0}";
},
{
name = top;
position = "{319, 637}";
}
);
layerId = UUID0;
paths = (
{
closed = 1;
nodes = (
"332 637 LINE",
"311 637 LINE",
"-8 0 LINE",
"16 0 LINE",
"36 43 LINE",
"315 603 LINE",
"318 603 LINE",
"441 43 LINE",
"447 0 LINE",
"470 0 LINE"
);
},
{
closed = 1;
nodes = (
"411 233 LINE",
"261 233 LINE",
"117 233 LINE",
"110 213 LINE",
"255 213 LINE",
"414 213 LINE"
);
}
);
width = 524;
}
);
leftKerningGroup = A;
rightKerningGroup = A;
unicode = 0041;
},
{
glyphname = Aringacute;
lastChange = "2016-12-06 12:48:41 +0000";
layers = (
{
anchors = (
{
name = _top;
position = "{308, 540}";
},
{
name = top;
position = "{335, 756}";
}
);
layerId = UUID0;
paths = (
{
closed = 1;
nodes = (
"333 634 LINE",
"311 634 LINE",
"-8 0 LINE",
"16 0 LINE",
"35 43 LINE",
"315 603 LINE",
"318 603 LINE",
"440 43 LINE",
"447 0 LINE",
"470 0 LINE"
);
},
{
closed = 1;
nodes = (
"411 233 LINE",
"261 233 LINE",
"117 233 LINE",
"109 213 LINE",
"254 213 LINE",
"413 213 LINE"
);
},
{
closed = 1;
nodes = (
"300 297 LINE"
);
},
{
closed = 1;
nodes = (
"325 756 LINE",
"283 756 OFFCURVE",
"255 726 OFFCURVE",
"255 687 CURVE SMOOTH",
"255 643 OFFCURVE",
"290 617 OFFCURVE",
"325 617 CURVE SMOOTH",
"360 617 OFFCURVE",
"396 642 OFFCURVE",
"396 686 CURVE SMOOTH",
"396 721 OFFCURVE",
"371 756 OFFCURVE",
"325 756 CURVE SMOOTH"
);
},
{
closed = 1;
nodes = (
"325 736 LINE",
"359 736 OFFCURVE",
"376 713 OFFCURVE",
"376 686 CURVE SMOOTH",
"376 654 OFFCURVE",
"352 637 OFFCURVE",
"325 637 CURVE SMOOTH",
"298 637 OFFCURVE",
"275 655 OFFCURVE",
"275 687 CURVE SMOOTH",
"275 716 OFFCURVE",
"294 736 OFFCURVE",
"325 736 CURVE SMOOTH"
);
},
{
closed = 1;
nodes = (
"437 865 LINE",
"367 835 OFFCURVE",
"308 813 OFFCURVE",
"251 793 CURVE",
"256 778 LINE",
"261 774 LINE",
"323 797 OFFCURVE",
"382 819 OFFCURVE",
"445 845 CURVE",
"447 850 LINE",
"442 863 LINE"
);
}
);
width = 524;
}
);
leftKerningGroup = A;
rightKerningGroup = A;
unicode = 01FA;
},
{
glyphname = AE;
lastChange = "2016-12-06 12:48:41 +0000";
layers = (
{
anchors = (
{
name = top;
position = "{516, 637}";
}
);
layerId = UUID0;
paths = (
{
closed = 1;
nodes = (
"669 637 LINE",
"384 637 LINE",
"-42 0 LINE",
"-15 0 LINE",
"11 43 LINE",
"382 602 LINE",
"385 602 LINE",
"403 43 LINE",
"403 0 LINE",
"689 0 LINE",
"695 16 LINE",
"694 20 LINE",
"539 20 LINE",
"423 20 LINE",
"406 617 LINE",
"508 617 LINE",
"664 617 LINE",
"671 633 LINE"
);
},
{
closed = 1;
nodes = (
"642 352 LINE",
"409 312 LINE",
"139 266 LINE",
"124 243 LINE",
"405 292 LINE",
"639 332 LINE",
"644 349 LINE"
);
}
);
width = 744;
}
);
leftKerningGroup = A;
rightKerningGroup = AE;
unicode = 00C6;
},
{
glyphname = B;
lastChange = "2016-12-06 12:48:41 +0000";
layers = (
{
layerId = UUID0;
paths = (
{
closed = 1;
nodes = (
"161 637 LINE",
"164 618 LINE",
"203 618 OFFCURVE",
"243 618 OFFCURVE",
"282 618 CURVE SMOOTH",
"352 618 OFFCURVE",
"394 575 OFFCURVE",
"394 508 CURVE SMOOTH",
"394 421 OFFCURVE",
"348 357 OFFCURVE",
"265 340 CURVE",
"133 343 LINE",
"131 320 LINE",
"272 320 LINE",
"356 313 OFFCURVE",
"402 268 OFFCURVE",
"402 195 CURVE SMOOTH",
"402 84 OFFCURVE",
"321 17 OFFCURVE",
"181 17 CURVE SMOOTH",
"151 17 OFFCURVE",
"118 18 OFFCURVE",
"90 21 CURVE",
"80 0 LINE",
"112 -2 OFFCURVE",
"155 -3 OFFCURVE",
"184 -3 CURVE SMOOTH",
"338 -3 OFFCURVE",
"423 73 OFFCURVE",
"423 198 CURVE SMOOTH",
"423 277 OFFCURVE",
"378 322 OFFCURVE",
"303 334 CURVE",
"374 362 OFFCURVE",
"415 422 OFFCURVE",
"415 513 CURVE SMOOTH",
"415 593 OFFCURVE",
"366 639 OFFCURVE",
"277 639 CURVE"
);
},
{
closed = 1;
nodes = (
"181 637 LINE",
"161 637 LINE",
"105 195 LINE",
"80 0 LINE",
"100 0 LINE",
"125 195 LINE"
);
}
);
width = 471;
}
);
leftKerningGroup = B;
rightKerningGroup = B;
unicode = 0042;
},
{
glyphname = C;
lastChange = "2016-12-06 12:48:41 +0000";
layers = (
{
anchors = (
{
name = bottom;
position = "{278, 0}";
},
{
name = top;
position = "{335, 637}";
}
);
layerId = UUID0;
paths = (
{
closed = 1;
nodes = (
"350 641 LINE",
"163 641 OFFCURVE",
"55 493 OFFCURVE",
"55 251 CURVE SMOOTH",
"55 88 OFFCURVE",
"126 -5 OFFCURVE",
"260 -5 CURVE SMOOTH",
"319 -5 OFFCURVE",
"385 19 OFFCURVE",
"444 62 CURVE",
"448 80 LINE",
"441 82 LINE",
"386 39 OFFCURVE",
"321 15 OFFCURVE",
"261 15 CURVE SMOOTH",
"139 15 OFFCURVE",
"75 101 OFFCURVE",
"75 253 CURVE SMOOTH",
"75 481 OFFCURVE",
"174 621 OFFCURVE",
"348 621 CURVE SMOOTH",
"406 621 OFFCURVE",
"456 601 OFFCURVE",
"494 565 CURVE",
"501 565 LINE",
"510 582 LINE",
"469 620 OFFCURVE",
"410 641 OFFCURVE",
"350 641 CURVE SMOOTH"
);
}
);
width = 497;
}
);
leftKerningGroup = C;
rightKerningGroup = C;
unicode = 0043;
},
{
glyphname = D;
lastChange = "2016-12-06 12:48:41 +0000";
layers = (
{
anchors = (
{
name = bottom;
position = "{277, 0}";
},
{
name = center;
position = "{305, 319}";
},
{
name = top;
position = "{334, 637}";
}
);
layerId = UUID0;
paths = (
{
closed = 1;
nodes = (
"160 637 LINE",
"170 617 LINE",
"196 618 OFFCURVE",
"326 622 OFFCURVE",
"348 622 CURVE SMOOTH",
"485 622 OFFCURVE",
"558 538 OFFCURVE",
"558 390 CURVE SMOOTH",
"558 162 OFFCURVE",
"450 15 OFFCURVE",
"263 15 CURVE SMOOTH",
"238 15 OFFCURVE",
"126 18 OFFCURVE",
"93 20 CURVE",
"80 0 LINE",
"122 -2 OFFCURVE",
"236 -5 OFFCURVE",
"260 -5 CURVE",
"463 -5 OFFCURVE",
"579 151 OFFCURVE",
"579 393 CURVE SMOOTH",
"579 552 OFFCURVE",
"498 642 OFFCURVE",
"350 642 CURVE"
);
},
{
closed = 1;
nodes = (
"180 637 LINE",
"160 637 LINE",
"105 195 LINE",
"80 0 LINE",
"100 0 LINE",
"125 195 LINE"
);
}
);
width = 609;
}
);
leftKerningGroup = B;
rightKerningGroup = D;
unicode = 0044;
},
{
glyphname = E;
lastChange = "2016-12-06 12:48:41 +0000";
layers = (
{
anchors = (
{
name = bottom;
position = "{250, 0}";
},
{
name = ogonek;
position = "{361, 10}";
},
{
name = top;
position = "{311, 637}";
},
{
name = topleft;
position = "{70, 637}";
}
);
layerId = UUID0;
paths = (
{
closed = 1;
nodes = (
"180 637 LINE",
"160 637 LINE",
"105 195 LINE",
"80 0 LINE",
"100 0 LINE",
"125 195 LINE"
);
},
{
closed = 1;
nodes = (
"376 20 LINE",
"227 20 LINE",
"96 20 LINE",
"90 4 LINE",
"94 0 LINE",
"373 0 LINE",
"379 16 LINE"
);
},
{
closed = 1;
nodes = (
"366 340 LINE",
"265 340 LINE",
"136 340 LINE",
"130 324 LINE",
"134 320 LINE",
"259 320 LINE",
"363 320 LINE",
"369 336 LINE"
);
},
{
closed = 1;
nodes = (
"451 637 LINE",
"174 637 LINE",
"168 621 LINE",
"171 617 LINE",
"309 617 LINE",
"447 617 LINE",
"453 633 LINE"
);
}
);
width = 432;
}
);
leftKerningGroup = B;
rightKerningGroup = AE;
unicode = 0045;
},
{
glyphname = F;
lastChange = "2016-12-06 12:48:41 +0000";
layers = (
{
layerId = UUID0;
paths = (
{
closed = 1;
nodes = (
"180 637 LINE",
"160 637 LINE",
"105 195 LINE",
"80 0 LINE",
"100 0 LINE",
"125 195 LINE"
);
},
{
closed = 1;
nodes = (
"356 330 LINE",
"261 330 LINE",
"136 330 LINE",
"133 310 LINE",
"254 310 LINE",
"352 310 LINE",
"358 326 LINE"
);
},
{
closed = 1;
nodes = (
"441 637 LINE",
"174 637 LINE",
"168 621 LINE",
"172 617 LINE",
"306 617 LINE",
"438 617 LINE",
"444 633 LINE"
);
}
);
width = 394;
}
);
leftKerningGroup = B;
rightKerningGroup = F;
unicode = 0046;
},
{
glyphname = G;
lastChange = "2016-12-06 12:48:41 +0000";
layers = (
{
anchors = (
{
name = bottom;
position = "{320, 0}";
},
{
name = top;
position = "{344, 637}";
}
);
layerId = UUID0;
paths = (
{
closed = 1;
nodes = (
"378 641 LINE",
"175 641 OFFCURVE",
"55 496 OFFCURVE",
"55 250 CURVE SMOOTH",
"55 88 OFFCURVE",
"128 -4 OFFCURVE",
"266 -4 CURVE SMOOTH",
"335 -4 OFFCURVE",
"379 5 OFFCURVE",
"465 30 CURVE",
"482 158 LINE",
"491 238 LINE",
"471 236 LINE",
"462 158 LINE",
"447 45 LINE",
"367 22 OFFCURVE",
"325 15 OFFCURVE",
"266 15 CURVE SMOOTH",
"142 15 OFFCURVE",
"75 101 OFFCURVE",
"75 252 CURVE SMOOTH",
"75 483 OFFCURVE",
"186 621 OFFCURVE",
"375 621 CURVE SMOOTH",
"426 621 OFFCURVE",
"479 602 OFFCURVE",
"527 569 CURVE",
"534 569 LINE",
"542 587 LINE",
"491 622 OFFCURVE",
"432 641 OFFCURVE",
"378 641 CURVE SMOOTH"
);
}
);
width = 575;
}
);
leftKerningGroup = C;
rightKerningGroup = G;
unicode = 0047;
},
{
glyphname = H;
lastChange = "2016-12-06 12:48:41 +0000";
layers = (
{
anchors = (
{
name = bottom;
position = "{292, 0}";
},
{
name = center;
position = "{337, 319}";
},
{
name = top;
position = "{371, 637}";
},
{
name = topleft;
position = "{70, 637}";
}
);
layerId = UUID0;
paths = (
{
closed = 1;
nodes = (
"585 637 LINE",
"565 637 LINE",
"510 195 LINE",
"485 0 LINE",
"505 0 LINE",
"530 195 LINE"
);
},
{
closed = 1;
nodes = (
"180 637 LINE",
"160 637 LINE",
"105 195 LINE",
"80 0 LINE",
"100 0 LINE",
"125 195 LINE"
);
},
{
closed = 1;
nodes = (
"536 334 LINE",
"332 334 LINE",
"136 334 LINE",
"133 314 LINE",
"325 314 LINE",
"532 314 LINE"
);
}
);
width = 640;
}
);
leftKerningGroup = B;
rightKerningGroup = H;
unicode = 0048;
},
{
glyphname = Hbar;
lastChange = "2016-12-06 12:48:41 +0000";
layers = (
{
anchors = (
{
name = bottom;
position = "{301, 0}";
},
{
name = center;
position = "{346, 319}";
},
{
name = top;
position = "{380, 637}";
},
{
name = topleft;
position = "{79, 637}";
}
);
layerId = UUID0;
paths = (
{
closed = 1;
nodes = (
"637 504 LINE",
"86 504 LINE",
"84 487 LINE",
"87 484 LINE",
"638 484 LINE",
"640 501 LINE"
);
},
{
closed = 1;
nodes = (
"594 637 LINE",
"574 637 LINE",
"519 195 LINE",
"494 0 LINE",
"514 0 LINE",
"539 195 LINE"
);
},
{
closed = 1;
nodes = (
"189 637 LINE",
"169 637 LINE",
"114 195 LINE",
"89 0 LINE",
"109 0 LINE",
"134 195 LINE"
);
},
{
closed = 1;
nodes = (
"545 334 LINE",
"341 334 LINE",
"145 334 LINE",
"142 314 LINE",
"334 314 LINE",
"541 314 LINE"
);
}
);
width = 661;
}
);
leftKerningGroup = B;
rightKerningGroup = H;
unicode = 0126;
},
{
glyphname = I;
lastChange = "2016-12-06 12:48:41 +0000";
layers = (
{
anchors = (
{
name = bottom;
position = "{90, 0}";
},
{
name = ogonek;
position = "{100, 0}";
},
{
name = top;
position = "{168, 637}";
},
{
name = topleft;
position = "{70, 637}";
}
);
layerId = UUID0;
paths = (
{
closed = 1;
nodes = (
"180 637 LINE",
"160 637 LINE",
"105 195 LINE",
"80 0 LINE",
"100 0 LINE",
"125 195 LINE"
);
}
);
width = 235;
}
);
leftKerningGroup = B;
rightKerningGroup = H;
unicode = 0049;
},
{
glyphname = J;
lastChange = "2016-12-06 12:48:41 +0000";
layers = (
{
anchors = (
{
name = top;
position = "{131, 637}";
}
);
layerId = UUID0;
paths = (
{
closed = 1;
nodes = (
"200 637 LINE",
"180 637 LINE",
"127 208 LINE",
"116 115 LINE SMOOTH",
"106 32 OFFCURVE",
"64 -25 OFFCURVE",
"-27 -81 CURVE",
"-27 -87 LINE",
"-18 -98 LINE",
"81 -37 OFFCURVE",
"123 21 OFFCURVE",
"135 115 CURVE SMOOTH",
"147 212 LINE"
);
},
{
closed = 1;
nodes = (
"190 637 LINE",
"54 637 LINE",
"49 621 LINE",
"53 617 LINE",
"188 617 LINE"
);
}
);
width = 260;
}
);
leftKerningGroup = J;
rightKerningGroup = H;
unicode = 004A;
},
{
glyphname = K;
lastChange = "2016-12-06 12:48:41 +0000";
layers = (
{
anchors = (
{
name = bottom;
position = "{266, 0}";
},
{
name = top;
position = "{252, 637}";
}
);
layerId = UUID0;
paths = (
{
closed = 1;
nodes = (
"514 637 LINE",
"482 637 LINE",
"435 590 LINE",
"170 342 LINE",
"170 339 LINE",
"248 220 OFFCURVE",
"338 102 OFFCURVE",
"428 -6 CURVE",
"432 -7 LINE",
"437 -5 OFFCURVE",
"442 -3 OFFCURVE",
"446 1 CURVE",
"446 5 LINE",
"359 108 OFFCURVE",
"273 224 OFFCURVE",
"198 339 CURVE"
);
},
{
closed = 1;
nodes = (
"181 637 LINE",
"161 637 LINE",
"105 195 LINE",
"80 0 LINE",
"100 0 LINE",
"125 195 LINE"
);
}
);
width = 483;
}
);
leftKerningGroup = B;
rightKerningGroup = K;
unicode = 004B;
},
{
glyphname = L;
lastChange = "2016-12-06 12:48:41 +0000";
layers = (
{
anchors = (
{
name = bottom;
position = "{202, 0}";
},
{
name = center;
position = "{202, 319}";
},
{
name = top;
position = "{173, 637}";
},
{
name = topright;
position = "{369, 387}";
}
);
layerId = UUID0;
paths = (
{
closed = 1;
nodes = (
"181 637 LINE",
"161 637 LINE",
"106 195 LINE",
"81 0 LINE",
"101 0 LINE",
"126 195 LINE"
);
},
{
closed = 1;
nodes = (
"348 20 LINE",
"94 20 LINE",
"89 4 LINE",
"92 0 LINE",
"345 0 LINE",
"351 16 LINE"
);
}
);
width = 382;
}
);
leftKerningGroup = B;
rightKerningGroup = L;
unicode = 004C;
},
{
glyphname = Lslash;
lastChange = "2016-12-06 12:48:41 +0000";
layers = (
{
anchors = (
{
name = bottom;
position = "{208, 0}";
},
{
name = center;
position = "{208, 319}";
},
{
name = top;
position = "{179, 637}";
},
{
name = topright;
position = "{375, 387}";
}
);
layerId = UUID0;
paths = (
{
closed = 1;
nodes = (
"311 454 LINE",
"31 304 LINE",
"34 289 LINE",
"39 286 LINE",
"320 437 LINE",
"316 452 LINE"
);
},
{
closed = 1;
nodes = (
"187 637 LINE",
"167 637 LINE",
"112 195 LINE",
"87 0 LINE",
"107 0 LINE",
"132 195 LINE"
);
},
{
closed = 1;
nodes = (
"354 20 LINE",
"100 20 LINE",
"95 4 LINE",
"98 0 LINE",
"351 0 LINE",
"357 16 LINE"
);
}
);
width = 387;
}
);
leftKerningGroup = B;
rightKerningGroup = L;
unicode = 0141;
},
{
glyphname = M;
lastChange = "2016-12-06 12:48:41 +0000";
layers = (
{
anchors = (
{
name = bottom;
position = "{343, 0}";
},
{
name = top;
position = "{421, 637}";
}
);
layerId = UUID0;
paths = (
{
closed = 1;
nodes = (
"657 637 LINE",
"633 637 LINE",
"587 549 LINE",
"356 110 LINE",
"352 110 LINE",
"242 538 LINE",
"216 637 LINE",
"193 637 LINE",
"47 0 LINE",
"68 0 LINE",
"112 195 LINE",
"202 589 LINE",
"206 589 LINE",
"339 81 LINE",
"364 81 LINE",
"629 589 LINE",
"633 589 LINE",
"625 195 LINE",
"619 0 LINE",
"640 0 LINE"
);
}
);
width = 742;
}
);
leftKerningGroup = M;
rightKerningGroup = M;
unicode = 004D;
},
{
glyphname = N;
lastChange = "2016-12-06 12:48:41 +0000";
layers = (
{
anchors = (
{
name = bottom;
position = "{293, 0}";
},
{
name = top;
position = "{371, 637}";
}
);
layerId = UUID0;
paths = (
{
closed = 1;
nodes = (
"585 638 LINE",
"565 636 LINE",
"488 42 LINE",
"484 42 LINE",
"180 637 LINE",
"161 637 LINE",
"104 190 LINE",
"80 0 LINE",
"100 0 LINE",
"125 199 LINE",
"176 595 LINE",
"180 595 LINE",
"484 0 LINE",
"503 0 LINE",
"526 176 LINE"
);
}
);
width = 640;
}
);
leftKerningGroup = B;
rightKerningGroup = H;
unicode = 004E;
},
{
glyphname = Eng;
lastChange = "2016-12-06 12:48:41 +0000";
layers = (
{
layerId = UUID0;
paths = (
{
closed = 1;
nodes = (
"588 638 LINE",
"568 636 LINE",
"493 42 LINE",
"489 42 LINE",
"178 637 LINE",
"159 637 LINE",
"103 190 LINE",
"80 0 LINE",
"100 0 LINE",
"124 199 LINE",
"173 595 LINE",
"177 595 LINE",
"486 5 LINE",
"470 -47 OFFCURVE",
"433 -83 OFFCURVE",
"357 -127 CURVE",
"356 -133 LINE",
"366 -144 LINE",
"464 -88 OFFCURVE",
"503 -40 OFFCURVE",
"512 39 CURVE SMOOTH",
"530 176 LINE"
);
}
);
width = 648;
}
);
leftKerningGroup = B;
rightKerningGroup = H;
unicode = 014A;
},
{
glyphname = O;
lastChange = "2016-12-06 12:48:41 +0000";
layers = (
{
anchors = (
{
name = bottom;
position = "{272, 0}";
},
{
name = center;
position = "{311, 319}";
},
{
name = ogonek;
position = "{357, 10}";
},
{
name = top;
position = "{350, 637}";
},
{
name = topleft;
position = "{70, 637}";
},
{
name = topright;
position = "{629, 637}";
}
);
layerId = UUID0;
paths = (
{
closed = 1;
nodes = (
"355 642 LINE",
"165 642 OFFCURVE",
"56 495 OFFCURVE",
"56 253 CURVE SMOOTH",
"56 89 OFFCURVE",
"130 -5 OFFCURVE",
"267 -5 CURVE SMOOTH",
"459 -5 OFFCURVE",
"568 147 OFFCURVE",
"568 391 CURVE SMOOTH",
"568 551 OFFCURVE",
"494 642 OFFCURVE",
"355 642 CURVE"
);
},
{
closed = 1;
nodes = (
"354 622 LINE",
"481 622 OFFCURVE",
"547 537 OFFCURVE",
"547 387 CURVE SMOOTH",
"547 159 OFFCURVE",
"445 15 OFFCURVE",
"268 15 CURVE SMOOTH",
"144 15 OFFCURVE",
"77 103 OFFCURVE",
"77 256 CURVE SMOOTH",
"77 483 OFFCURVE",
"179 622 OFFCURVE",
"354 622 CURVE SMOOTH"
);
}
);
width = 599;
}
);
leftKerningGroup = C;
rightKerningGroup = D;
unicode = 004F;
},
{
glyphname = Ohorn;
lastChange = "2016-12-06 12:48:41 +0000";
layers = (
{
anchors = (
{
name = top;
position = "{350, 637}";
}
);
layerId = UUID0;
paths = (
{
closed = 1;
nodes = (
"597 753 LINE",
"595 753 OFFCURVE",
"591 752 OFFCURVE",
"584 748 CURVE",
"582 743 LINE",
"597 723 OFFCURVE",
"605 700 OFFCURVE",
"605 679 CURVE SMOOTH",
"605 630 OFFCURVE",
"560 606 OFFCURVE",
"519 606 CURVE SMOOTH",
"468 606 OFFCURVE",
"451 642 OFFCURVE",
"358 642 CURVE SMOOTH",
"163 642 OFFCURVE",
"56 487 OFFCURVE",
"56 265 CURVE SMOOTH",
"56 82 OFFCURVE",
"129 -5 OFFCURVE",
"268 -5 CURVE SMOOTH",
"456 -5 OFFCURVE",
"567 153 OFFCURVE",
"567 382 CURVE SMOOTH",
"567 473 OFFCURVE",
"550 541 OFFCURVE",
"504 587 CURVE",
"574 584 OFFCURVE",
"626 620 OFFCURVE",
"626 686 CURVE SMOOTH",
"626 724 OFFCURVE",
"608 753 OFFCURVE",
"597 753 CURVE SMOOTH"
);
},
{
closed = 1;
nodes = (
"352 622 LINE",
"479 622 OFFCURVE",
"547 544 OFFCURVE",
"547 375 CURVE SMOOTH",
"547 166 OFFCURVE",
"444 15 OFFCURVE",
"270 15 CURVE SMOOTH",
"143 15 OFFCURVE",
"76 96 OFFCURVE",
"76 266 CURVE SMOOTH",
"76 475 OFFCURVE",
"177 622 OFFCURVE",
"352 622 CURVE SMOOTH"
);
}
);
width = 601;
}
);
leftKerningGroup = C;
rightKerningGroup = D;
unicode = 01A0;
},
{
glyphname = Oslash;
lastChange = "2016-12-06 12:48:41 +0000";
layers = (
{
anchors = (
{
name = bottom;
position = "{272, 0}";
},
{
name = top;
position = "{350, 637}";
}
);
layerId = UUID0;
paths = (
{
closed = 1;
nodes = (
"544 706 LINE",
"528 709 LINE",
"85 -80 LINE",
"87 -84 LINE",
"102 -87 LINE",
"545 701 LINE"
);
},
{
closed = 1;
nodes = (
"355 642 LINE",
"165 642 OFFCURVE",
"56 495 OFFCURVE",
"56 253 CURVE SMOOTH",
"56 89 OFFCURVE",
"130 -5 OFFCURVE",
"267 -5 CURVE SMOOTH",
"459 -5 OFFCURVE",
"568 147 OFFCURVE",
"568 391 CURVE SMOOTH",
"568 551 OFFCURVE",
"494 642 OFFCURVE",
"355 642 CURVE"
);
},
{
closed = 1;
nodes = (
"354 622 LINE",
"481 622 OFFCURVE",
"547 537 OFFCURVE",
"547 387 CURVE SMOOTH",
"547 159 OFFCURVE",
"445 15 OFFCURVE",
"268 15 CURVE SMOOTH",
"144 15 OFFCURVE",
"77 103 OFFCURVE",
"77 256 CURVE SMOOTH",
"77 483 OFFCURVE",
"179 622 OFFCURVE",
"354 622 CURVE SMOOTH"
);
}
);
width = 600;
}
);
leftKerningGroup = C;
rightKerningGroup = D;
unicode = 00D8;
},
{
glyphname = OE;
lastChange = "2016-12-06 12:48:41 +0000";
layers = (
{
anchors = (
{
name = top;
position = "{566, 637}";
}
);
layerId = UUID0;
paths = (
{
closed = 1;
nodes = (
"395 649 LINE",
"183 649 OFFCURVE",
"56 498 OFFCURVE",
"56 260 CURVE SMOOTH",
"56 90 OFFCURVE",
"143 -12 OFFCURVE",
"301 -12 CURVE SMOOTH",
"348 -12 OFFCURVE",
"403 0 OFFCURVE",
"457 0 CURVE SMOOTH",
"730 0 LINE",
"736 16 LINE",
"733 20 LINE",
"589 20 LINE",
"459 20 LINE",
"480 188 LINE",
"496 320 LINE",
"608 320 LINE",
"718 320 LINE",
"724 336 LINE",
"722 340 LINE",
"612 340 LINE",
"500 340 LINE",
"534 617 LINE",
"676 617 LINE",
"804 617 LINE",
"810 633 LINE",
"807 637 LINE",
"538 637 LINE SMOOTH",
"485 637 OFFCURVE",
"446 649 OFFCURVE",
"395 649 CURVE SMOOTH"
);
},
{
closed = 1;
nodes = (
"392 629 LINE",
"434 629 OFFCURVE",
"483 621 OFFCURVE",
"499 618 CURVE SMOOTH",
"510 616 OFFCURVE",
"511 611 OFFCURVE",
"508 586 CURVE SMOOTH",
"442 43 LINE SMOOTH",
"440 27 OFFCURVE",
"434 22 OFFCURVE",
"411 18 CURVE SMOOTH",
"393 15 OFFCURVE",
"346 8 OFFCURVE",
"309 8 CURVE SMOOTH",
"154 8 OFFCURVE",
"76 104 OFFCURVE",
"76 262 CURVE SMOOTH",
"76 487 OFFCURVE",
"195 629 OFFCURVE",
"392 629 CURVE SMOOTH"
);
}
);
width = 789;
}
);
leftKerningGroup = C;
rightKerningGroup = AE;
unicode = 0152;
},
{
glyphname = P;
lastChange = "2016-12-06 12:48:41 +0000";
layers = (
{
layerId = UUID0;
paths = (
{
closed = 1;
nodes = (
"160 637 LINE",
"165 618 LINE",
"298 619 LINE",
"380 615 OFFCURVE",
"424 567 OFFCURVE",
"424 485 CURVE SMOOTH",
"424 365 OFFCURVE",
"358 280 OFFCURVE",
"246 269 CURVE",
"124 269 LINE",
"121 249 LINE",
"214 249 LINE",
"362 249 OFFCURVE",
"444 339 OFFCURVE",
"444 489 CURVE SMOOTH",
"444 584 OFFCURVE",
"390 639 OFFCURVE",
"293 639 CURVE"
);
},
{
closed = 1;
nodes = (
"180 637 LINE",
"160 637 LINE",
"105 195 LINE",
"80 0 LINE",
"100 0 LINE",
"125 195 LINE"
);
}
);
width = 464;
}
);
leftKerningGroup = B;
rightKerningGroup = P;
unicode = 0050;
},
{
glyphname = Thorn;
lastChange = "2016-12-06 12:48:41 +0000";
layers = (
{
layerId = UUID0;
paths = (
{
closed = 1;
nodes = (
"180 637 LINE",
"160 637 LINE",
"105 195 LINE",
"80 0 LINE",
"100 0 LINE",
"125 195 LINE"
);
},
{
closed = 1;
nodes = (
"145 514 LINE",
"150 495 LINE",
"283 496 LINE",
"365 492 OFFCURVE",
"409 444 OFFCURVE",
"409 362 CURVE SMOOTH",
"409 242 OFFCURVE",
"343 157 OFFCURVE",
"231 146 CURVE",
"109 146 LINE",
"106 126 LINE",
"199 126 LINE",
"347 126 OFFCURVE",
"429 216 OFFCURVE",
"429 366 CURVE SMOOTH",
"429 461 OFFCURVE",
"376 516 OFFCURVE",
"278 516 CURVE"
);
}
);
width = 467;
}
);
leftKerningGroup = B;
rightKerningGroup = Thorn;
unicode = 00DE;
},
{
glyphname = Q;
lastChange = "2016-12-06 12:48:41 +0000";
layers = (
{
layerId = UUID0;
paths = (
{
closed = 1;
nodes = (
"355 642 LINE",
"165 642 OFFCURVE",
"56 495 OFFCURVE",
"56 253 CURVE SMOOTH",
"56 89 OFFCURVE",
"130 -5 OFFCURVE",
"267 -5 CURVE SMOOTH",
"459 -5 OFFCURVE",
"568 147 OFFCURVE",
"568 391 CURVE SMOOTH",
"568 551 OFFCURVE",
"494 642 OFFCURVE",
"355 642 CURVE"
);
},
{
closed = 1;
nodes = (
"289 -1 LINE",
"384 -100 OFFCURVE",
"511 -165 OFFCURVE",
"647 -182 CURVE",
"651 -182 LINE",
"652 -182 OFFCURVE",
"655 -178 OFFCURVE",
"661 -170 CURVE",
"662 -164 LINE",
"524 -147 OFFCURVE",
"400 -85 OFFCURVE",
"308 9 CURVE"
);
},
{
closed = 1;
nodes = (
"354 622 LINE",
"481 622 OFFCURVE",
"547 537 OFFCURVE",
"547 387 CURVE SMOOTH",
"547 159 OFFCURVE",
"445 15 OFFCURVE",
"268 15 CURVE SMOOTH",
"144 15 OFFCURVE",
"77 103 OFFCURVE",
"77 256 CURVE SMOOTH",
"77 483 OFFCURVE",
"179 622 OFFCURVE",
"354 622 CURVE SMOOTH"
);
}
);
width = 592;
}
);
leftKerningGroup = C;
rightKerningGroup = D;
unicode = 0051;
},
{
glyphname = R;
lastChange = "2016-12-06 12:48:41 +0000";
layers = (
{
anchors = (
{
name = bottom;
position = "{219, 0}";
},
{
name = top;
position = "{297, 637}";
}
);
layerId = UUID0;
paths = (
{
closed = 1;
nodes = (
"160 637 LINE",
"165 618 LINE",
"298 619 LINE",
"381 615 OFFCURVE",
"425 568 OFFCURVE",
"425 488 CURVE SMOOTH",
"425 384 OFFCURVE",
"368 309 OFFCURVE",
"270 283 CURVE",
"126 283 LINE",
"123 263 LINE",
"269 263 LINE",
"382 293 OFFCURVE",
"445 376 OFFCURVE",
"445 491 CURVE SMOOTH",
"445 586 OFFCURVE",
"391 639 OFFCURVE",
"293 639 CURVE"
);
},
{
closed = 1;
nodes = (
"180 637 LINE",
"160 637 LINE",
"105 195 LINE",
"80 0 LINE",
"100 0 LINE",
"125 195 LINE"
);
},
{
closed = 1;
nodes = (
"252 277 LINE",
"294 181 OFFCURVE",
"343 87 OFFCURVE",
"398 -5 CURVE",
"403 -7 LINE",
"409 -5 OFFCURVE",
"412 -3 OFFCURVE",
"416 1 CURVE",
"417 5 LINE",
"363 94 OFFCURVE",
"316 184 OFFCURVE",
"275 277 CURVE"
);
}
);
width = 494;
}
);
leftKerningGroup = B;
rightKerningGroup = R;
unicode = 0052;
},
{
glyphname = S;
lastChange = "2016-12-06 12:48:41 +0000";
layers = (
{
anchors = (
{
name = bottom;
position = "{184, 0}";
},
{
name = top;
position = "{262, 637}";
}
);
layerId = UUID0;
paths = (
{
closed = 1;
nodes = (
"284 640 LINE",
"177 640 OFFCURVE",
"95 569 OFFCURVE",
"95 478 CURVE SMOOTH",
"95 310 OFFCURVE",
"344 320 OFFCURVE",
"344 165 CURVE SMOOTH",
"344 88 OFFCURVE",
"272 16 OFFCURVE",
"168 16 CURVE SMOOTH",
"124 16 OFFCURVE",
"73 31 OFFCURVE",
"37 64 CURVE",
"31 62 LINE",
"28 43 LINE",
"65 12 OFFCURVE",
"118 -4 OFFCURVE",
"166 -4 CURVE SMOOTH",
"277 -4 OFFCURVE",
"364 73 OFFCURVE",
"364 167 CURVE SMOOTH",
"364 338 OFFCURVE",
"115 330 OFFCURVE",
"115 477 CURVE SMOOTH",
"115 547 OFFCURVE",
"180 620 OFFCURVE",
"281 620 CURVE SMOOTH",
"313 620 OFFCURVE",
"352 612 OFFCURVE",
"385 592 CURVE",
"392 593 LINE",
"398 611 LINE",
"358 633 OFFCURVE",
"316 640 OFFCURVE",
"284 640 CURVE SMOOTH"
);
}
);
width = 423;
}
);
leftKerningGroup = S;
rightKerningGroup = S;
unicode = 0053;
},
{
glyphname = T;
lastChange = "2016-12-06 12:48:41 +0000";
layers = (
{
anchors = (
{
name = bottom;
position = "{198, 0}";
},
{
name = center;
position = "{242, 319}";
},
{
name = top;
position = "{276, 637}";
}
);
layerId = UUID0;
paths = (
{
closed = 1;
nodes = (
"286 627 LINE",
"266 627 LINE",
"211 195 LINE",
"187 0 LINE",
"207 0 LINE",
"231 195 LINE"
);
},
{
closed = 1;
nodes = (
"471 637 LINE",
"83 637 LINE",
"77 621 LINE",
"80 617 LINE",
"178 617 LINE",
"373 617 LINE",
"468 617 LINE",
"474 633 LINE"
);
}
);
width = 450;
}
);
leftKerningGroup = T;
rightKerningGroup = T;
unicode = 0054;
},
{
glyphname = Tbar;
lastChange = "2016-12-06 12:48:41 +0000";
layers = (
{
anchors = (
{
name = bottom;
position = "{198, 0}";
},
{
name = center;
position = "{242, 319}";
},
{
name = top;
position = "{276, 637}";
}
);
layerId = UUID0;
paths = (
{
closed = 1;
nodes = (
"344 350 LINE",
"134 350 LINE",
"132 333 LINE",
"135 330 LINE",
"345 330 LINE",
"347 347 LINE"
);
},
{
closed = 1;
nodes = (
"286 627 LINE",
"266 627 LINE",
"211 195 LINE",
"187 0 LINE",
"207 0 LINE",
"231 195 LINE"
);
},
{
closed = 1;
nodes = (
"471 637 LINE",
"83 637 LINE",
"77 621 LINE",
"80 617 LINE",
"178 617 LINE",
"373 617 LINE",
"468 617 LINE",
"474 633 LINE"
);
}
);
width = 450;
}
);
leftKerningGroup = T;
rightKerningGroup = T;
unicode = 0166;
},
{
glyphname = U;
lastChange = "2016-12-06 12:48:41 +0000";
layers = (
{
anchors = (
{
name = bottom;
position = "{264, 0}";
},
{
name = ogonek;
position = "{351, 10}";
},
{
name = top;
position = "{342, 637}";
},
{
name = topright;
position = "{613, 637}";
}
);
layerId = UUID0;
paths = (
{
closed = 1;
nodes = (
"551 637 LINE",
"531 637 LINE",
"480 229 LINE SMOOTH",
"462 92 OFFCURVE",
"386 16 OFFCURVE",
"265 16 CURVE SMOOTH",
"159 16 OFFCURVE",
"101 74 OFFCURVE",
"101 180 CURVE SMOOTH",
"101 196 OFFCURVE",
"103 212 OFFCURVE",
"105 229 CURVE SMOOTH",
"158 637 LINE",
"138 637 LINE",
"98 322 LINE",
"85 229 LINE SMOOTH",
"82 211 OFFCURVE",
"81 192 OFFCURVE",
"81 176 CURVE SMOOTH",
"81 60 OFFCURVE",
"148 -4 OFFCURVE",
"266 -4 CURVE SMOOTH",
"400 -4 OFFCURVE",
"485 82 OFFCURVE",
"500 229 CURVE",
"510 312 LINE"
);
}
);
width = 583;
}
);
leftKerningGroup = U;
rightKerningGroup = U;
unicode = 0055;
},
{
glyphname = Uhorn;
lastChange = "2016-12-06 12:48:41 +0000";
layers = (
{
anchors = (
{
name = bottom;
position = "{269, 0}";
},
{
name = top;
position = "{339, 637}";
}
);
layerId = UUID0;
paths = (
{
closed = 1;
nodes = (
"590 761 LINE",
"588 761 OFFCURVE",
"583 760 OFFCURVE",
"578 756 CURVE",
"576 751 LINE",
"599 726 OFFCURVE",
"607 708 OFFCURVE",
"607 690 CURVE SMOOTH",
"607 658 OFFCURVE",
"582 637 OFFCURVE",
"542 637 CURVE",
"541 617 LINE",
"593 617 OFFCURVE",
"627 646 OFFCURVE",
"627 690 CURVE SMOOTH",
"627 730 OFFCURVE",
"601 761 OFFCURVE",
"590 761 CURVE SMOOTH"
);
},
{
closed = 1;
nodes = (
"551 637 LINE",
"531 637 LINE",
"480 229 LINE SMOOTH",
"462 92 OFFCURVE",
"386 16 OFFCURVE",
"265 16 CURVE SMOOTH",
"159 16 OFFCURVE",
"101 74 OFFCURVE",
"101 180 CURVE SMOOTH",
"101 196 OFFCURVE",
"103 212 OFFCURVE",
"105 229 CURVE SMOOTH",
"158 637 LINE",
"138 637 LINE",
"98 322 LINE",
"85 229 LINE SMOOTH",
"82 211 OFFCURVE",
"81 192 OFFCURVE",
"81 176 CURVE SMOOTH",
"81 60 OFFCURVE",
"148 -4 OFFCURVE",
"266 -4 CURVE SMOOTH",
"400 -4 OFFCURVE",
"485 82 OFFCURVE",
"500 229 CURVE",
"510 312 LINE"
);
}
);
width = 593;
}
);
leftKerningGroup = U;
rightKerningGroup = Uhorn;
unicode = 01AF;
},
{
glyphname = V;
lastChange = "2016-12-06 12:48:41 +0000";
layers = (
{
layerId = UUID0;
paths = (
{
closed = 1;
nodes = (
"549 637 LINE",
"525 637 LINE",
"507 594 LINE",
"227 34 LINE",
"223 34 LINE",
"101 594 LINE",
"94 637 LINE",
"71 637 LINE",
"210 0 LINE",
"232 0 LINE"
);
}
);
width = 508;
}
);
leftKerningGroup = V;
rightKerningGroup = V;
unicode = 0056;
},
{
glyphname = W;
lastChange = "2016-12-06 12:48:41 +0000";
layers = (
{
anchors = (
{
name = top;
position = "{447, 637}";
}
);
layerId = UUID0;
paths = (
{
closed = 1;
nodes = (
"873 637 LINE",
"850 637 LINE",
"831 594 LINE",
"555 34 LINE",
"551 34 LINE",
"433 594 LINE",
"426 637 LINE",
"404 637 LINE",
"440 471 LINE",
"227 34 LINE",
"223 34 LINE",
"104 594 LINE",
"97 637 LINE",
"74 637 LINE",
"209 0 LINE",
"231 0 LINE",
"444 438 LINE",
"448 438 LINE",
"539 0 LINE",
"559 0 LINE"
);
}
);
width = 834;
}
);
leftKerningGroup = V;
rightKerningGroup = V;
unicode = 0057;
},
{
glyphname = X;
lastChange = "2016-12-06 12:48:41 +0000";
layers = (
{
layerId = UUID0;
paths = (
{
closed = 1;
nodes = (
"528 637 LINE",
"501 637 LINE",
"474 597 LINE",
"279 346 LINE",
"145 602 LINE",
"129 637 LINE",
"103 637 LINE",
"264 331 LINE",
"7 0 LINE",
"34 0 LINE",
"59 36 LINE",
"274 314 LINE",
"422 38 LINE",
"438 0 LINE",
"463 0 LINE",
"290 329 LINE"
);
}
);
width = 537;
}
);
leftKerningGroup = X;
rightKerningGroup = K;
unicode = 0058;
},
{
glyphname = Y;
lastChange = "2016-12-06 12:48:41 +0000";
layers = (
{
anchors = (
{
name = bottom;
position = "{207, 0}";
},
{
name = top;
position = "{285, 637}";
},
{
name = topleft;
position = "{70, 637}";
}
);
layerId = UUID0;
paths = (
{
closed = 1;
nodes = (
"492 637 LINE",
"466 637 LINE",
"452 611 LINE",
"234 277 LINE",
"229 277 LINE",
"109 611 LINE",
"102 637 LINE",
"77 637 LINE",
"222 234 LINE",
"230 234 LINE"
);
},
{
closed = 1;
nodes = (
"241 267 LINE",
"221 267 LINE",
"211 195 LINE",
"187 0 LINE",
"207 0 LINE",
"231 195 LINE"
);
}
);
width = 469;
}
);
leftKerningGroup = Y;
rightKerningGroup = Y;
unicode = 0059;
},
{
glyphname = Z;
lastChange = "2016-12-06 12:48:41 +0000";
layers = (
{
anchors = (
{
name = bottom;
position = "{213, 0}";
},
{
name = top;
position = "{263, 637}";
}
);
layerId = UUID0;
paths = (
{
closed = 1;
nodes = (
"489 638 LINE",
"454 637 LINE",
"168 637 LINE",
"107 638 LINE",
"101 621 LINE",
"105 616 LINE",
"160 617 LINE",
"460 617 LINE",
"7 17 LINE",
"5 -1 LINE",
"39 0 LINE",
"338 0 LINE",
"407 0 LINE",
"413 16 LINE",
"409 21 LINE",
"344 20 LINE",
"34 20 LINE",
"487 620 LINE"
);
}
);
width = 482;
}
);
leftKerningGroup = Z;
rightKerningGroup = Z;
unicode = 005A;
},
{
glyphname = Q.corta;
lastChange = "2016-12-06 12:48:50 +0000";
layers = (
{
layerId = UUID0;
paths = (
{
closed = 1;
nodes = (
"355 642 LINE",
"165 642 OFFCURVE",
"56 495 OFFCURVE",
"56 253 CURVE SMOOTH",
"56 89 OFFCURVE",
"130 -5 OFFCURVE",
"267 -5 CURVE SMOOTH",
"459 -5 OFFCURVE",
"568 147 OFFCURVE",
"568 391 CURVE SMOOTH",
"568 551 OFFCURVE",
"494 642 OFFCURVE",
"355 642 CURVE"
);
},
{
closed = 1;
nodes = (
"289 -1 LINE",
"339 -82 OFFCURVE",
"413 -140 OFFCURVE",
"528 -185 CURVE",
"533 -185 LINE",
"533 -185 OFFCURVE",
"536 -181 OFFCURVE",
"540 -174 CURVE",
"541 -168 LINE",
"426 -123 OFFCURVE",
"353 -68 OFFCURVE",
"307 8 CURVE"
);
},
{
closed = 1;
nodes = (
"354 622 LINE",
"481 622 OFFCURVE",
"547 537 OFFCURVE",
"547 387 CURVE SMOOTH",
"547 159 OFFCURVE",
"445 15 OFFCURVE",
"268 15 CURVE SMOOTH",
"144 15 OFFCURVE",
"77 103 OFFCURVE",
"77 256 CURVE SMOOTH",
"77 483 OFFCURVE",
"179 622 OFFCURVE",
"354 622 CURVE SMOOTH"
);
}
);
width = 593;
}
);
leftKerningGroup = C;
rightKerningGroup = D;
},
{
glyphname = C.ss01;
lastChange = "2016-12-06 12:48:50 +0000";
layers = (
{
anchors = (
{
name = bottom;
position = "{215, 5}";
},
{
name = top;
position = "{273, 486}";
}
);
layerId = UUID0;
paths = (
{
closed = 1;
nodes = (
"292 489 LINE",
"139 489 OFFCURVE",
"54 379 OFFCURVE",
"54 197 CURVE SMOOTH",
"54 72 OFFCURVE",
"111 1 OFFCURVE",
"221 1 CURVE SMOOTH",
"268 1 OFFCURVE",
"321 19 OFFCURVE",
"368 50 CURVE",
"372 68 LINE",
"366 70 LINE",
"323 38 OFFCURVE",
"270 20 OFFCURVE",
"223 20 CURVE SMOOTH",
"126 20 OFFCURVE",
"74 84 OFFCURVE",
"74 199 CURVE SMOOTH",
"74 368 OFFCURVE",
"152 471 OFFCURVE",
"289 471 CURVE SMOOTH",
"334 471 OFFCURVE",
"375 455 OFFCURVE",
"404 428 CURVE",
"410 428 LINE",
"419 446 LINE",
"385 473 OFFCURVE",
"339 489 OFFCURVE",
"292 489 CURVE SMOOTH"
);
},
{
closed = 1;
nodes = (
"506 20 LINE",
"-122 20 LINE",
"-124 0 LINE",
"504 0 LINE"
);
},
{
closed = 1;
nodes = (
"566 491 LINE",
"-62 491 LINE",
"-64 471 LINE",
"564 471 LINE"
);
}
);
width = 436;
}
);
},
{
glyphname = D.ss01;
lastChange = "2016-12-06 12:48:50 +0000";
layers = (
{
anchors = (
{
name = center;
position = "{251, 245}";
},
{
name = top;
position = "{279, 485}";
}
);
layerId = UUID0;
paths = (
{
closed = 1;
nodes = (
"137 485 LINE",
"148 466 LINE",
"167 467 OFFCURVE",
"273 470 OFFCURVE",
"289 470 CURVE SMOOTH",
"398 470 OFFCURVE",
"456 407 OFFCURVE",
"456 295 CURVE SMOOTH",
"456 125 OFFCURVE",
"371 19 OFFCURVE",
"225 19 CURVE SMOOTH",
"205 19 OFFCURVE",
"115 21 OFFCURVE",
"92 23 CURVE",
"76 4 LINE",
"110 2 OFFCURVE",
"201 0 OFFCURVE",
"221 0 CURVE",
"383 0 OFFCURVE",
"477 115 OFFCURVE",
"477 298 CURVE SMOOTH",
"477 420 OFFCURVE",
"412 489 OFFCURVE",
"292 489 CURVE"
);
},
{
closed = 1;
nodes = (
"594 20 LINE",
"-122 20 LINE",
"-124 0 LINE",
"592 0 LINE"
);
},
{
closed = 1;
nodes = (
"156 485 LINE",
"137 485 LINE",
"95 151 LINE",
"76 4 LINE",
"96 4 LINE",
"115 152 LINE"
);
},
{
closed = 1;
nodes = (
"654 491 LINE",
"-62 491 LINE",
"-64 471 LINE",
"652 471 LINE"
);
}
);
width = 524;
}
);
},
{
glyphname = I.ss01;
lastChange = "2016-12-06 12:48:50 +0000";
layers = (
{
anchors = (
{
name = ogonek;
position = "{132, 10}";
},
{
name = top;
position = "{146, 488}";
}
);
layerId = UUID0;
paths = (
{
closed = 1;
nodes = (
"154 488 LINE",
"134 488 LINE",
"91 151 LINE",
"72 2 LINE",
"92 2 LINE",
"111 151 LINE"
);
},
{
closed = 1;
nodes = (
"290 20 LINE",
"-122 20 LINE",
"-124 0 LINE",
"288 0 LINE"
);
},
{
closed = 1;
nodes = (
"350 491 LINE",
"-62 491 LINE",
"-64 471 LINE",
"348 471 LINE"
);
}
);
width = 220;
}
);
},
{
glyphname = L.ss01;
lastChange = "2016-12-06 12:48:50 +0000";
layers = (
{
layerId = UUID0;
paths = (
{
closed = 1;
nodes = (
"152 491 LINE",
"132 491 LINE",
"91 166 LINE",
"71 0 LINE",
"293 0 LINE",
"307 110 LINE",
"287 110 LINE",
"275 19 LINE",
"93 19 LINE",
"111 166 LINE"
);
},
{
closed = 1;
nodes = (
"410 20 LINE",
"-122 20 LINE",
"-124 0 LINE",
"408 0 LINE"
);
},
{
closed = 1;
nodes = (
"470 491 LINE",
"-62 491 LINE",
"-64 471 LINE",
"468 471 LINE"
);
}
);
width = 340;
}
);
},
{
glyphname = M.ss01;
lastChange = "2016-12-06 12:48:50 +0000";
layers = (
{
layerId = UUID0;
paths = (
{
closed = 1;
nodes = (
"537 488 LINE",
"515 488 LINE",
"479 423 LINE",
"302 107 LINE",
"299 107 LINE",
"208 415 LINE",
"188 488 LINE",
"165 488 LINE",
"52 11 LINE",
"72 11 LINE",
"106 158 LINE",
"175 446 LINE",
"177 446 LINE",
"286 79 LINE",
"309 79 LINE",
"512 446 LINE",
"516 446 LINE",
"511 157 LINE",
"507 11 LINE",
"526 11 LINE"
);
},
{
closed = 1;
nodes = (
"705 20 LINE",
"-122 20 LINE",
"-124 0 LINE",
"703 0 LINE"
);
},
{
closed = 1;
nodes = (
"765 491 LINE",
"-62 491 LINE",
"-64 471 LINE",
"762 471 LINE"
);
}
);
width = 634;
}
);
},
{
glyphname = V.ss01;
lastChange = "2016-12-06 12:48:50 +0000";
layers = (
{
layerId = UUID0;
paths = (
{
closed = 1;
nodes = (
"457 488 LINE",
"435 488 LINE",
"418 453 LINE",
"198 32 LINE",
"196 32 LINE",
"94 453 LINE",
"89 488 LINE",
"67 488 LINE",
"182 2 LINE",
"203 2 LINE"
);
},
{
closed = 1;
nodes = (
"519 20 LINE",
"-122 20 LINE",
"-124 0 LINE",
"517 0 LINE"
);
},
{
closed = 1;
nodes = (
"579 491 LINE",
"-62 491 LINE",
"-64 471 LINE",
"577 471 LINE"
);
}
);
width = 449;
}
);
},
{
glyphname = X.ss01;
lastChange = "2016-12-06 12:48:50 +0000";
layers = (
{
layerId = UUID0;
paths = (
{
closed = 1;
nodes = (
"438 488 LINE",
"411 488 LINE",
"389 456 LINE",
"236 269 LINE",
"126 460 LINE",
"113 488 LINE",
"85 488 LINE",
"220 253 LINE",
"15 2 LINE",
"40 2 LINE",
"60 31 LINE",
"231 238 LINE",
"348 32 LINE",
"364 2 LINE",
"390 2 LINE",
"245 253 LINE"
);
},
{
closed = 1;
nodes = (
"541 20 LINE",
"-122 20 LINE",
"-124 0 LINE",
"539 0 LINE"
);
},
{
closed = 1;
nodes = (
"601 491 LINE",
"-62 491 LINE",
"-64 471 LINE",
"599 471 LINE"
);
}
);
width = 471;
}
);
},
{
glyphname = a;
lastChange = "2016-12-06 12:48:41 +0000";
layers = (
{
anchors = (
{
name = bottom;
position = "{183, 0}";
},
{
name = ogonek;
position = "{304, 0}";
},
{
name = top;
position = "{252, 452}";
}
);
layerId = UUID0;
paths = (
{
closed = 1;
nodes = (
"354 459 LINE",
"335 448 LINE",
"327 362 LINE",
"279 -4 LINE",
"304 0 LINE",
"313 106 LINE",
"359 456 LINE"
);
},
{
closed = 1;
nodes = (
"181 167 LINE"
);
},
{
closed = 1;
nodes = (
"273 457 LINE",
"127 447 OFFCURVE",
"46 305 OFFCURVE",
"46 137 CURVE SMOOTH",
"46 58 OFFCURVE",
"63 22 OFFCURVE",
"98 -4 CURVE",
"109 -4 LINE",
"180 60 OFFCURVE",
"252 159 OFFCURVE",
"311 271 CURVE",
"316 271 LINE",
"334 355 LINE",
"234 146 OFFCURVE",
"120 24 OFFCURVE",
"106 24 CURVE SMOOTH",
"94 24 OFFCURVE",
"66 52 OFFCURVE",
"66 141 CURVE SMOOTH",
"66 293 OFFCURVE",
"144 434 OFFCURVE",
"275 437 CURVE",
"347 431 LINE",
"351 451 LINE",
"277 457 LINE"
);
}
);
width = 422;
}
);
leftKerningGroup = a;
rightKerningGroup = a;
unicode = 0061;
},
{
glyphname = ae;
lastChange = "2016-12-06 12:48:41 +0000";
layers = (
{
anchors = (
{
name = bottom;
position = "{604, 0}";
},
{
name = ogonek;
position = "{393, 10}";
},
{
name = top;
position = "{349, 452}";
}
);
layerId = UUID0;
paths = (
{
closed = 1;
nodes = (
"284 457 LINE",
"280 457 LINE",
"134 447 OFFCURVE",
"53 305 OFFCURVE",
"53 137 CURVE SMOOTH",
"53 58 OFFCURVE",
"70 22 OFFCURVE",
"105 -4 CURVE",
"116 -4 LINE",
"171 52 OFFCURVE",
"228 136 OFFCURVE",
"277 232 CURVE",
"272 204 OFFCURVE",
"270 174 OFFCURVE",
"270 143 CURVE SMOOTH",
"270 50 OFFCURVE",
"295 3 OFFCURVE",
"362 -5 CURVE",
"371 -5 LINE",
"433 3 OFFCURVE",
"477 39 OFFCURVE",
"516 105 CURVE",
"507 118 LINE",
"500 118 LINE",
"464 53 OFFCURVE",
"419 16 OFFCURVE",
"369 16 CURVE SMOOTH",
"316 16 OFFCURVE",
"290 56 OFFCURVE",
"290 148 CURVE SMOOTH",
"290 150 OFFCURVE",
"290 162 OFFCURVE",
"291 176 CURVE",
"460 239 OFFCURVE",
"545 313 OFFCURVE",
"545 388 CURVE SMOOTH",
"545 428 OFFCURVE",
"521 453 OFFCURVE",
"470 457 CURVE",
"465 457 LINE SMOOTH",
"437 456 OFFCURVE",
"410 447 OFFCURVE",
"386 431 CURVE"
);
},
{
closed = 1;
nodes = (
"366 414 LINE",
"344 394 OFFCURVE",
"325 367 OFFCURVE",
"309 335 CURVE",
"228 148 OFFCURVE",
"126 24 OFFCURVE",
"113 24 CURVE SMOOTH",
"101 24 OFFCURVE",
"73 52 OFFCURVE",
"73 141 CURVE SMOOTH",
"73 293 OFFCURVE",
"151 434 OFFCURVE",
"282 437 CURVE"
);
},
{
closed = 1;
nodes = (
"467 436 LINE",
"506 436 OFFCURVE",
"524 414 OFFCURVE",
"524 385 CURVE SMOOTH",
"524 321 OFFCURVE",
"441 253 OFFCURVE",
"293 198 CURVE",
"307 337 OFFCURVE",
"379 436 OFFCURVE",
"467 436 CURVE SMOOTH"
);
}
);
width = 572;
}
);
leftKerningGroup = a;
rightKerningGroup = ae;
unicode = 00E6;
},
{
glyphname = b;
lastChange = "2016-12-06 12:48:41 +0000";
layers = (
{
anchors = (
{
name = bottom;
position = "{184, 0}";
},
{
name = top;
position = "{240, 452}";
}
);
layerId = UUID0;
paths = (
{
closed = 1;
nodes = (
"314 454 LINE",
"242 390 OFFCURVE",
"169 291 OFFCURVE",
"109 179 CURVE",
"94 179 LINE",
"86 95 LINE",
"188 304 OFFCURVE",
"303 426 OFFCURVE",
"317 426 CURVE SMOOTH",
"329 426 OFFCURVE",
"357 399 OFFCURVE",
"357 312 CURVE SMOOTH",
"357 159 OFFCURVE",
"277 16 OFFCURVE",
"144 16 CURVE",
"76 33 LINE",
"72 13 LINE",
"142 -4 LINE",
"146 -4 LINE",
"294 5 OFFCURVE",
"377 147 OFFCURVE",
"377 317 CURVE SMOOTH",
"377 393 OFFCURVE",
"360 426 OFFCURVE",
"325 454 CURVE"
);
},
{
closed = 1;
nodes = (
"175 702 LINE",
"150 698 LINE",
"143 608 LINE",
"64 14 LINE",
"86 11 LINE",
"86 20 LINE",
"100 141 LINE"
);
}
);
width = 423;
}
);
leftKerningGroup = b;
rightKerningGroup = b;
unicode = 0062;
},
{
glyphname = c;
lastChange = "2016-12-06 12:48:41 +0000";
layers = (
{
anchors = (
{
name = bottom;
position = "{158, 0}";
},
{
name = top;
position = "{221, 452}";
}
);
layerId = UUID0;
paths = (
{
closed = 1;
nodes = (
"262 456 LINE",
"113 456 OFFCURVE",
"47 320 OFFCURVE",
"47 142 CURVE SMOOTH",
"47 23 OFFCURVE",
"86 3 OFFCURVE",
"133 -5 CURVE",
"141 -5 LINE",
"193 2 OFFCURVE",
"237 28 OFFCURVE",
"280 105 CURVE",
"271 118 LINE",
"265 118 LINE",
"224 38 OFFCURVE",
"177 16 OFFCURVE",
"140 16 CURVE SMOOTH",
"93 16 OFFCURVE",
"67 51 OFFCURVE",
"67 141 CURVE SMOOTH",
"67 322 OFFCURVE",
"134 435 OFFCURVE",
"248 436 CURVE",
"264 436 OFFCURVE",
"288 428 OFFCURVE",
"312 413 CURVE",
"317 416 LINE",
"323 430 LINE",
"318 437 LINE"
);
}
);
width = 323;
}
);
leftKerningGroup = a;
rightKerningGroup = c;
unicode = 0063;
},
{
glyphname = d;
lastChange = "2016-12-06 12:48:41 +0000";
layers = (
{
anchors = (
{
name = bottom;
position = "{184, 0}";
},
{
name = center;
position = "{236, 226}";
},
{
name = top;
position = "{324, 452}";
},
{
name = topright;
position = "{476, 452}";
}
);
layerId = UUID0;
paths = (
{
closed = 1;
nodes = (
"280 454 LINE",
"276 454 LINE",
"128 445 OFFCURVE",
"45 303 OFFCURVE",
"45 133 CURVE SMOOTH",
"45 57 OFFCURVE",
"62 21 OFFCURVE",
"96 -4 CURVE",
"107 -4 LINE",
"180 60 OFFCURVE",
"253 159 OFFCURVE",
"313 271 CURVE",
"318 271 LINE",
"336 355 LINE",
"234 146 OFFCURVE",
"118 24 OFFCURVE",
"104 24 CURVE SMOOTH",
"93 24 OFFCURVE",
"65 51 OFFCURVE",
"65 138 CURVE SMOOTH",
"65 291 OFFCURVE",
"145 434 OFFCURVE",
"278 434 CURVE",
"350 431 LINE",
"354 451 LINE"
);
},
{
closed = 1;
nodes = (
"394 702 LINE",
"369 698 LINE",
"363 608 LINE",
"281 -4 LINE",
"306 0 LINE",
"315 106 LINE"
);
}
);
width = 423;
}
);
leftKerningGroup = a;
rightKerningGroup = d;
unicode = 0064;
},
{
glyphname = eth;
lastChange = "2016-12-06 12:48:41 +0000";
layers = (
{
layerId = UUID0;
paths = (
{
closed = 1;
nodes = (
"113 702 LINE",
"103 692 LINE",
"103 687 LINE",
"258 618 OFFCURVE",
"340 481 OFFCURVE",
"340 317 CURVE",
"340 145 OFFCURVE",
"267 15 OFFCURVE",
"160 15 CURVE SMOOTH",
"104 15 OFFCURVE",
"79 54 OFFCURVE",
"79 137 CURVE SMOOTH",
"79 308 OFFCURVE",
"152 437 OFFCURVE",
"260 437 CURVE SMOOTH",
"311 437 OFFCURVE",
"336 407 OFFCURVE",
"341 344 CURVE",
"359 351 LINE",
"352 420 OFFCURVE",
"324 454 OFFCURVE",
"265 458 CURVE",
"260 458 LINE",
"135 455 OFFCURVE",
"59 316 OFFCURVE",
"59 134 CURVE SMOOTH",
"59 41 OFFCURVE",
"89 -2 OFFCURVE",
"156 -6 CURVE",
"161 -6 LINE",
"286 2 OFFCURVE",
"361 138 OFFCURVE",
"361 320 CURVE",
"361 493 OFFCURVE",
"274 636 OFFCURVE",
"117 702 CURVE"
);
},
{
closed = 1;
nodes = (
"373 655 LINE",
"103 542 LINE",
"106 526 LINE",
"109 523 LINE",
"380 636 LINE",
"377 652 LINE"
);
}
);
width = 422;
}
);
leftKerningGroup = eth;
rightKerningGroup = eth;
unicode = 00F0;
},
{
glyphname = dcroat;
lastChange = "2016-12-06 12:48:41 +0000";
layers = (
{
anchors = (
{
name = bottom;
position = "{184, 0}";
},
{
name = center;
position = "{236, 226}";
},
{
name = top;
position = "{324, 452}";
},
{
name = topright;
position = "{476, 452}";
}
);
layerId = UUID0;
paths = (
{
closed = 1;
nodes = (
"466 581 LINE",
"236 581 LINE",
"234 564 LINE",
"237 561 LINE",
"467 561 LINE",
"469 578 LINE"
);
},
{
closed = 1;
nodes = (
"280 454 LINE",
"276 454 LINE",
"128 445 OFFCURVE",
"45 303 OFFCURVE",
"45 133 CURVE SMOOTH",
"45 57 OFFCURVE",
"62 21 OFFCURVE",
"96 -4 CURVE",
"107 -4 LINE",
"180 60 OFFCURVE",
"253 159 OFFCURVE",
"313 271 CURVE",
"318 271 LINE",
"336 355 LINE",
"234 146 OFFCURVE",
"118 24 OFFCURVE",
"104 24 CURVE SMOOTH",
"93 24 OFFCURVE",
"65 51 OFFCURVE",
"65 138 CURVE SMOOTH",
"65 291 OFFCURVE",
"145 434 OFFCURVE",
"278 434 CURVE",
"350 431 LINE",
"354 451 LINE"
);
},
{
closed = 1;
nodes = (
"394 702 LINE",
"369 698 LINE",
"363 608 LINE",
"281 -4 LINE",
"306 0 LINE",
"315 106 LINE"
);
}
);
width = 447;
}
);
leftKerningGroup = a;
rightKerningGroup = d;
unicode = 0111;
},
{
glyphname = e;
lastChange = "2016-12-06 12:48:41 +0000";
layers = (
{
anchors = (
{
name = bottom;
position = "{154, 0}";
},
{
name = ogonek;
position = "{209, 20}";
},
{
name = top;
position = "{232, 452}";
}
);
layerId = UUID0;
paths = (
{
closed = 1;
nodes = (
"60 174 LINE",
"234 237 OFFCURVE",
"321 312 OFFCURVE",
"321 388 CURVE SMOOTH",
"321 428 OFFCURVE",
"297 453 OFFCURVE",
"246 457 CURVE",
"241 457 LINE",
"131 454 OFFCURVE",
"46 322 OFFCURVE",
"46 143 CURVE",
"46 50 OFFCURVE",
"71 3 OFFCURVE",
"138 -5 CURVE",
"147 -5 LINE",
"209 3 OFFCURVE",
"253 39 OFFCURVE",
"292 105 CURVE",
"283 118 LINE",
"276 118 LINE",
"240 53 OFFCURVE",
"195 16 OFFCURVE",
"145 16 CURVE SMOOTH",
"92 16 OFFCURVE",
"66 56 OFFCURVE",
"66 148 CURVE SMOOTH",
"66 313 OFFCURVE",
"145 436 OFFCURVE",
"243 436 CURVE SMOOTH",
"282 436 OFFCURVE",
"300 414 OFFCURVE",
"300 385 CURVE SMOOTH",
"300 320 OFFCURVE",
"214 250 OFFCURVE",
"60 195 CURVE"
);
}
);
width = 353;
}
);
leftKerningGroup = a;
rightKerningGroup = ae;
unicode = 0065;
},
{
glyphname = f;
lastChange = "2016-12-06 12:48:41 +0000";
layers = (
{
layerId = UUID0;
paths = (
{
closed = 1;
nodes = (
"308 705 LINE",
"224 705 OFFCURVE",
"173 653 OFFCURVE",
"160 551 CURVE SMOOTH",
"114 190 LINE",
"73 -134 LINE",
"98 -130 LINE",
"107 -24 LINE",
"134 192 LINE",
"180 551 LINE SMOOTH",
"192 639 OFFCURVE",
"233 685 OFFCURVE",
"302 685 CURVE SMOOTH",
"326 685 OFFCURVE",
"350 678 OFFCURVE",
"371 670 CURVE",
"377 670 LINE",
"384 690 LINE",
"382 693 LINE"
);
},
{
closed = 1;
nodes = (
"283 449 LINE",
"75 449 LINE",
"71 433 LINE",
"75 429 LINE",
"282 429 LINE",
"286 445 LINE"
);
}
);
width = 257;
}
);
leftKerningGroup = f;
rightKerningGroup = f;
unicode = 0066;
},
{
glyphname = g;
lastChange = "2016-12-06 12:48:41 +0000";
layers = (
{
anchors = (
{
name = top;
position = "{237, 452}";
}
);
layerId = UUID0;
paths = (
{
closed = 1;
nodes = (
"347 459 LINE",
"328 448 LINE",
"322 370 LINE",
"278 31 LINE SMOOTH",
"259 -108 OFFCURVE",
"184 -177 OFFCURVE",
"82 -177 CURVE SMOOTH",
"3 -177 OFFCURVE",
"-30 -121 OFFCURVE",
"-33 -96 CURVE",
"-33 -91 OFFCURVE",
"-32 -90 OFFCURVE",
"-27 -86 CURVE SMOOTH",
"117 31 LINE",
"94 47 LINE",
"94 37 LINE",
"-56 -85 LINE",
"-58 -92 LINE",
"-40 -156 OFFCURVE",
"6 -197 OFFCURVE",
"82 -197 CURVE SMOOTH",
"196 -197 OFFCURVE",
"279 -124 OFFCURVE",
"299 35 CURVE SMOOTH",
"311 133 LINE",
"352 456 LINE"
);
},
{
closed = 1;
nodes = (
"277 455 LINE",
"273 455 LINE",
"136 447 OFFCURVE",
"59 315 OFFCURVE",
"59 158 CURVE SMOOTH",
"59 88 OFFCURVE",
"75 55 OFFCURVE",
"106 31 CURVE",
"117 31 LINE",
"183 91 OFFCURVE",
"241 182 OFFCURVE",
"307 286 CURVE",
"312 286 LINE",
"329 363 LINE",
"224 170 OFFCURVE",
"127 57 OFFCURVE",
"114 57 CURVE SMOOTH",
"104 57 OFFCURVE",
"78 82 OFFCURVE",
"78 162 CURVE SMOOTH",
"78 304 OFFCURVE",
"152 436 OFFCURVE",
"274 436 CURVE",
"341 434 LINE",
"344 452 LINE"
);
}
);
width = 415;
}
);
leftKerningGroup = g;
rightKerningGroup = g;
unicode = 0067;
},
{
glyphname = h;
lastChange = "2016-12-06 12:48:41 +0000";
layers = (
{
anchors = (
{
name = bottom;
position = "{195, 0}";
},
{
name = center;
position = "{255, 226}";
},
{
name = top;
position = "{161, 700}";
}
);
layerId = UUID0;
paths = (
{
closed = 1;
nodes = (
"324 462 LINE",
"255 416 OFFCURVE",
"189 319 OFFCURVE",
"111 184 CURVE",
"98 184 LINE",
"86 98 LINE",
"200 314 OFFCURVE",
"297 436 OFFCURVE",
"331 436 CURVE SMOOTH",
"348 436 OFFCURVE",
"366 410 OFFCURVE",
"365 376 CURVE",
"364 361 LINE",
"305 -4 LINE",
"330 0 LINE",
"342 101 LINE",
"385 364 LINE",
"386 377 LINE",
"388 419 OFFCURVE",
"366 453 OFFCURVE",
"335 462 CURVE"
);
},
{
closed = 1;
nodes = (
"175 702 LINE",
"149 698 LINE",
"143 608 LINE",
"61 -4 LINE",
"87 0 LINE",
"96 106 LINE"
);
}
);
width = 446;
}
);
leftKerningGroup = b;
rightKerningGroup = a;
unicode = 0068;
},
{
glyphname = hbar;
lastChange = "2016-12-06 12:48:41 +0000";
layers = (
{
anchors = (
{
name = bottom;
position = "{236, 0}";
},
{
name = center;
position = "{296, 226}";
},
{
name = top;
position = "{202, 700}";
}
);
layerId = UUID0;
paths = (
{
closed = 1;
nodes = (
"329 581 LINE",
"99 581 LINE",
"97 564 LINE",
"100 561 LINE",
"330 561 LINE",
"332 578 LINE"
);
},
{
closed = 1;
nodes = (
"365 462 LINE",
"296 416 OFFCURVE",
"230 319 OFFCURVE",
"152 184 CURVE",
"139 184 LINE",
"127 98 LINE",
"241 314 OFFCURVE",
"338 436 OFFCURVE",
"372 436 CURVE SMOOTH",
"389 436 OFFCURVE",
"407 410 OFFCURVE",
"406 376 CURVE",
"405 361 LINE",
"346 -4 LINE",
"371 0 LINE",
"383 101 LINE",
"426 364 LINE",
"427 377 LINE",
"429 419 OFFCURVE",
"407 453 OFFCURVE",
"376 462 CURVE"
);
},
{
closed = 1;
nodes = (
"216 702 LINE",
"190 698 LINE",
"184 608 LINE",
"102 -4 LINE",
"128 0 LINE",
"137 106 LINE"
);
}
);
width = 515;
}
);
leftKerningGroup = b;
rightKerningGroup = a;
unicode = 0127;
},
{
glyphname = k;
lastChange = "2016-12-06 12:48:41 +0000";
layers = (
{
anchors = (
{
name = bottom;
position = "{185, 0}";
},
{
name = top;
position = "{103, 452}";
},
{
name = topright;
position = "{204, 452}";
}
);
layerId = UUID0;
paths = (
{
closed = 1;
nodes = (
"321 457 LINE",
"250 423 OFFCURVE",
"188 324 OFFCURVE",
"111 189 CURVE",
"98 189 LINE",
"85 98 LINE",
"201 319 OFFCURVE",
"286 436 OFFCURVE",
"333 436 CURVE SMOOTH",
"349 436 OFFCURVE",
"375 421 OFFCURVE",
"375 379 CURVE SMOOTH",
"375 314 OFFCURVE",
"313 251 OFFCURVE",
"202 190 CURVE",
"201 181 LINE",
"247 117 OFFCURVE",
"293 53 OFFCURVE",
"343 -9 CURVE",
"347 -11 LINE",
"363 -3 LINE",
"363 0 LINE",
"314 60 OFFCURVE",
"269 121 OFFCURVE",
"226 183 CURVE",
"337 246 OFFCURVE",
"395 312 OFFCURVE",
"395 382 CURVE SMOOTH",
"395 428 OFFCURVE",
"370 452 OFFCURVE",
"337 458 CURVE"
);
},
{
closed = 1;
nodes = (
"175 702 LINE",
"149 698 LINE",
"143 608 LINE",
"61 -4 LINE",
"87 0 LINE",
"96 106 LINE"
);
}
);
width = 426;
}
);
leftKerningGroup = b;
rightKerningGroup = k;
unicode = 006B;
},
{
glyphname = kgreenlandic;
lastChange = "2016-12-06 12:48:41 +0000";
layers = (
{
anchors = (
{
name = ogonek;
position = "{155, 10}";
},
{
name = top;
position = "{129, 452}";
}
);
layerId = UUID0;
paths = (
{
closed = 1;
nodes = (
"322 457 LINE",
"251 423 OFFCURVE",
"189 324 OFFCURVE",
"111 189 CURVE",
"98 189 LINE",
"85 98 LINE",
"202 319 OFFCURVE",
"287 436 OFFCURVE",
"335 436 CURVE SMOOTH",
"351 436 OFFCURVE",
"377 421 OFFCURVE",
"377 379 CURVE SMOOTH",
"377 314 OFFCURVE",
"314 251 OFFCURVE",
"203 190 CURVE",
"202 181 LINE",
"248 117 OFFCURVE",
"295 53 OFFCURVE",
"345 -9 CURVE",
"349 -11 LINE",
"365 -3 LINE",
"365 0 LINE",
"316 60 OFFCURVE",
"270 121 OFFCURVE",
"227 183 CURVE",
"339 246 OFFCURVE",
"397 312 OFFCURVE",
"397 382 CURVE SMOOTH",
"397 428 OFFCURVE",
"372 452 OFFCURVE",
"338 458 CURVE"
);
},
{
closed = 1;
nodes = (
"141 456 LINE",
"116 452 LINE",
"110 362 LINE",
"61 -4 LINE",
"88 0 LINE",
"95 106 LINE"
);
}
);
width = 429;
}
);
leftKerningGroup = b;
rightKerningGroup = k;
unicode = 0138;
},
{
glyphname = l;
lastChange = "2016-12-06 12:48:41 +0000";
layers = (
{
anchors = (
{
name = bottom;
position = "{90, 0}";
},
{
name = top;
position = "{178, 700}";
},
{
name = topright;
position = "{272, 452}";
}
);
layerId = UUID0;
paths = (
{
closed = 1;
nodes = (
"191 702 LINE",
"165 698 LINE",
"159 608 LINE",
"77 -4 LINE",
"103 0 LINE",
"112 106 LINE"
);
}
);
width = 238;
}
);
leftKerningGroup = b;
rightKerningGroup = d;
unicode = 006C;
},
{
glyphname = ldot;
lastChange = "2016-12-06 12:48:41 +0000";
layers = (
{
anchors = (
{
name = bottom;
position = "{90, 0}";
},
{
name = top;
position = "{178, 700}";
},
{
name = topright;
position = "{272, 452}";
}
);
layerId = UUID0;
paths = (
{
closed = 1;
nodes = (
"186 -78 LINE"
);
},
{
closed = 1;
nodes = (
"191 702 LINE",
"165 698 LINE",
"159 608 LINE",
"77 -4 LINE",
"103 0 LINE",
"112 106 LINE"
);
},
{
closed = 1;
nodes = (
"230 290 LINE",
"218 290 OFFCURVE",
"210 282 OFFCURVE",
"210 270 CURVE SMOOTH",
"210 258 OFFCURVE",
"218 250 OFFCURVE",
"230 250 CURVE SMOOTH",
"242 250 OFFCURVE",
"250 258 OFFCURVE",
"250 270 CURVE SMOOTH",
"250 282 OFFCURVE",
"242 290 OFFCURVE",
"230 290 CURVE SMOOTH"
);
}
);
width = 226;
}
);
leftKerningGroup = b;
rightKerningGroup = d;
unicode = 0140;
},
{
glyphname = lslash;
lastChange = "2016-12-06 12:48:41 +0000";
layers = (
{
anchors = (
{
name = bottom;
position = "{89, 0}";
},
{
name = top;
position = "{177, 700}";
},
{
name = topright;
position = "{227, 452}";
}
);
layerId = UUID0;
paths = (
{
closed = 1;
nodes = (
"235 456 LINE",
"132 404 LINE",
"120 399 LINE",
"8 343 LINE",
"11 328 LINE",
"16 325 LINE",
"117 376 LINE",
"129 381 LINE",
"243 439 LINE",
"240 454 LINE"
);
},
{
closed = 1;
nodes = (
"176 702 LINE",
"150 698 LINE",
"144 608 LINE",
"62 -4 LINE",
"88 0 LINE",
"97 106 LINE"
);
}
);
width = 212;
}
);
leftKerningGroup = lslash;
rightKerningGroup = lslash;
unicode = 0142;
},
{
glyphname = m;
lastChange = "2016-12-06 12:48:41 +0000";
layers = (
{
anchors = (
{
name = bottom;
position = "{319, 0}";
},
{
name = top;
position = "{375, 452}";
}
);
layerId = UUID0;
paths = (
{
closed = 1;
nodes = (
"571 462 LINE",
"502 416 OFFCURVE",
"437 319 OFFCURVE",
"359 184 CURVE",
"345 184 LINE",
"333 98 LINE",
"448 314 OFFCURVE",
"544 436 OFFCURVE",
"578 436 CURVE SMOOTH",
"595 436 OFFCURVE",
"613 410 OFFCURVE",
"612 376 CURVE",
"611 361 LINE",
"552 -4 LINE",
"577 0 LINE",
"589 101 LINE",
"632 364 LINE",
"633 377 LINE",
"635 419 OFFCURVE",
"613 453 OFFCURVE",
"582 462 CURVE"
);
},
{
closed = 1;
nodes = (
"141 456 LINE",
"116 452 LINE",
"109 362 LINE",
"61 -4 LINE",
"86 0 LINE",
"95 106 LINE"
);
},
{
closed = 1;
nodes = (
"322 462 LINE",
"253 416 OFFCURVE",
"188 319 OFFCURVE",
"110 184 CURVE",
"97 184 LINE",
"85 98 LINE",
"199 314 OFFCURVE",
"295 436 OFFCURVE",
"329 436 CURVE SMOOTH",
"346 436 OFFCURVE",
"364 410 OFFCURVE",
"364 376 CURVE",
"363 361 LINE",
"303 -4 LINE",
"328 0 LINE",
"340 101 LINE",
"384 364 LINE",
"385 377 LINE",
"387 419 OFFCURVE",
"364 453 OFFCURVE",
"333 462 CURVE"
);
}
);
width = 693;
}
);
leftKerningGroup = m;
rightKerningGroup = a;
unicode = 006D;
},
{
glyphname = n;
lastChange = "2016-12-06 12:48:41 +0000";
layers = (
{
anchors = (
{
name = bottom;
position = "{199, 0}";
},
{
name = top;
position = "{255, 452}";
}
);
layerId = UUID0;
paths = (
{
closed = 1;
nodes = (
"304 -4 LINE",
"329 0 LINE",
"341 101 LINE",
"384 364 LINE",
"385 377 LINE",
"387 419 OFFCURVE",
"365 453 OFFCURVE",
"334 462 CURVE",
"323 462 LINE",
"253 416 OFFCURVE",
"188 319 OFFCURVE",
"110 184 CURVE",
"97 184 LINE",
"85 98 LINE",
"199 314 OFFCURVE",
"296 436 OFFCURVE",
"330 436 CURVE SMOOTH",
"347 436 OFFCURVE",
"365 410 OFFCURVE",
"364 376 CURVE",
"363 361 LINE"
);
},
{
closed = 1;
nodes = (
"61 -4 LINE",
"86 0 LINE",
"95 106 LINE",
"141 456 LINE",
"116 452 LINE",
"109 362 LINE"
);
}
);
width = 445;
}
);
leftKerningGroup = m;
rightKerningGroup = a;
unicode = 006E;
},
{
glyphname = eng;
lastChange = "2016-12-06 12:48:41 +0000";
layers = (
{
layerId = UUID0;
paths = (
{
closed = 1;
nodes = (
"157 56 LINE"
);
},
{
closed = 1;
nodes = (
"117 452 LINE",
"110 362 LINE",
"62 -4 LINE",
"87 0 LINE",
"96 106 LINE",
"142 456 LINE"
);
},
{
closed = 1;
nodes = (
"325 462 LINE",
"255 416 OFFCURVE",
"190 319 OFFCURVE",
"112 184 CURVE",
"99 184 LINE",
"87 98 LINE",
"201 314 OFFCURVE",
"298 436 OFFCURVE",
"332 436 CURVE SMOOTH",
"349 436 OFFCURVE",
"367 410 OFFCURVE",
"366 376 CURVE",
"365 361 LINE",
"308 8 LINE",
"342 93 LINE",
"386 364 LINE",
"387 377 LINE",
"389 419 OFFCURVE",
"367 453 OFFCURVE",
"336 462 CURVE"
);
},
{
closed = 1;
nodes = (
"342 93 LINE",
"308 8 LINE",
"294 -83 OFFCURVE",
"270 -125 OFFCURVE",
"200 -175 CURVE",
"199 -181 LINE",
"208 -192 LINE",
"285 -138 OFFCURVE",
"314 -90 OFFCURVE",
"330 18 CURVE"
);
}
);
width = 455;
}
);
leftKerningGroup = m;
rightKerningGroup = ij;
unicode = 014B;
},
{
glyphname = o;
lastChange = "2016-12-06 12:48:41 +0000";
layers = (
{
anchors = (
{
name = bottom;
position = "{170, 0}";
},
{
name = center;
position = "{198, 226}";
},
{
name = ogonek;
position = "{212, 10}";
},
{
name = top;
position = "{231, 452}";
},
{
name = topright;
position = "{404, 452}";
}
);
layerId = UUID0;
paths = (
{
closed = 1;
nodes = (
"248 458 LINE",
"124 455 OFFCURVE",
"48 316 OFFCURVE",
"48 134 CURVE SMOOTH",
"48 41 OFFCURVE",
"78 -2 OFFCURVE",
"144 -6 CURVE",
"149 -6 LINE",
"273 2 OFFCURVE",
"348 138 OFFCURVE",
"348 320 CURVE SMOOTH",
"348 410 OFFCURVE",
"320 453 OFFCURVE",
"253 458 CURVE"
);
},
{
closed = 1;
nodes = (
"248 437 LINE",
"303 437 OFFCURVE",
"327 399 OFFCURVE",
"327 317 CURVE SMOOTH",
"327 145 OFFCURVE",
"254 15 OFFCURVE",
"148 15 CURVE SMOOTH",
"93 15 OFFCURVE",
"68 54 OFFCURVE",
"68 137 CURVE SMOOTH",
"68 308 OFFCURVE",
"141 437 OFFCURVE",
"248 437 CURVE SMOOTH"
);
}
);
width = 396;
}
);
leftKerningGroup = a;
rightKerningGroup = b;
unicode = 006F;
},
{
glyphname = ohorn;
lastChange = "2016-12-06 12:48:41 +0000";
layers = (
{
anchors = (
{
name = bottom;
position = "{177, 0}";
},
{
name = top;
position = "{246, 452}";
}
);
layerId = UUID0;
paths = (
{
closed = 1;
nodes = (
"416 568 LINE",
"414 568 OFFCURVE",
"410 567 OFFCURVE",
"404 563 CURVE",
"402 558 LINE",
"423 535 OFFCURVE",
"435 510 OFFCURVE",
"435 487 CURVE SMOOTH",
"435 448 OFFCURVE",
"402 422 OFFCURVE",
"364 422 CURVE SMOOTH",
"322 422 OFFCURVE",
"314 454 OFFCURVE",
"258 458 CURVE",
"331 407 LINE",
"401 390 OFFCURVE",
"454 432 OFFCURVE",
"454 492 CURVE SMOOTH",
"454 535 OFFCURVE",
"428 568 OFFCURVE",
"416 568 CURVE SMOOTH"
);
},
{
closed = 1;
nodes = (
"253 458 LINE",
"127 456 OFFCURVE",
"52 309 OFFCURVE",
"52 140 CURVE SMOOTH",
"52 47 OFFCURVE",
"75 -1 OFFCURVE",
"149 -6 CURVE",
"154 -6 LINE",
"279 1 OFFCURVE",
"354 142 OFFCURVE",
"354 314 CURVE SMOOTH",
"354 367 OFFCURVE",
"347 394 OFFCURVE",
"332 418 CURVE",
"258 458 LINE"
);
},
{
closed = 1;
nodes = (
"253 437 LINE",
"311 437 OFFCURVE",
"333 399 OFFCURVE",
"333 310 CURVE SMOOTH",
"333 148 OFFCURVE",
"260 15 OFFCURVE",
"153 15 CURVE SMOOTH",
"95 15 OFFCURVE",
"72 54 OFFCURVE",
"72 144 CURVE SMOOTH",
"72 304 OFFCURVE",
"145 437 OFFCURVE",
"253 437 CURVE SMOOTH"
);
}
);
width = 409;
}
);
leftKerningGroup = a;
rightKerningGroup = b;
unicode = 01A1;
},
{
glyphname = oslash;
lastChange = "2016-12-06 12:48:41 +0000";
layers = (
{
anchors = (
{
name = bottom;
position = "{170, 0}";
},
{
name = center;
position = "{198, 226}";
},
{
name = ogonek;
position = "{212, 10}";
},
{
name = top;
position = "{248, 452}";
},
{
name = topright;
position = "{404, 452}";
}
);
layerId = UUID0;
paths = (
{
closed = 1;
nodes = (
"338 528 LINE",
"323 530 LINE",
"49 -100 LINE",
"51 -104 LINE",
"66 -107 LINE",
"340 523 LINE"
);
},
{
closed = 1;
nodes = (
"248 458 LINE",
"124 455 OFFCURVE",
"48 316 OFFCURVE",
"48 134 CURVE SMOOTH",
"48 41 OFFCURVE",
"78 -2 OFFCURVE",
"144 -6 CURVE",
"149 -6 LINE",
"273 2 OFFCURVE",
"348 138 OFFCURVE",
"348 320 CURVE SMOOTH",
"348 410 OFFCURVE",
"320 453 OFFCURVE",
"253 458 CURVE"
);
},
{
closed = 1;
nodes = (
"248 437 LINE",
"303 437 OFFCURVE",
"327 399 OFFCURVE",
"327 317 CURVE SMOOTH",
"327 145 OFFCURVE",
"254 15 OFFCURVE",
"148 15 CURVE SMOOTH",
"93 15 OFFCURVE",
"68 54 OFFCURVE",
"68 137 CURVE SMOOTH",
"68 308 OFFCURVE",
"141 437 OFFCURVE",
"248 437 CURVE SMOOTH"
);
}
);
width = 396;
}
);
leftKerningGroup = a;
rightKerningGroup = b;
unicode = 00F8;
},
{
glyphname = oe;
lastChange = "2016-12-06 12:48:41 +0000";
layers = (
{
anchors = (
{
name = bottom;
position = "{580, 0}";
},
{
name = ogonek;
position = "{720, 10}";
},
{
name = top;
position = "{450, 452}";
}
);
layerId = UUID0;
paths = (
{
closed = 1;
nodes = (
"253 458 LINE",
"128 455 OFFCURVE",
"52 316 OFFCURVE",
"52 134 CURVE SMOOTH",
"52 41 OFFCURVE",
"82 -2 OFFCURVE",
"149 -6 CURVE",
"154 -6 LINE",
"279 2 OFFCURVE",
"353 138 OFFCURVE",
"353 320 CURVE SMOOTH",
"353 410 OFFCURVE",
"326 453 OFFCURVE",
"258 458 CURVE"
);
},
{
closed = 1;
nodes = (
"253 437 LINE",
"309 437 OFFCURVE",
"333 399 OFFCURVE",
"333 317 CURVE SMOOTH",
"333 145 OFFCURVE",
"260 15 OFFCURVE",
"153 15 CURVE SMOOTH",
"97 15 OFFCURVE",
"72 54 OFFCURVE",
"72 137 CURVE SMOOTH",
"72 308 OFFCURVE",
"145 437 OFFCURVE",
"253 437 CURVE SMOOTH"
);
},
{
closed = 1;
nodes = (
"333 174 LINE",
"507 237 OFFCURVE",
"594 312 OFFCURVE",
"594 388 CURVE SMOOTH",
"594 428 OFFCURVE",
"570 453 OFFCURVE",
"519 457 CURVE",
"514 457 LINE",
"404 454 OFFCURVE",
"320 322 OFFCURVE",
"320 143 CURVE",
"320 50 OFFCURVE",
"344 3 OFFCURVE",
"411 -5 CURVE",
"420 -5 LINE",
"482 3 OFFCURVE",
"526 39 OFFCURVE",
"565 105 CURVE",
"556 118 LINE",
"549 118 LINE",
"513 53 OFFCURVE",
"468 16 OFFCURVE",
"418 16 CURVE SMOOTH",
"365 16 OFFCURVE",
"339 56 OFFCURVE",
"339 148 CURVE SMOOTH",
"339 313 OFFCURVE",
"418 436 OFFCURVE",
"516 436 CURVE SMOOTH",
"555 436 OFFCURVE",
"573 414 OFFCURVE",
"573 385 CURVE SMOOTH",
"573 320 OFFCURVE",
"487 250 OFFCURVE",
"333 195 CURVE"
);
}
);
width = 621;
}
);
leftKerningGroup = a;
rightKerningGroup = ae;
unicode = 0153;
},
{
glyphname = p;
lastChange = "2016-12-06 12:48:41 +0000";
layers = (
{
anchors = (
{
name = bottom;
position = "{183, 0}";
},
{
name = top;
position = "{239, 452}";
}
);
layerId = UUID0;
paths = (
{
closed = 1;
nodes = (
"314 454 LINE",
"243 390 OFFCURVE",
"170 291 OFFCURVE",
"110 179 CURVE",
"105 179 LINE",
"86 95 LINE",
"188 304 OFFCURVE",
"304 426 OFFCURVE",
"318 426 CURVE SMOOTH",
"330 426 OFFCURVE",
"357 399 OFFCURVE",
"357 312 CURVE SMOOTH",
"357 159 OFFCURVE",
"278 16 OFFCURVE",
"145 16 CURVE",
"77 33 LINE",
"73 13 LINE",
"142 -4 LINE",
"146 -4 LINE",
"295 5 OFFCURVE",
"377 147 OFFCURVE",
"377 317 CURVE SMOOTH",
"377 393 OFFCURVE",
"360 426 OFFCURVE",
"325 454 CURVE"
);
},
{
closed = 1;
nodes = (
"141 456 LINE",
"116 452 LINE",
"110 362 LINE",
"39 -189 LINE",
"64 -185 LINE",
"73 -79 LINE"
);
}
);
width = 422;
}
);
leftKerningGroup = p;
rightKerningGroup = b;
unicode = 0070;
},
{
glyphname = thorn;
lastChange = "2016-12-06 12:48:41 +0000";
layers = (
{
layerId = UUID0;
paths = (
{
closed = 1;
nodes = (
"314 454 LINE",
"243 390 OFFCURVE",
"170 291 OFFCURVE",
"110 179 CURVE",
"105 179 LINE",
"86 95 LINE",
"188 304 OFFCURVE",
"304 426 OFFCURVE",
"318 426 CURVE SMOOTH",
"330 426 OFFCURVE",
"357 399 OFFCURVE",
"357 312 CURVE SMOOTH",
"357 159 OFFCURVE",
"278 16 OFFCURVE",
"145 16 CURVE",
"77 33 LINE",
"73 13 LINE",
"142 -4 LINE",
"146 -4 LINE",
"295 5 OFFCURVE",
"377 147 OFFCURVE",
"377 317 CURVE SMOOTH",
"377 393 OFFCURVE",
"360 426 OFFCURVE",
"325 454 CURVE"
);
},
{
closed = 1;
nodes = (
"174 702 LINE",
"149 698 LINE",
"143 608 LINE",
"38 -191 LINE",
"63 -187 LINE",
"72 -81 LINE"
);
}
);
width = 429;
}
);
leftKerningGroup = b;
rightKerningGroup = b;
unicode = 00FE;
},
{
glyphname = q;
lastChange = "2016-12-06 12:48:41 +0000";
layers = (
{
layerId = UUID0;
paths = (
{
closed = 1;
nodes = (
"279 454 LINE",
"275 454 LINE",
"128 445 OFFCURVE",
"45 303 OFFCURVE",
"45 133 CURVE SMOOTH",
"45 57 OFFCURVE",
"62 21 OFFCURVE",
"96 -4 CURVE",
"107 -4 LINE",
"178 60 OFFCURVE",
"251 159 OFFCURVE",
"311 271 CURVE",
"316 271 LINE",
"335 355 LINE",
"233 146 OFFCURVE",
"118 24 OFFCURVE",
"104 24 CURVE SMOOTH",
"93 24 OFFCURVE",
"66 51 OFFCURVE",
"66 138 CURVE SMOOTH",
"66 291 OFFCURVE",
"145 434 OFFCURVE",
"276 434 CURVE",
"348 431 LINE",
"352 451 LINE"
);
},
{
closed = 1;
nodes = (
"353 459 LINE",
"334 448 LINE",
"327 362 LINE",
"256 -189 LINE",
"281 -185 LINE",
"290 -79 LINE",
"358 456 LINE"
);
}
);
width = 421;
}
);
leftKerningGroup = a;
rightKerningGroup = g;
unicode = 0071;
},
{
glyphname = r;
lastChange = "2016-12-06 12:48:41 +0000";
layers = (
{
anchors = (
{
name = bottom;
position = "{74, 0}";
},
{
name = top;
position = "{216, 452}";
}
);
layerId = UUID0;
paths = (
{
closed = 1;
nodes = (
"310 452 LINE",
"255 443 OFFCURVE",
"182 347 OFFCURVE",
"109 181 CURVE",
"96 181 LINE",
"86 82 LINE",
"175 303 OFFCURVE",
"255 421 OFFCURVE",
"309 430 CURVE",
"320 428 LINE",
"323 430 LINE",
"326 450 LINE"
);
},
{
closed = 1;
nodes = (
"139 456 LINE",
"116 452 LINE",
"108 362 LINE",
"61 -4 LINE",
"85 0 LINE",
"95 106 LINE"
);
}
);
width = 307;
}
);
leftKerningGroup = m;
rightKerningGroup = r;
unicode = 0072;
},
{
glyphname = s;
lastChange = "2016-12-06 12:48:41 +0000";
layers = (
{
anchors = (
{
name = bottom;
position = "{129, 0}";
},
{
name = top;
position = "{188, 452}";
}
);
layerId = UUID0;
paths = (
{
closed = 1;
nodes = (
"207 455 LINE",
"126 456 OFFCURVE",
"66 404 OFFCURVE",
"66 336 CURVE SMOOTH",
"66 231 OFFCURVE",
"224 217 OFFCURVE",
"224 117 CURVE SMOOTH",
"224 63 OFFCURVE",
"176 15 OFFCURVE",
"108 15 CURVE SMOOTH",
"69 15 OFFCURVE",
"42 31 OFFCURVE",
"20 50 CURVE",
"13 46 LINE",
"10 28 LINE",
"32 12 OFFCURVE",
"59 -1 OFFCURVE",
"96 -6 CURVE",
"186 -5 OFFCURVE",
"245 52 OFFCURVE",
"245 120 CURVE SMOOTH",
"245 228 OFFCURVE",
"86 249 OFFCURVE",
"86 338 CURVE SMOOTH",
"86 385 OFFCURVE",
"132 435 OFFCURVE",
"197 435 CURVE SMOOTH",
"219 435 OFFCURVE",
"242 429 OFFCURVE",
"266 415 CURVE",
"272 416 LINE",
"279 435 LINE",
"260 445 OFFCURVE",
"236 452 OFFCURVE",
"207 455 CURVE"
);
}
);
width = 306;
}
);
leftKerningGroup = s;
rightKerningGroup = s;
unicode = 0073;
},
{
glyphname = germandbls;
lastChange = "2016-12-06 12:48:41 +0000";
layers = (
{
layerId = UUID0;
paths = (
{
closed = 1;
nodes = (
"325 704 LINE",
"231 704 OFFCURVE",
"172 649 OFFCURVE",
"160 554 CURVE SMOOTH",
"114 190 LINE",
"73 -134 LINE",
"98 -130 LINE",
"107 -24 LINE",
"134 192 LINE",
"180 554 LINE SMOOTH",
"190 630 OFFCURVE",
"236 684 OFFCURVE",
"324 684 CURVE SMOOTH",
"388 684 OFFCURVE",
"437 658 OFFCURVE",
"437 594 CURVE SMOOTH",
"437 480 OFFCURVE",
"291 468 OFFCURVE",
"291 353 CURVE SMOOTH",
"291 236 OFFCURVE",
"441 218 OFFCURVE",
"441 117 CURVE SMOOTH",
"441 61 OFFCURVE",
"394 15 OFFCURVE",
"327 15 CURVE SMOOTH",
"288 15 OFFCURVE",
"260 31 OFFCURVE",
"238 50 CURVE",
"231 46 LINE",
"229 28 LINE",
"251 12 OFFCURVE",
"278 -1 OFFCURVE",
"315 -6 CURVE",
"401 -5 OFFCURVE",
"462 48 OFFCURVE",
"462 118 CURVE SMOOTH",
"462 230 OFFCURVE",
"311 253 OFFCURVE",
"311 355 CURVE SMOOTH",
"311 455 OFFCURVE",
"457 472 OFFCURVE",
"457 596 CURVE SMOOTH",
"457 672 OFFCURVE",
"400 704 OFFCURVE",
"325 704 CURVE SMOOTH"
);
},
{
closed = 1;
nodes = (
"159 449 LINE",
"75 449 LINE",
"71 433 LINE",
"75 429 LINE",
"158 429 LINE",
"162 445 LINE"
);
}
);
width = 516;
}
);
leftKerningGroup = f;
rightKerningGroup = s;
unicode = 00DF;
},
{
glyphname = t;
lastChange = "2016-12-06 12:48:41 +0000";
layers = (
{
anchors = (
{
name = bottom;
position = "{159, 0}";
},
{
name = center;
position = "{156, 226}";
},
{
name = top;
position = "{166, 497}";
},
{
name = topright;
position = "{284, 452}";
}
);
layerId = UUID0;
paths = (
{
closed = 1;
nodes = (
"148 -5 LINE",
"189 4 OFFCURVE",
"215 31 OFFCURVE",
"263 108 CURVE",
"254 120 LINE",
"247 120 LINE",
"211 54 OFFCURVE",
"172 15 OFFCURVE",
"144 15 CURVE SMOOTH",
"119 15 OFFCURVE",
"104 34 OFFCURVE",
"104 67 CURVE",
"106 87 LINE",
"190 587 LINE",
"187 590 LINE",
"165 580 LINE",
"133 362 LINE",
"86 86 LINE",
"84 64 LINE",
"84 19 OFFCURVE",
"106 -5 OFFCURVE",
"148 -5 CURVE"
);
},
{
closed = 1;
nodes = (
"72 429 LINE",
"311 429 LINE",
"314 445 LINE",
"311 449 LINE",
"71 449 LINE",
"68 433 LINE"
);
}
);
width = 316;
}
);
leftKerningGroup = t;
rightKerningGroup = t;
unicode = 0074;
},
{
glyphname = tbar;
lastChange = "2016-12-06 12:48:41 +0000";
layers = (
{
anchors = (
{
name = bottom;
position = "{164, 0}";
},
{
name = center;
position = "{161, 226}";
},
{
name = top;
position = "{171, 497}";
},
{
name = topright;
position = "{289, 452}";
}
);
layerId = UUID0;
paths = (
{
closed = 1;
nodes = (
"153 -5 LINE",
"194 4 OFFCURVE",
"220 31 OFFCURVE",
"268 108 CURVE",
"259 120 LINE",
"252 120 LINE",
"216 54 OFFCURVE",
"177 15 OFFCURVE",
"149 15 CURVE SMOOTH",
"124 15 OFFCURVE",
"109 34 OFFCURVE",
"109 67 CURVE",
"111 87 LINE",
"195 587 LINE",
"192 590 LINE",
"170 580 LINE",
"138 362 LINE",
"91 86 LINE",
"89 64 LINE",
"89 19 OFFCURVE",
"111 -5 OFFCURVE",
"153 -5 CURVE"
);
},
{
closed = 1;
nodes = (
"46 264 LINE",
"261 264 LINE",
"265 281 LINE",
"262 284 LINE",
"47 284 LINE",
"43 267 LINE"
);
},
{
closed = 1;
nodes = (
"77 429 LINE",
"316 429 LINE",
"319 445 LINE",
"316 449 LINE",
"76 449 LINE",
"73 433 LINE"
);
}
);
width = 323;
}
);
leftKerningGroup = tbar;
rightKerningGroup = t;
unicode = 0167;
},
{
glyphname = u;
lastChange = "2016-12-06 12:48:41 +0000";
layers = (
{
anchors = (
{
name = bottom;
position = "{199, 0}";
},
{
name = ogonek;
position = "{337, 0}";
},
{
name = top;
position = "{255, 452}";
},
{
name = topright;
position = "{462, 452}";
}
);
layerId = UUID0;
paths = (
{
closed = 1;
nodes = (
"149 455 LINE",
"124 451 LINE",
"112 350 LINE",
"69 87 LINE",
"68 74 LINE",
"66 32 OFFCURVE",
"88 -2 OFFCURVE",
"119 -11 CURVE",
"130 -11 LINE",
"200 35 OFFCURVE",
"265 132 OFFCURVE",
"343 267 CURVE",
"356 267 LINE",
"368 353 LINE",
"254 137 OFFCURVE",
"157 15 OFFCURVE",
"123 15 CURVE SMOOTH",
"106 15 OFFCURVE",
"88 41 OFFCURVE",
"89 75 CURVE",
"90 90 LINE"
);
},
{
closed = 1;
nodes = (
"392 456 LINE",
"367 452 LINE",
"360 362 LINE",
"312 -4 LINE",
"337 0 LINE",
"346 106 LINE"
);
}
);
width = 454;
}
);
leftKerningGroup = t;
rightKerningGroup = u;
unicode = 0075;
},
{
glyphname = uhorn;
lastChange = "2016-12-06 12:48:41 +0000";
layers = (
{
anchors = (
{
name = top;
position = "{269, 452}";
}
);
layerId = UUID0;
paths = (
{
closed = 1;
nodes = (
"149 455 LINE",
"124 451 LINE",
"112 350 LINE",
"69 87 LINE",
"68 74 LINE",
"66 32 OFFCURVE",
"88 -2 OFFCURVE",
"119 -11 CURVE",
"130 -11 LINE",
"200 35 OFFCURVE",
"265 132 OFFCURVE",
"343 267 CURVE",
"356 267 LINE",
"368 353 LINE",
"254 137 OFFCURVE",
"157 15 OFFCURVE",
"123 15 CURVE SMOOTH",
"106 15 OFFCURVE",
"88 41 OFFCURVE",
"89 75 CURVE",
"90 90 LINE"
);
},
{
closed = 1;
nodes = (
"392 456 LINE",
"367 452 LINE",
"360 362 LINE",
"312 -4 LINE",
"337 0 LINE",
"346 106 LINE"
);
},
{
closed = 1;
nodes = (
"445 601 LINE",
"442 601 OFFCURVE",
"438 600 OFFCURVE",
"432 596 CURVE",
"430 591 LINE",
"454 566 OFFCURVE",
"463 540 OFFCURVE",
"463 521 CURVE SMOOTH",
"463 487 OFFCURVE",
"438 466 OFFCURVE",
"383 455 CURVE SMOOTH",
"367 452 LINE",
"387 438 LINE",
"453 452 OFFCURVE",
"483 480 OFFCURVE",
"483 526 CURVE SMOOTH",
"483 568 OFFCURVE",
"457 601 OFFCURVE",
"445 601 CURVE SMOOTH"
);
}
);
width = 456;
}
);
leftKerningGroup = t;
rightKerningGroup = u;
unicode = 01B0;
},
{
glyphname = v;
lastChange = "2016-12-06 12:48:41 +0000";
layers = (
{
layerId = UUID0;
paths = (
{
closed = 1;
nodes = (
"318 449 LINE",
"317 444 LINE",
"334 421 OFFCURVE",
"345 399 OFFCURVE",
"345 374 CURVE SMOOTH",
"345 344 OFFCURVE",
"332 309 OFFCURVE",
"307 268 CURVE SMOOTH",
"158 30 LINE",
"155 30 LINE",
"119 382 LINE",
"113 456 LINE",
"90 450 LINE",
"139 0 LINE",
"160 0 LINE",
"324 258 LINE SMOOTH",
"351 301 OFFCURVE",
"365 339 OFFCURVE",
"365 373 CURVE SMOOTH",
"365 402 OFFCURVE",
"355 428 OFFCURVE",
"336 455 CURVE"
);
}
);
width = 382;
}
);
leftKerningGroup = v;
rightKerningGroup = v;
unicode = 0076;
},
{
glyphname = w;
lastChange = "2016-12-06 12:48:41 +0000";
layers = (
{
anchors = (
{
name = top;
position = "{357, 452}";
}
);
layerId = UUID0;
paths = (
{
closed = 1;
nodes = (
"601 258 LINE",
"627 302 OFFCURVE",
"642 339 OFFCURVE",
"642 373 CURVE SMOOTH",
"642 402 OFFCURVE",
"632 428 OFFCURVE",
"613 455 CURVE",
"595 449 LINE",
"594 444 LINE",
"611 421 OFFCURVE",
"622 399 OFFCURVE",
"622 374 CURVE SMOOTH",
"622 344 OFFCURVE",
"607 308 OFFCURVE",
"584 268 CURVE SMOOTH",
"447 30 LINE",
"443 30 LINE",
"397 409 LINE",
"393 452 LINE",
"369 452 LINE",
"348 409 LINE",
"166 30 LINE",
"162 30 LINE",
"116 409 LINE",
"112 455 LINE",
"90 450 LINE",
"145 0 LINE",
"171 0 LINE",
"374 418 LINE",
"378 418 LINE",
"428 0 LINE",
"448 0 LINE"
);
}
);
width = 658;
}
);
leftKerningGroup = v;
rightKerningGroup = v;
unicode = 0077;
},
{
glyphname = x;
lastChange = "2016-12-06 12:48:41 +0000";
layers = (
{
layerId = UUID0;
paths = (
{
closed = 1;
nodes = (
"224 229 LINE",
"402 452 LINE",
"374 452 LINE",
"350 418 LINE",
"212 249 LINE",
"121 423 LINE",
"106 456 LINE",
"85 448 LINE",
"199 233 LINE",
"12 0 LINE",
"40 0 LINE",
"63 32 LINE",
"210 213 LINE",
"307 36 LINE",
"326 -4 LINE",
"347 4 LINE"
);
}
);
width = 414;
}
);
rightKerningGroup = x;
unicode = 0078;
},
{
glyphname = y;
lastChange = "2016-12-06 12:48:41 +0000";
layers = (
{
anchors = (
{
name = bottom;
position = "{240, 3}";
},
{
name = top;
position = "{217, 452}";
}
);
layerId = UUID0;
paths = (
{
closed = 1;
nodes = (
"315 449 LINE",
"314 444 LINE",
"331 421 OFFCURVE",
"342 399 OFFCURVE",
"342 374 CURVE SMOOTH",
"342 344 OFFCURVE",
"331 310 OFFCURVE",
"306 268 CURVE SMOOTH",
"161 24 LINE SMOOTH",
"79 -114 OFFCURVE",
"10 -174 OFFCURVE",
"-54 -174 CURVE SMOOTH",
"-73 -174 OFFCURVE",
"-94 -169 OFFCURVE",
"-120 -157 CURVE",
"-125 -159 LINE",
"-124 -179 LINE",
"-101 -189 OFFCURVE",
"-78 -194 OFFCURVE",
"-56 -194 CURVE SMOOTH",
"18 -194 OFFCURVE",
"91 -136 OFFCURVE",
"180 15 CURVE SMOOTH",
"323 258 LINE SMOOTH",
"349 302 OFFCURVE",
"362 339 OFFCURVE",
"362 373 CURVE SMOOTH",
"362 402 OFFCURVE",
"352 428 OFFCURVE",
"333 455 CURVE"
);
},
{
closed = 1;
nodes = (
"97 456 LINE",
"74 450 LINE",
"156 0 LINE",
"180 42 LINE",
"168 42 LINE",
"109 382 LINE"
);
}
);
width = 378;
}
);
leftKerningGroup = v;
rightKerningGroup = v;
unicode = 0079;
},
{
glyphname = z;
lastChange = "2016-12-06 12:48:41 +0000";
layers = (
{
anchors = (
{
name = bottom;
position = "{169, 0}";
},
{
name = top;
position = "{225, 452}";
}
);
layerId = UUID0;
paths = (
{
closed = 1;
nodes = (
"347 464 LINE",
"330 452 LINE",
"125 452 LINE",
"79 454 LINE",
"77 452 LINE",
"73 435 LINE",
"75 431 LINE",
"117 432 LINE",
"317 432 LINE",
"-6 3 LINE",
"3 -5 LINE",
"6 -5 LINE",
"25 16 OFFCURVE",
"45 23 OFFCURVE",
"67 23 CURVE SMOOTH",
"113 23 OFFCURVE",
"164 -10 OFFCURVE",
"210 -10 CURVE SMOOTH",
"292 -10 OFFCURVE",
"337 47 OFFCURVE",
"343 159 CURVE",
"333 170 LINE",
"324 169 LINE",
"318 62 OFFCURVE",
"282 10 OFFCURVE",
"212 10 CURVE SMOOTH",
"167 10 OFFCURVE",
"118 44 OFFCURVE",
"72 44 CURVE",
"45 39 LINE",
"358 455 LINE"
);
}
);
width = 393;
}
);
leftKerningGroup = z;
rightKerningGroup = z;
unicode = 007A;
},
{
glyphname = f.f;
lastChange = "2016-12-06 12:48:50 +0000";
layers = (
{
anchors = (
{
name = bottom;
position = "{96, 0}";
},
{
name = top;
position = "{152, 452}";
}
);
layerId = UUID0;
paths = (
{
closed = 1;
nodes = (
"305 682 LINE",
"221 682 OFFCURVE",
"170 630 OFFCURVE",
"157 528 CURVE SMOOTH",
"114 190 LINE",
"73 -134 LINE",
"98 -130 LINE",
"107 -24 LINE",
"134 192 LINE",
"177 528 LINE SMOOTH",
"188 616 OFFCURVE",
"230 662 OFFCURVE",
"299 662 CURVE SMOOTH",
"323 662 OFFCURVE",
"347 655 OFFCURVE",
"368 647 CURVE",
"374 647 LINE",
"381 667 LINE",
"379 670 LINE"
);
},
{
closed = 1;
nodes = (
"403 449 LINE",
"75 449 LINE",
"71 433 LINE",
"75 429 LINE",
"402 429 LINE",
"406 445 LINE"
);
}
);
width = 249;
}
);
leftKerningGroup = f;
rightKerningGroup = f.f;
},
{
glyphname = f.l;
lastChange = "2016-12-06 12:48:50 +0000";
layers = (
{
layerId = UUID0;
paths = (
{
closed = 1;
nodes = (
"324 705 LINE",
"231 705 OFFCURVE",
"173 653 OFFCURVE",
"160 551 CURVE SMOOTH",
"114 190 LINE",
"73 -134 LINE",
"98 -130 LINE",
"107 -24 LINE",
"134 192 LINE",
"180 551 LINE SMOOTH",
"191 639 OFFCURVE",
"240 685 OFFCURVE",
"318 685 CURVE SMOOTH",
"350 685 OFFCURVE",
"382 680 OFFCURVE",
"410 673 CURVE",
"414 675 LINE",
"420 695 LINE",
"418 698 LINE"
);
},
{
closed = 1;
nodes = (
"283 449 LINE",
"75 449 LINE",
"71 433 LINE",
"75 429 LINE",
"282 429 LINE",
"286 445 LINE"
);
}
);
width = 257;
}
);
leftKerningGroup = f;
rightKerningGroup = f.l;
},
{
glyphname = a.sups;
lastChange = "2016-12-06 12:48:50 +0000";
layers = (
{
anchors = (
{
name = ogonek;
position = "{9, 0}";
},
{
name = top;
position = "{9, 0}";
}
);
layerId = UUID0;
paths = (
{
closed = 1;
nodes = (
"281 645 LINE",
"281 645 LINE",
"262 637 LINE",
"257 581 LINE",
"227 347 LINE",
"250 350 LINE",
"255 418 LINE",
"285 643 LINE"
);
},
{
closed = 1;
nodes = (
"164 460 LINE",
"164 460 LINE"
);
},
{
closed = 1;
nodes = (
"221 643 LINE",
"221 643 LINE",
"124 635 OFFCURVE",
"72 544 OFFCURVE",
"72 440 CURVE SMOOTH",
"72 388 OFFCURVE",
"83 364 OFFCURVE",
"110 347 CURVE",
"118 347 LINE",
"163 387 OFFCURVE",
"208 447 OFFCURVE",
"245 516 CURVE",
"249 516 LINE",
"261 577 LINE",
"198 447 OFFCURVE",
"127 371 OFFCURVE",
"117 371 CURVE SMOOTH",
"109 371 OFFCURVE",
"91 389 OFFCURVE",
"91 445 CURVE SMOOTH",
"91 539 OFFCURVE",
"140 624 OFFCURVE",
"221 625 CURVE",
"271 621 LINE",
"278 638 LINE",
"224 643 LINE"
);
}
);
width = 299;
}
);
},
{
glyphname = b.sups;
lastChange = "2016-12-06 12:48:50 +0000";
layers = (
{
anchors = (
{
name = bottom;
position = "{9, 0}";
},
{
name = top;
position = "{9, 0}";
}
);
layerId = UUID0;
paths = (
{
closed = 1;
nodes = (
"246 642 LINE",
"201 602 OFFCURVE",
"155 541 OFFCURVE",
"117 473 CURVE",
"106 473 LINE",
"100 412 LINE",
"165 542 OFFCURVE",
"237 618 OFFCURVE",
"247 618 CURVE SMOOTH",
"255 618 OFFCURVE",
"273 600 OFFCURVE",
"273 545 CURVE SMOOTH",
"273 452 OFFCURVE",
"223 365 OFFCURVE",
"140 365 CURVE",
"93 377 LINE",
"86 359 LINE",
"138 347 LINE",
"140 347 LINE",
"238 355 OFFCURVE",
"292 445 OFFCURVE",
"292 552 CURVE SMOOTH",
"292 601 OFFCURVE",
"280 624 OFFCURVE",
"254 642 CURVE"
);
},
{
closed = 1;
nodes = (
"158 807 LINE",
"158 807 LINE",
"135 804 LINE",
"130 745 LINE",
"79 360 LINE",
"100 356 LINE",
"101 367 LINE",
"110 444 LINE"
);
}
);
width = 299;
}
);
},
{
glyphname = c.sups;
lastChange = "2016-12-06 12:48:50 +0000";
layers = (
{
anchors = (
{
name = bottom;
position = "{9, 0}";
},
{
name = top;
position = "{9, 0}";
}
);
layerId = UUID0;
paths = (
{
closed = 1;
nodes = (
"224 643 LINE",
"224 643 LINE",
"119 643 OFFCURVE",
"73 558 OFFCURVE",
"73 446 CURVE SMOOTH",
"73 367 OFFCURVE",
"101 352 OFFCURVE",
"138 347 CURVE",
"143 347 LINE",
"181 352 OFFCURVE",
"211 369 OFFCURVE",
"241 418 CURVE",
"233 428 LINE",
"229 428 LINE",
"201 379 OFFCURVE",
"169 365 OFFCURVE",
"144 365 CURVE SMOOTH",
"111 365 OFFCURVE",
"93 388 OFFCURVE",
"93 447 CURVE SMOOTH",
"93 556 OFFCURVE",
"137 624 OFFCURVE",
"213 625 CURVE",
"224 625 OFFCURVE",
"240 619 OFFCURVE",
"257 609 CURVE",
"262 611 LINE",
"268 626 LINE",
"264 631 LINE"
);
}
);
width = 231;
}
);
},
{
glyphname = d.sups;
lastChange = "2016-12-06 12:48:50 +0000";
layers = (
{
anchors = (
{
name = bottom;
position = "{9, 0}";
},
{
name = center;
position = "{9, 0}";
},
{
name = top;
position = "{9, 0}";
},
{
name = topright;
position = "{9, 0}";
}
);
layerId = UUID0;
paths = (
{
closed = 1;
nodes = (
"226 642 LINE",
"226 642 LINE",
"223 642 LINE",
"125 634 OFFCURVE",
"71 543 OFFCURVE",
"71 437 CURVE SMOOTH",
"71 388 OFFCURVE",
"83 363 OFFCURVE",
"109 347 CURVE",
"117 347 LINE",
"163 387 OFFCURVE",
"209 447 OFFCURVE",
"246 516 CURVE",
"250 516 LINE",
"263 577 LINE",
"198 447 OFFCURVE",
"125 371 OFFCURVE",
"116 371 CURVE SMOOTH",
"108 371 OFFCURVE",
"91 388 OFFCURVE",
"91 443 CURVE SMOOTH",
"91 537 OFFCURVE",
"140 624 OFFCURVE",
"223 624 CURVE",
"273 621 LINE",
"280 638 LINE"
);
},
{
closed = 1;
nodes = (
"307 807 LINE",
"307 807 LINE",
"284 804 LINE",
"280 745 LINE",
"227 347 LINE",
"250 350 LINE",
"256 418 LINE"
);
}
);
width = 298;
}
);
},
{
glyphname = e.sups;
lastChange = "2016-12-06 12:48:50 +0000";
layers = (
{
anchors = (
{
name = bottom;
position = "{9, 0}";
},
{
name = ogonek;
position = "{9, 0}";
},
{
name = top;
position = "{9, 0}";
}
);
layerId = UUID0;
paths = (
{
closed = 1;
nodes = (
"87 461 LINE",
"203 501 OFFCURVE",
"259 548 OFFCURVE",
"259 597 CURVE SMOOTH",
"259 624 OFFCURVE",
"242 641 OFFCURVE",
"208 644 CURVE",
"204 644 LINE",
"129 641 OFFCURVE",
"72 559 OFFCURVE",
"72 445 CURVE",
"72 384 OFFCURVE",
"90 352 OFFCURVE",
"138 347 CURVE",
"144 347 LINE",
"185 352 OFFCURVE",
"215 375 OFFCURVE",
"241 418 CURVE",
"234 427 LINE",
"229 428 LINE",
"205 387 OFFCURVE",
"176 364 OFFCURVE",
"143 364 CURVE SMOOTH",
"109 364 OFFCURVE",
"92 391 OFFCURVE",
"92 450 CURVE SMOOTH",
"92 552 OFFCURVE",
"141 626 OFFCURVE",
"203 626 CURVE SMOOTH",
"228 626 OFFCURVE",
"240 613 OFFCURVE",
"240 594 CURVE SMOOTH",
"240 554 OFFCURVE",
"185 512 OFFCURVE",
"87 478 CURVE"
);
}
);
width = 250;
}
);
},
{
glyphname = f.sups;
lastChange = "2016-12-06 12:48:50 +0000";
layers = (
{
layerId = UUID0;
paths = (
{
closed = 1;
nodes = (
"234 807 LINE",
"234 807 LINE",
"183 807 OFFCURVE",
"150 771 OFFCURVE",
"141 705 CURVE SMOOTH",
"112 472 LINE",
"83 247 LINE",
"107 250 LINE",
"112 318 LINE",
"132 474 LINE",
"162 707 LINE SMOOTH",
"169 760 OFFCURVE",
"194 790 OFFCURVE",
"232 790 CURVE SMOOTH",
"250 790 OFFCURVE",
"265 785 OFFCURVE",
"278 779 CURVE",
"282 780 LINE",
"288 797 LINE",
"287 800 LINE"
);
},
{
closed = 1;
nodes = (
"229 638 LINE",
"229 638 LINE",
"86 638 LINE",
"83 624 LINE",
"86 621 LINE",
"228 621 LINE",
"231 635 LINE"
);
}
);
width = 185;
}
);
},
{
glyphname = g.sups;
lastChange = "2016-12-06 12:48:50 +0000";
layers = (
{
anchors = (
{
name = top;
position = "{9, 0}";
}
);
layerId = UUID0;
paths = (
{
closed = 1;
nodes = (
"283 645 LINE",
"283 645 LINE",
"264 637 LINE",
"260 586 LINE",
"232 368 LINE SMOOTH",
"220 284 OFFCURVE",
"173 242 OFFCURVE",
"109 242 CURVE SMOOTH",
"79 242 OFFCURVE",
"53 254 OFFCURVE",
"40 277 CURVE SMOOTH",
"34 288 OFFCURVE",
"32 298 OFFCURVE",
"32 301 CURVE SMOOTH",
"32 303 OFFCURVE",
"32 305 OFFCURVE",
"36 307 CURVE SMOOTH",
"129 369 LINE",
"112 381 LINE",
"111 374 LINE",
"12 309 LINE",
"9 303 LINE",
"20 253 OFFCURVE",
"55 224 OFFCURVE",
"107 224 CURVE SMOOTH",
"184 224 OFFCURVE",
"239 271 OFFCURVE",
"252 373 CURVE SMOOTH",
"260 435 LINE",
"286 643 LINE"
);
},
{
closed = 1;
nodes = (
"231 642 LINE",
"231 642 LINE",
"228 642 LINE",
"137 635 OFFCURVE",
"87 551 OFFCURVE",
"87 453 CURVE SMOOTH",
"87 407 OFFCURVE",
"98 385 OFFCURVE",
"122 369 CURVE",
"129 369 LINE",
"171 406 OFFCURVE",
"214 462 OFFCURVE",
"249 526 CURVE",
"253 526 LINE",
"265 582 LINE",
"205 461 OFFCURVE",
"138 392 OFFCURVE",
"129 392 CURVE SMOOTH",
"122 392 OFFCURVE",
"105 407 OFFCURVE",
"105 458 CURVE SMOOTH",
"105 546 OFFCURVE",
"151 625 OFFCURVE",
"228 625 CURVE",
"274 623 LINE",
"280 639 LINE"
);
}
);
width = 299;
}
);
},
{
glyphname = h.sups;
lastChange = "2016-12-06 12:48:50 +0000";
layers = (
{
anchors = (
{
name = bottom;
position = "{9, 0}";
},
{
name = center;
position = "{9, 0}";
},
{
name = top;
position = "{9, 0}";
},
{
name = topright;
position = "{9, 0}";
}
);
layerId = UUID0;
paths = (
{
closed = 1;
nodes = (
"254 646 LINE",
"209 617 OFFCURVE",
"167 558 OFFCURVE",
"118 475 CURVE",
"109 475 LINE",
"101 415 LINE",
"173 548 OFFCURVE",
"234 622 OFFCURVE",
"256 622 CURVE SMOOTH",
"267 622 OFFCURVE",
"278 607 OFFCURVE",
"278 586 CURVE",
"277 576 LINE",
"240 347 LINE",
"263 350 LINE",
"270 415 LINE",
"298 582 LINE",
"299 591 LINE",
"300 618 OFFCURVE",
"284 640 OFFCURVE",
"261 646 CURVE"
);
},
{
closed = 1;
nodes = (
"158 807 LINE",
"158 807 LINE",
"135 804 LINE",
"131 745 LINE",
"78 347 LINE",
"101 350 LINE",
"106 418 LINE"
);
}
);
width = 317;
}
);
},
{
glyphname = i.sups;
lastChange = "2016-12-06 12:48:50 +0000";
layers = (
{
anchors = (
{
name = _top;
position = "{9, 0}";
},
{
name = ogonek;
position = "{9, 0}";
},
{
name = top;
position = "{9, 0}";
}
);
layerId = UUID0;
paths = (
{
closed = 1;
nodes = (
"135 643 LINE",
"135 643 LINE",
"112 640 LINE",
"109 581 LINE",
"77 347 LINE",
"102 350 LINE",
"106 418 LINE"
);
},
{
closed = 1;
nodes = (
"139 764 LINE",
"129 764 OFFCURVE",
"121 757 OFFCURVE",
"121 745 CURVE SMOOTH",
"121 737 OFFCURVE",
"127 731 OFFCURVE",
"136 731 CURVE SMOOTH",
"147 731 OFFCURVE",
"155 739 OFFCURVE",
"155 750 CURVE SMOOTH",
"155 759 OFFCURVE",
"149 764 OFFCURVE",
"139 764 CURVE SMOOTH"
);
}
);
width = 148;
}
);
},
{
glyphname = j.sups;
lastChange = "2016-12-06 12:48:50 +0000";
layers = (
{
anchors = (
{
name = _top;
position = "{9, 0}";
},
{
name = top;
position = "{9, 0}";
}
);
layerId = UUID0;
paths = (
{
closed = 1;
nodes = (
"140 640 LINE",
"140 640 LINE",
"121 638 LINE",
"68 638 LINE",
"65 624 LINE",
"68 621 LINE",
"118 621 LINE",
"116 583 LINE",
"85 356 LINE",
"77 299 OFFCURVE",
"61 272 OFFCURVE",
"17 241 CURVE",
"16 237 LINE",
"25 227 LINE",
"77 261 OFFCURVE",
"97 293 OFFCURVE",
"106 362 CURVE",
"113 411 LINE",
"142 640 LINE"
);
},
{
closed = 1;
nodes = (
"141 764 LINE",
"131 764 OFFCURVE",
"124 758 OFFCURVE",
"124 748 CURVE SMOOTH",
"124 738 OFFCURVE",
"131 731 OFFCURVE",
"141 731 CURVE SMOOTH",
"151 731 OFFCURVE",
"157 738 OFFCURVE",
"157 748 CURVE SMOOTH",
"157 758 OFFCURVE",
"151 764 OFFCURVE",
"141 764 CURVE SMOOTH"
);
}
);
width = 156;
}
);
},
{
glyphname = k.sups;
lastChange = "2016-12-06 12:48:50 +0000";
layers = (
{
anchors = (
{
name = bottom;
position = "{9, 0}";
},
{
name = top;
position = "{9, 0}";
},
{
name = topright;
position = "{9, 0}";
}
);
layerId = UUID0;
paths = (
{
closed = 1;
nodes = (
"254 643 LINE",
"208 621 OFFCURVE",
"168 561 OFFCURVE",
"119 478 CURVE",
"110 478 LINE",
"101 415 LINE",
"175 551 OFFCURVE",
"229 622 OFFCURVE",
"260 622 CURVE SMOOTH",
"270 622 OFFCURVE",
"286 613 OFFCURVE",
"286 588 CURVE SMOOTH",
"286 548 OFFCURVE",
"246 509 OFFCURVE",
"176 472 CURVE",
"175 465 LINE",
"205 425 OFFCURVE",
"235 384 OFFCURVE",
"267 344 CURVE",
"270 343 LINE",
"286 349 LINE",
"287 351 LINE",
"255 389 OFFCURVE",
"225 428 OFFCURVE",
"198 467 CURVE",
"269 506 OFFCURVE",
"307 548 OFFCURVE",
"307 593 CURVE SMOOTH",
"307 624 OFFCURVE",
"289 640 OFFCURVE",
"264 644 CURVE"
);
},
{
closed = 1;
nodes = (
"158 807 LINE",
"158 807 LINE",
"135 804 LINE",
"131 745 LINE",
"78 347 LINE",
"101 350 LINE",
"106 418 LINE"
);
}
);
width = 300;
}
);
},
{
glyphname = l.sups;
lastChange = "2016-12-06 12:48:50 +0000";
layers = (
{
anchors = (
{
name = bottom;
position = "{9, 0}";
},
{
name = top;
position = "{9, 0}";
},
{
name = topright;
position = "{9, 0}";
}
);
layerId = UUID0;
paths = (
{
closed = 1;
nodes = (
"158 807 LINE",
"158 807 LINE",
"134 804 LINE",
"131 745 LINE",
"78 347 LINE",
"102 350 LINE",
"107 418 LINE"
);
}
);
width = 149;
}
);
},
{
glyphname = m.sups;
lastChange = "2016-12-06 12:48:50 +0000";
layers = (
{
anchors = (
{
name = bottom;
position = "{9, 0}";
},
{
name = ogonek;
position = "{9, 0}";
},
{
name = top;
position = "{9, 0}";
}
);
layerId = UUID0;
paths = (
{
closed = 1;
nodes = (
"423 646 LINE",
"379 617 OFFCURVE",
"337 558 OFFCURVE",
"288 475 CURVE",
"278 475 LINE",
"270 415 LINE",
"342 548 OFFCURVE",
"403 622 OFFCURVE",
"425 622 CURVE SMOOTH",
"436 622 OFFCURVE",
"447 607 OFFCURVE",
"447 586 CURVE",
"446 576 LINE",
"409 347 LINE",
"432 350 LINE",
"439 415 LINE",
"467 582 LINE",
"468 591 LINE",
"469 618 OFFCURVE",
"453 640 OFFCURVE",
"430 646 CURVE"
);
},
{
closed = 1;
nodes = (
"136 643 LINE",
"136 643 LINE",
"113 640 LINE",
"109 581 LINE",
"78 347 LINE",
"101 350 LINE",
"107 418 LINE"
);
},
{
closed = 1;
nodes = (
"254 646 LINE",
"210 617 OFFCURVE",
"169 558 OFFCURVE",
"119 475 CURVE",
"111 475 LINE",
"102 415 LINE",
"174 548 OFFCURVE",
"235 622 OFFCURVE",
"257 622 CURVE SMOOTH",
"267 622 OFFCURVE",
"279 607 OFFCURVE",
"279 586 CURVE",
"278 576 LINE",
"240 347 LINE",
"264 350 LINE",
"271 415 LINE",
"299 582 LINE",
"300 591 LINE",
"301 618 OFFCURVE",
"284 640 OFFCURVE",
"262 646 CURVE"
);
}
);
width = 486;
}
);
},
{
glyphname = n.sups;
lastChange = "2016-12-06 12:48:50 +0000";
layers = (
{
anchors = (
{
name = bottom;
position = "{9, 0}";
},
{
name = ogonek;
position = "{9, 0}";
},
{
name = top;
position = "{9, 0}";
}
);
layerId = UUID0;
paths = (
{
closed = 1;
nodes = (
"146 389 LINE",
"146 389 LINE"
);
},
{
closed = 1;
nodes = (
"113 640 LINE",
"113 640 LINE",
"109 581 LINE",
"78 347 LINE",
"101 350 LINE",
"107 418 LINE",
"136 643 LINE"
);
},
{
closed = 1;
nodes = (
"254 646 LINE",
"209 617 OFFCURVE",
"168 558 OFFCURVE",
"118 475 CURVE",
"109 475 LINE",
"101 415 LINE",
"173 548 OFFCURVE",
"234 622 OFFCURVE",
"256 622 CURVE SMOOTH",
"267 622 OFFCURVE",
"278 607 OFFCURVE",
"278 586 CURVE",
"277 576 LINE",
"240 347 LINE",
"263 350 LINE",
"270 415 LINE",
"298 582 LINE",
"299 591 LINE",
"300 618 OFFCURVE",
"283 640 OFFCURVE",
"261 646 CURVE"
);
}
);
width = 317;
}
);
},
{
glyphname = o.sups;
lastChange = "2016-12-06 12:48:50 +0000";
layers = (
{
layerId = UUID0;
paths = (
{
closed = 1;
nodes = (
"207 644 LINE",
"207 644 LINE",
"122 642 OFFCURVE",
"71 555 OFFCURVE",
"71 439 CURVE SMOOTH",
"71 378 OFFCURVE",
"92 349 OFFCURVE",
"138 346 CURVE",
"142 346 LINE",
"226 351 OFFCURVE",
"276 436 OFFCURVE",
"276 553 CURVE SMOOTH",
"276 612 OFFCURVE",
"256 640 OFFCURVE",
"210 644 CURVE"
);
},
{
closed = 1;
nodes = (
"205 626 LINE",
"241 626 OFFCURVE",
"256 602 OFFCURVE",
"256 550 CURVE SMOOTH",
"256 443 OFFCURVE",
"211 364 OFFCURVE",
"143 364 CURVE SMOOTH",
"107 364 OFFCURVE",
"91 388 OFFCURVE",
"91 441 CURVE SMOOTH",
"91 547 OFFCURVE",
"136 626 OFFCURVE",
"205 626 CURVE SMOOTH"
);
}
);
width = 282;
}
);
},
{
glyphname = p.sups;
lastChange = "2016-12-06 12:48:50 +0000";
layers = (
{
anchors = (
{
name = bottom;
position = "{9, 0}";
},
{
name = top;
position = "{9, 0}";
}
);
layerId = UUID0;
paths = (
{
closed = 1;
nodes = (
"246 642 LINE",
"201 602 OFFCURVE",
"155 541 OFFCURVE",
"117 473 CURVE",
"113 473 LINE",
"100 412 LINE",
"165 542 OFFCURVE",
"237 618 OFFCURVE",
"247 618 CURVE SMOOTH",
"255 618 OFFCURVE",
"272 600 OFFCURVE",
"272 545 CURVE SMOOTH",
"272 452 OFFCURVE",
"223 365 OFFCURVE",
"140 365 CURVE",
"93 377 LINE",
"86 359 LINE",
"137 347 LINE",
"140 347 LINE",
"238 355 OFFCURVE",
"292 445 OFFCURVE",
"292 552 CURVE SMOOTH",
"292 601 OFFCURVE",
"280 624 OFFCURVE",
"253 642 CURVE"
);
},
{
closed = 1;
nodes = (
"135 643 LINE",
"135 643 LINE",
"112 640 LINE",
"109 581 LINE",
"62 226 LINE",
"86 229 LINE",
"91 297 LINE"
);
}
);
width = 298;
}
);
},
{
glyphname = q.sups;
lastChange = "2016-12-06 12:48:50 +0000";
layers = (
{
layerId = UUID0;
paths = (
{
closed = 1;
nodes = (
"225 642 LINE",
"225 642 LINE",
"223 642 LINE",
"125 634 OFFCURVE",
"71 543 OFFCURVE",
"71 437 CURVE SMOOTH",
"71 388 OFFCURVE",
"83 363 OFFCURVE",
"109 347 CURVE",
"117 347 LINE",
"161 387 OFFCURVE",
"207 447 OFFCURVE",
"245 516 CURVE",
"249 516 LINE",
"262 577 LINE",
"197 447 OFFCURVE",
"125 371 OFFCURVE",
"116 371 CURVE SMOOTH",
"108 371 OFFCURVE",
"91 389 OFFCURVE",
"91 443 CURVE SMOOTH",
"91 537 OFFCURVE",
"140 624 OFFCURVE",
"222 624 CURVE",
"272 621 LINE",
"278 638 LINE"
);
},
{
closed = 1;
nodes = (
"280 645 LINE",
"280 645 LINE",
"261 637 LINE",
"257 581 LINE",
"211 226 LINE",
"234 229 LINE",
"239 297 LINE",
"284 643 LINE"
);
}
);
width = 298;
}
);
},
{
glyphname = r.sups;
lastChange = "2016-12-06 12:48:50 +0000";
layers = (
{
anchors = (
{
name = bottom;
position = "{9, 0}";
},
{
name = ogonek;
position = "{9, 0}";
},
{
name = top;
position = "{9, 0}";
}
);
layerId = UUID0;
paths = (
{
closed = 1;
nodes = (
"248 640 LINE",
"248 640 LINE",
"216 639 OFFCURVE",
"165 575 OFFCURVE",
"119 474 CURVE",
"109 474 LINE",
"102 413 LINE",
"159 541 OFFCURVE",
"214 618 OFFCURVE",
"245 618 CURVE",
"253 616 LINE",
"256 618 LINE",
"259 639 LINE"
);
},
{
closed = 1;
nodes = (
"134 643 LINE",
"134 643 LINE",
"112 640 LINE",
"107 581 LINE",
"77 347 LINE",
"100 350 LINE",
"106 418 LINE"
);
}
);
width = 215;
}
);
},
{
glyphname = s.sups;
lastChange = "2016-12-06 12:48:50 +0000";
layers = (
{
anchors = (
{
name = bottom;
position = "{9, 0}";
},
{
name = top;
position = "{9, 0}";
}
);
layerId = UUID0;
paths = (
{
closed = 1;
nodes = (
"179 642 LINE",
"124 643 OFFCURVE",
"83 610 OFFCURVE",
"84 565 CURVE SMOOTH",
"84 496 OFFCURVE",
"191 486 OFFCURVE",
"191 425 CURVE SMOOTH",
"192 392 OFFCURVE",
"162 364 OFFCURVE",
"120 364 CURVE SMOOTH",
"95 364 OFFCURVE",
"75 374 OFFCURVE",
"60 388 CURVE",
"55 385 LINE",
"52 367 LINE",
"67 357 OFFCURVE",
"86 349 OFFCURVE",
"111 346 CURVE",
"171 347 OFFCURVE",
"211 383 OFFCURVE",
"211 427 CURVE SMOOTH",
"211 499 OFFCURVE",
"103 512 OFFCURVE",
"103 567 CURVE SMOOTH",
"103 596 OFFCURVE",
"131 625 OFFCURVE",
"171 625 CURVE SMOOTH",
"185 625 OFFCURVE",
"202 621 OFFCURVE",
"219 611 CURVE",
"223 612 LINE",
"229 629 LINE",
"215 636 OFFCURVE",
"199 640 OFFCURVE",
"179 642 CURVE"
);
}
);
width = 220;
}
);
},
{
glyphname = t.sups;
lastChange = "2016-12-06 12:48:50 +0000";
layers = (
{
anchors = (
{
name = bottom;
position = "{9, 0}";
},
{
name = center;
position = "{9, 0}";
}
);
layerId = UUID0;
paths = (
{
closed = 1;
nodes = (
"165 728 LINE",
"165 728 LINE",
"144 720 LINE",
"124 581 LINE",
"94 407 LINE",
"93 389 LINE",
"93 362 OFFCURVE",
"107 350 OFFCURVE",
"136 347 CURVE",
"143 347 LINE",
"173 351 OFFCURVE",
"199 370 OFFCURVE",
"220 418 CURVE",
"214 427 LINE",
"208 427 LINE",
"190 383 OFFCURVE",
"167 365 OFFCURVE",
"141 365 CURVE SMOOTH",
"123 365 OFFCURVE",
"113 374 OFFCURVE",
"112 393 CURVE",
"114 408 LINE",
"168 726 LINE"
);
},
{
closed = 1;
nodes = (
"252 638 LINE",
"252 638 LINE",
"83 638 LINE",
"81 624 LINE",
"84 621 LINE",
"252 621 LINE",
"254 635 LINE"
);
}
);
width = 221;
}
);
},
{
glyphname = u.sups;
lastChange = "2016-12-06 12:48:50 +0000";
layers = (
{
anchors = (
{
name = bottom;
position = "{9, 0}";
},
{
name = ogonek;
position = "{9, 0}";
},
{
name = top;
position = "{9, 0}";
}
);
layerId = UUID0;
paths = (
{
closed = 1;
nodes = (
"140 642 LINE",
"140 642 LINE",
"117 639 LINE",
"110 574 LINE",
"82 407 LINE",
"81 399 LINE",
"80 371 OFFCURVE",
"96 349 OFFCURVE",
"119 343 CURVE",
"127 343 LINE",
"171 372 OFFCURVE",
"212 432 OFFCURVE",
"262 514 CURVE",
"271 514 LINE",
"280 574 LINE",
"207 441 OFFCURVE",
"146 367 OFFCURVE",
"124 367 CURVE SMOOTH",
"113 367 OFFCURVE",
"102 383 OFFCURVE",
"102 404 CURVE",
"103 413 LINE"
);
},
{
closed = 1;
nodes = (
"301 643 LINE",
"301 643 LINE",
"278 640 LINE",
"274 581 LINE",
"243 347 LINE",
"266 350 LINE",
"272 418 LINE"
);
}
);
width = 314;
}
);
},
{
glyphname = v.sups;
lastChange = "2016-12-06 12:48:50 +0000";
layers = (
{
layerId = UUID0;
paths = (
{
closed = 1;
nodes = (
"246 634 LINE",
"257 620 OFFCURVE",
"264 606 OFFCURVE",
"264 590 CURVE SMOOTH",
"264 571 OFFCURVE",
"256 549 OFFCURVE",
"240 523 CURVE SMOOTH",
"146 376 LINE",
"144 376 LINE",
"121 595 LINE",
"117 643 LINE",
"95 639 LINE",
"129 350 LINE",
"151 350 LINE",
"257 515 LINE SMOOTH",
"275 543 OFFCURVE",
"284 568 OFFCURVE",
"284 590 CURVE SMOOTH",
"284 608 OFFCURVE",
"277 625 OFFCURVE",
"265 642 CURVE"
);
}
);
width = 268;
}
);
},
{
glyphname = w.sups;
lastChange = "2016-12-06 12:48:50 +0000";
layers = (
{
anchors = (
{
name = top;
position = "{9, 0}";
}
);
layerId = UUID0;
paths = (
{
closed = 1;
nodes = (
"428 634 LINE",
"439 620 OFFCURVE",
"446 606 OFFCURVE",
"446 590 CURVE SMOOTH",
"446 571 OFFCURVE",
"437 549 OFFCURVE",
"423 523 CURVE SMOOTH",
"337 377 LINE",
"334 377 LINE",
"305 611 LINE",
"302 640 LINE",
"279 640 LINE",
"265 610 LINE",
"151 377 LINE",
"148 377 LINE",
"119 611 LINE",
"116 642 LINE",
"95 639 LINE",
"132 350 LINE",
"157 350 LINE",
"284 609 LINE",
"287 609 LINE",
"320 350 LINE",
"341 350 LINE",
"440 515 LINE SMOOTH",
"457 544 OFFCURVE",
"466 568 OFFCURVE",
"466 590 CURVE SMOOTH",
"466 609 OFFCURVE",
"460 625 OFFCURVE",
"447 642 CURVE"
);
}
);
width = 450;
}
);
},
{
glyphname = x.sups;
lastChange = "2016-12-06 12:48:50 +0000";
layers = (
{
layerId = UUID0;
paths = (
{
closed = 1;
nodes = (
"192 497 LINE",
"192 497 LINE",
"308 640 LINE",
"283 640 LINE",
"267 618 LINE",
"181 515 LINE",
"123 621 LINE",
"113 643 LINE",
"92 638 LINE",
"167 500 LINE",
"45 350 LINE",
"71 350 LINE",
"86 372 LINE",
"178 483 LINE",
"239 374 LINE",
"251 347 LINE",
"273 353 LINE"
);
}
);
width = 289;
}
);
},
{
glyphname = y.sups;
lastChange = "2016-12-06 12:48:50 +0000";
layers = (
{
anchors = (
{
name = top;
position = "{9, 0}";
}
);
layerId = UUID0;
paths = (
{
closed = 1;
nodes = (
"244 634 LINE",
"255 619 OFFCURVE",
"262 605 OFFCURVE",
"262 588 CURVE SMOOTH",
"262 570 OFFCURVE",
"255 547 OFFCURVE",
"240 522 CURVE SMOOTH",
"147 367 LINE SMOOTH",
"95 281 OFFCURVE",
"51 246 OFFCURVE",
"8 246 CURVE SMOOTH",
"-5 246 OFFCURVE",
"-19 249 OFFCURVE",
"-36 256 CURVE",
"-40 254 LINE",
"-39 235 LINE",
"-23 229 OFFCURVE",
"-8 226 OFFCURVE",
"8 226 CURVE SMOOTH",
"58 226 OFFCURVE",
"105 264 OFFCURVE",
"165 362 CURVE SMOOTH",
"256 512 LINE SMOOTH",
"274 541 OFFCURVE",
"281 566 OFFCURVE",
"281 588 CURVE SMOOTH",
"281 607 OFFCURVE",
"276 624 OFFCURVE",
"262 642 CURVE"
);
},
{
closed = 1;
nodes = (
"107 643 LINE",
"107 643 LINE",
"85 639 LINE",
"142 345 LINE",
"165 384 LINE",
"153 384 LINE",
"115 595 LINE"
);
}
);
width = 266;
}
);
},
{
glyphname = z.sups;
lastChange = "2016-12-06 12:48:50 +0000";
layers = (
{
anchors = (
{
name = top;
position = "{9, 0}";
}
);
layerId = UUID0;
paths = (
{
closed = 1;
nodes = (
"269 648 LINE",
"269 648 LINE",
"257 640 LINE",
"123 640 LINE",
"90 642 LINE",
"88 640 LINE",
"85 623 LINE",
"86 620 LINE",
"116 621 LINE",
"242 622 LINE",
"34 354 LINE",
"42 347 LINE",
"45 347 LINE",
"57 360 OFFCURVE",
"70 365 OFFCURVE",
"85 365 CURVE SMOOTH",
"115 365 OFFCURVE",
"149 344 OFFCURVE",
"180 344 CURVE SMOOTH",
"235 344 OFFCURVE",
"265 382 OFFCURVE",
"269 460 CURVE",
"260 468 LINE",
"253 467 LINE",
"249 398 OFFCURVE",
"225 363 OFFCURVE",
"181 363 CURVE SMOOTH",
"153 363 OFFCURVE",
"122 383 OFFCURVE",
"94 383 CURVE",
"76 380 LINE",
"278 641 LINE"
);
}
);
width = 274;
}
);
},
{
glyphname = f.t;
lastChange = "2016-12-06 12:48:50 +0000";
layers = (
{
anchors = (
{
name = bottom;
position = "{174, 0}";
},
{
name = top;
position = "{282, 749}";
}
);
layerId = UUID0;
paths = (
{
closed = 1;
nodes = (
"308 705 LINE",
"224 705 OFFCURVE",
"173 653 OFFCURVE",
"160 551 CURVE SMOOTH",
"114 190 LINE",
"73 -134 LINE",
"98 -130 LINE",
"107 -24 LINE",
"134 192 LINE",
"180 551 LINE SMOOTH",
"192 639 OFFCURVE",
"233 685 OFFCURVE",
"302 685 CURVE SMOOTH",
"326 685 OFFCURVE",
"350 678 OFFCURVE",
"371 670 CURVE",
"377 670 LINE",
"384 690 LINE",
"382 693 LINE"
);
},
{
closed = 1;
nodes = (
"413 449 LINE",
"75 449 LINE",
"71 433 LINE",
"75 429 LINE",
"412 429 LINE",
"416 445 LINE"
);
}
);
width = 257;
}
);
leftKerningGroup = f;
},
{
glyphname = f_j;
lastChange = "2016-12-06 12:48:50 +0000";
layers = (
{
anchors = (
{
name = bottom_1;
position = "{87, 0}";
},
{
name = bottom_2;
position = "{317, 0}";
},
{
name = caret_1;
position = "{230, 0}";
},
{
name = top_1;
position = "{143, 452}";
},
{
name = top_2;
position = "{373, 452}";
}
);
layerId = UUID0;
paths = (
{
closed = 1;
nodes = (
"328 705 LINE",
"238 705 OFFCURVE",
"177 650 OFFCURVE",
"160 551 CURVE SMOOTH",
"114 190 LINE",
"73 -134 LINE",
"98 -130 LINE",
"107 -24 LINE",
"134 192 LINE",
"180 551 LINE SMOOTH",
"194 637 OFFCURVE",
"243 685 OFFCURVE",
"318 685 CURVE SMOOTH",
"343 685 OFFCURVE",
"373 675 OFFCURVE",
"393 662 CURVE",
"399 662 LINE",
"406 682 LINE",
"404 685 LINE"
);
},
{
closed = 1;
nodes = (
"386 449 LINE",
"75 449 LINE",
"71 433 LINE",
"75 429 LINE",
"385 429 LINE",
"389 445 LINE"
);
},
{
closed = 1;
nodes = (
"394 455 LINE",
"373 448 LINE",
"367 362 LINE",
"320 8 LINE",
"353 93 LINE",
"397 452 LINE"
);
},
{
closed = 1;
nodes = (
"353 93 LINE",
"320 8 LINE",
"308 -83 OFFCURVE",
"284 -125 OFFCURVE",
"215 -175 CURVE",
"214 -181 LINE",
"224 -192 LINE",
"300 -138 OFFCURVE",
"328 -90 OFFCURVE",
"342 18 CURVE"
);
}
);
width = 460;
}
);
leftKerningGroup = f;
rightKerningGroup = f_j;
},
{
glyphname = fi;
lastChange = "2016-12-06 12:48:41 +0000";
layers = (
{
anchors = (
{
name = _top;
position = "{386, 452}";
},
{
name = ogonek;
position = "{412, 10}";
},
{
name = top;
position = "{386, 452}";
}
);
layerId = UUID0;
paths = (
{
closed = 1;
nodes = (
"328 705 LINE",
"238 705 OFFCURVE",
"177 650 OFFCURVE",
"160 551 CURVE SMOOTH",
"114 190 LINE",
"73 -134 LINE",
"98 -130 LINE",
"107 -24 LINE",
"134 192 LINE",
"180 551 LINE SMOOTH",
"194 637 OFFCURVE",
"243 685 OFFCURVE",
"318 685 CURVE SMOOTH",
"343 685 OFFCURVE",
"373 675 OFFCURVE",
"393 662 CURVE",
"399 662 LINE",
"406 682 LINE",
"404 685 LINE"
);
},
{
closed = 1;
nodes = (
"386 449 LINE",
"75 449 LINE",
"71 433 LINE",
"75 429 LINE",
"385 429 LINE",
"389 445 LINE"
);
},
{
closed = 1;
nodes = (
"394 455 LINE",
"373 448 LINE",
"367 362 LINE",
"318 -4 LINE",
"345 0 LINE",
"352 106 LINE",
"397 452 LINE"
);
}
);
width = 460;
}
);
leftKerningGroup = f;
rightKerningGroup = fi;
unicode = FB01;
},
{
glyphname = a.sc;
lastChange = "2016-12-06 12:48:50 +0000";
layers = (
{
anchors = (
{
name = bottom;
position = "{207, 0}";
},
{
name = ogonek;
position = "{404, 0}";
},
{
name = top;
position = "{273, 491}";
}
);
layerId = UUID0;
paths = (
{
closed = 1;
nodes = (
"285 491 LINE",
"263 491 LINE",
"6 0 LINE",
"29 0 LINE",
"45 35 LINE",
"269 461 LINE",
"272 461 LINE",
"375 35 LINE",
"381 0 LINE",
"404 0 LINE"
);
},
{
closed = 1;
nodes = (
"352 180 LINE",
"228 180 LINE",
"109 180 LINE",
"103 161 LINE",
"223 161 LINE",
"353 161 LINE"
);
}
);
width = 473;
}
);
leftKerningGroup = A;
rightKerningGroup = A;
},
{
glyphname = ae.sc;
lastChange = "2016-12-06 12:48:50 +0000";
layers = (
{
anchors = (
{
name = top;
position = "{446, 491}";
}
);
layerId = UUID0;
paths = (
{
closed = 1;
nodes = (
"567 491 LINE",
"327 491 LINE",
"-21 0 LINE",
"5 0 LINE",
"26 35 LINE",
"326 460 LINE",
"329 460 LINE",
"348 35 LINE",
"346 0 LINE",
"587 0 LINE",
"592 16 LINE",
"591 19 LINE",
"463 19 LINE",
"367 19 LINE",
"350 472 LINE",
"432 472 LINE",
"563 471 LINE",
"569 487 LINE"
);
},
{
closed = 1;
nodes = (
"545 273 LINE",
"353 242 LINE",
"127 205 LINE",
"114 183 LINE",
"349 223 LINE",
"543 254 LINE",
"547 271 LINE"
);
}
);
width = 656;
}
);
leftKerningGroup = A;
rightKerningGroup = AE;
},
{
glyphname = b.sc;
lastChange = "2016-12-06 12:48:50 +0000";
layers = (
{
layerId = UUID0;
paths = (
{
closed = 1;
nodes = (
"141 491 LINE",
"145 473 LINE",
"177 473 OFFCURVE",
"211 473 OFFCURVE",
"241 473 CURVE SMOOTH",
"301 473 OFFCURVE",
"335 441 OFFCURVE",
"335 389 CURVE SMOOTH",
"335 323 OFFCURVE",
"298 275 OFFCURVE",
"233 263 CURVE",
"122 265 LINE",
"119 244 LINE",
"236 245 LINE",
"306 239 OFFCURVE",
"344 206 OFFCURVE",
"344 149 CURVE SMOOTH",
"344 67 OFFCURVE",
"279 16 OFFCURVE",
"166 16 CURVE SMOOTH",
"140 16 OFFCURVE",
"112 17 OFFCURVE",
"89 20 CURVE",
"78 0 LINE",
"106 -2 OFFCURVE",
"141 -2 OFFCURVE",
"167 -2 CURVE SMOOTH",
"293 -2 OFFCURVE",
"365 54 OFFCURVE",
"365 151 CURVE SMOOTH",
"365 212 OFFCURVE",
"327 248 OFFCURVE",
"266 257 CURVE",
"322 279 OFFCURVE",
"358 323 OFFCURVE",
"358 392 CURVE SMOOTH",
"358 455 OFFCURVE",
"315 492 OFFCURVE",
"240 492 CURVE"
);
},
{
closed = 1;
nodes = (
"161 491 LINE",
"141 491 LINE",
"98 150 LINE",
"78 0 LINE",
"98 0 LINE",
"118 151 LINE"
);
}
);
width = 428;
}
);
leftKerningGroup = B;
rightKerningGroup = B;
},
{
glyphname = c.sc;
lastChange = "2016-12-06 12:48:50 +0000";
layers = (
{
anchors = (
{
name = bottom;
position = "{239, -4}";
},
{
name = top;
position = "{270, 491}";
}
);
layerId = UUID0;
paths = (
{
closed = 1;
nodes = (
"300 494 LINE",
"145 494 OFFCURVE",
"58 382 OFFCURVE",
"58 196 CURVE SMOOTH",
"58 69 OFFCURVE",
"119 -4 OFFCURVE",
"232 -4 CURVE SMOOTH",
"280 -4 OFFCURVE",
"333 13 OFFCURVE",
"381 46 CURVE",
"385 64 LINE",
"380 66 LINE",
"335 34 OFFCURVE",
"280 15 OFFCURVE",
"231 15 CURVE SMOOTH",
"132 15 OFFCURVE",
"79 81 OFFCURVE",
"79 198 CURVE SMOOTH",
"79 371 OFFCURVE",
"158 475 OFFCURVE",
"299 475 CURVE SMOOTH",
"345 475 OFFCURVE",
"388 459 OFFCURVE",
"419 432 CURVE",
"425 432 LINE",
"433 450 LINE",
"398 478 OFFCURVE",
"348 494 OFFCURVE",
"300 494 CURVE SMOOTH"
);
}
);
width = 448;
}
);
leftKerningGroup = C;
rightKerningGroup = C;
},
{
glyphname = d.sc;
lastChange = "2016-12-06 12:48:50 +0000";
layers = (
{
anchors = (
{
name = bottom;
position = "{242, 0}";
},
{
name = center;
position = "{246, 246}";
},
{
name = top;
position = "{291, 491}";
}
);
layerId = UUID0;
paths = (
{
closed = 1;
nodes = (
"141 491 LINE",
"152 471 LINE",
"173 472 OFFCURVE",
"280 475 OFFCURVE",
"297 475 CURVE SMOOTH",
"410 475 OFFCURVE",
"471 411 OFFCURVE",
"471 297 CURVE SMOOTH",
"471 124 OFFCURVE",
"383 15 OFFCURVE",
"233 15 CURVE SMOOTH",
"213 15 OFFCURVE",
"120 17 OFFCURVE",
"94 19 CURVE",
"79 0 LINE",
"113 -2 OFFCURVE",
"209 -4 OFFCURVE",
"230 -4 CURVE",
"397 -4 OFFCURVE",
"492 113 OFFCURVE",
"492 299 CURVE SMOOTH",
"492 423 OFFCURVE",
"422 495 OFFCURVE",
"298 495 CURVE"
);
},
{
closed = 1;
nodes = (
"161 491 LINE",
"141 491 LINE",
"98 150 LINE",
"79 0 LINE",
"99 0 LINE",
"118 151 LINE"
);
}
);
width = 543;
}
);
leftKerningGroup = B;
rightKerningGroup = D;
},
{
glyphname = eth.sc;
lastChange = "2016-12-06 12:48:50 +0000";
layers = (
{
anchors = (
{
name = bottom;
position = "{242, 0}";
},
{
name = center;
position = "{246, 246}";
},
{
name = top;
position = "{291, 491}";
}
);
layerId = UUID0;
paths = (
{
closed = 1;
nodes = (
"269 254 LINE",
"12 254 LINE",
"9 237 LINE",
"11 234 LINE",
"268 234 LINE",
"271 251 LINE"
);
},
{
closed = 1;
nodes = (
"141 491 LINE",
"152 471 LINE",
"173 472 OFFCURVE",
"280 475 OFFCURVE",
"297 475 CURVE SMOOTH",
"410 475 OFFCURVE",
"471 411 OFFCURVE",
"471 297 CURVE SMOOTH",
"471 124 OFFCURVE",
"383 15 OFFCURVE",
"233 15 CURVE SMOOTH",
"213 15 OFFCURVE",
"120 17 OFFCURVE",
"94 19 CURVE",
"79 0 LINE",
"113 -2 OFFCURVE",
"209 -4 OFFCURVE",
"230 -4 CURVE",
"397 -4 OFFCURVE",
"492 113 OFFCURVE",
"492 299 CURVE SMOOTH",
"492 423 OFFCURVE",
"422 495 OFFCURVE",
"298 495 CURVE"
);
},
{
closed = 1;
nodes = (
"161 491 LINE",
"141 491 LINE",
"98 150 LINE",
"79 0 LINE",
"99 0 LINE",
"118 151 LINE"
);
}
);
width = 543;
}
);
leftKerningGroup = B;
rightKerningGroup = D;
},
{
glyphname = e.sc;
lastChange = "2016-12-06 12:48:50 +0000";
layers = (
{
anchors = (
{
name = bottom;
position = "{214, 0}";
},
{
name = ogonek;
position = "{263, 16}";
},
{
name = top;
position = "{261, 491}";
}
);
layerId = UUID0;
paths = (
{
closed = 1;
nodes = (
"160 491 LINE",
"140 491 LINE",
"97 150 LINE",
"78 0 LINE",
"98 0 LINE",
"117 151 LINE"
);
},
{
closed = 1;
nodes = (
"327 19 LINE",
"203 19 LINE",
"94 19 LINE",
"89 3 LINE",
"92 0 LINE",
"324 0 LINE",
"330 16 LINE"
);
},
{
closed = 1;
nodes = (
"316 264 LINE",
"233 264 LINE",
"125 264 LINE",
"120 248 LINE",
"123 244 LINE",
"228 244 LINE",
"313 244 LINE",
"318 260 LINE"
);
},
{
closed = 1;
nodes = (
"384 491 LINE",
"154 491 LINE",
"149 475 LINE",
"152 472 LINE",
"266 472 LINE",
"381 471 LINE",
"387 487 LINE"
);
}
);
width = 397;
}
);
leftKerningGroup = B;
rightKerningGroup = AE;
},
{
glyphname = f.sc;
lastChange = "2016-12-06 12:48:50 +0000";
layers = (
{
layerId = UUID0;
paths = (
{
closed = 1;
nodes = (
"155 491 LINE",
"135 491 LINE",
"92 150 LINE",
"72 0 LINE",
"92 0 LINE",
"112 151 LINE"
);
},
{
closed = 1;
nodes = (
"300 256 LINE",
"223 255 LINE",
"119 255 LINE",
"116 236 LINE",
"217 236 LINE",
"297 236 LINE",
"302 252 LINE"
);
},
{
closed = 1;
nodes = (
"370 491 LINE",
"149 491 LINE",
"144 475 LINE",
"146 472 LINE",
"256 472 LINE",
"366 471 LINE",
"371 487 LINE"
);
}
);
width = 356;
}
);
leftKerningGroup = B;
rightKerningGroup = F;
},
{
glyphname = g.sc;
lastChange = "2016-12-06 12:48:50 +0000";
layers = (
{
anchors = (
{
name = bottom;
position = "{270, 0}";
},
{
name = top;
position = "{298, 491}";
}
);
layerId = UUID0;
paths = (
{
closed = 1;
nodes = (
"322 494 LINE",
"153 494 OFFCURVE",
"57 385 OFFCURVE",
"57 195 CURVE SMOOTH",
"57 68 OFFCURVE",
"121 -3 OFFCURVE",
"236 -3 CURVE SMOOTH",
"293 -3 OFFCURVE",
"330 4 OFFCURVE",
"401 23 CURVE",
"413 123 LINE",
"422 185 LINE",
"402 183 LINE",
"393 122 LINE",
"383 38 LINE",
"317 20 OFFCURVE",
"284 15 OFFCURVE",
"236 15 CURVE SMOOTH",
"134 15 OFFCURVE",
"78 81 OFFCURVE",
"78 198 CURVE SMOOTH",
"78 374 OFFCURVE",
"167 475 OFFCURVE",
"322 475 CURVE SMOOTH",
"363 475 OFFCURVE",
"406 460 OFFCURVE",
"447 435 CURVE",
"452 435 LINE",
"460 453 LINE",
"417 479 OFFCURVE",
"368 494 OFFCURVE",
"322 494 CURVE SMOOTH"
);
}
);
width = 513;
}
);
leftKerningGroup = C;
rightKerningGroup = G;
},
{
glyphname = h.sc;
lastChange = "2016-12-06 12:48:50 +0000";
layers = (
{
anchors = (
{
name = bottom;
position = "{254, 0}";
},
{
name = center;
position = "{313, 246}";
},
{
name = top;
position = "{314, 491}";
},
{
name = topleft;
position = "{50, 491}";
}
);
layerId = UUID0;
paths = (
{
closed = 1;
nodes = (
"494 491 LINE",
"474 491 LINE",
"432 150 LINE",
"412 0 LINE",
"432 0 LINE",
"452 151 LINE"
);
},
{
closed = 1;
nodes = (
"160 491 LINE",
"140 491 LINE",
"98 150 LINE",
"78 0 LINE",
"98 0 LINE",
"118 151 LINE"
);
},
{
closed = 1;
nodes = (
"126 259 LINE",
"124 240 LINE",
"281 240 LINE",
"450 240 LINE",
"452 259 LINE",
"287 259 LINE"
);
}
);
width = 566;
}
);
leftKerningGroup = B;
rightKerningGroup = H;
},
{
glyphname = hbar.sc;
lastChange = "2016-12-06 12:48:50 +0000";
layers = (
{
anchors = (
{
name = bottom;
position = "{254, 0}";
},
{
name = center;
position = "{313, 246}";
},
{
name = top;
position = "{314, 491}";
},
{
name = topleft;
position = "{50, 491}";
}
);
layerId = UUID0;
paths = (
{
closed = 1;
nodes = (
"530 382 LINE",
"72 382 LINE",
"68 367 LINE",
"71 364 LINE",
"530 364 LINE",
"534 380 LINE"
);
},
{
closed = 1;
nodes = (
"494 491 LINE",
"474 491 LINE",
"432 150 LINE",
"412 0 LINE",
"432 0 LINE",
"452 151 LINE"
);
},
{
closed = 1;
nodes = (
"160 491 LINE",
"140 491 LINE",
"98 150 LINE",
"78 0 LINE",
"98 0 LINE",
"118 151 LINE"
);
},
{
closed = 1;
nodes = (
"126 259 LINE",
"124 240 LINE",
"281 240 LINE",
"450 240 LINE",
"452 259 LINE",
"287 259 LINE"
);
}
);
width = 566;
}
);
leftKerningGroup = B;
rightKerningGroup = H;
},
{
glyphname = i.sc;
lastChange = "2016-12-06 12:48:50 +0000";
layers = (
{
anchors = (
{
name = bottom;
position = "{87, 0}";
},
{
name = ogonek;
position = "{98, 0}";
},
{
name = top;
position = "{147, 491}";
}
);
layerId = UUID0;
paths = (
{
closed = 1;
nodes = (
"160 491 LINE",
"140 491 LINE",
"98 150 LINE",
"78 0 LINE",
"98 0 LINE",
"118 151 LINE"
);
}
);
width = 233;
}
);
leftKerningGroup = B;
rightKerningGroup = H;
},
{
glyphname = j.sc;
lastChange = "2016-12-06 12:48:50 +0000";
layers = (
{
layerId = UUID0;
paths = (
{
closed = 1;
nodes = (
"177 491 LINE",
"157 491 LINE",
"116 160 LINE",
"108 90 LINE SMOOTH",
"100 27 OFFCURVE",
"70 -16 OFFCURVE",
"6 -58 CURVE",
"6 -63 LINE",
"15 -76 LINE",
"88 -29 OFFCURVE",
"119 16 OFFCURVE",
"128 89 CURVE SMOOTH",
"137 163 LINE"
);
},
{
closed = 1;
nodes = (
"165 491 LINE",
"55 491 LINE",
"50 475 LINE",
"53 472 LINE",
"163 472 LINE"
);
}
);
width = 261;
}
);
leftKerningGroup = J;
rightKerningGroup = H;
},
{
glyphname = k.sc;
lastChange = "2016-12-06 12:48:50 +0000";
layers = (
{
anchors = (
{
name = bottom;
position = "{210, 0}";
}
);
layerId = UUID0;
paths = (
{
closed = 1;
nodes = (
"434 491 LINE",
"406 491 LINE",
"368 454 LINE",
"152 263 LINE",
"152 260 LINE",
"217 169 OFFCURVE",
"291 79 OFFCURVE",
"366 -4 CURVE",
"369 -6 LINE",
"375 -4 OFFCURVE",
"382 -2 OFFCURVE",
"385 1 CURVE",
"387 5 LINE",
"313 84 OFFCURVE",
"240 173 OFFCURVE",
"178 261 CURVE"
);
},
{
closed = 1;
nodes = (
"160 491 LINE",
"140 491 LINE",
"98 150 LINE",
"78 0 LINE",
"98 0 LINE",
"118 151 LINE"
);
}
);
width = 439;
}
);
leftKerningGroup = B;
rightKerningGroup = k.sc;
},
{
glyphname = l.sc;
lastChange = "2016-12-06 12:48:50 +0000";
layers = (
{
anchors = (
{
name = bottom;
position = "{202, 0}";
},
{
name = center;
position = "{178, 246}";
},
{
name = top;
position = "{151, 491}";
},
{
name = topright;
position = "{319, 263}";
}
);
layerId = UUID0;
paths = (
{
closed = 1;
nodes = (
"162 491 LINE",
"142 491 LINE",
"99 150 LINE",
"79 0 LINE",
"99 0 LINE",
"119 151 LINE"
);
},
{
closed = 1;
nodes = (
"304 19 LINE",
"94 19 LINE",
"88 3 LINE",
"91 0 LINE",
"300 0 LINE",
"305 16 LINE"
);
}
);
width = 354;
}
);
leftKerningGroup = B;
rightKerningGroup = L;
},
{
glyphname = ldot.sc;
lastChange = "2016-12-06 12:48:50 +0000";
layers = (
{
anchors = (
{
name = bottom;
position = "{202, 0}";
},
{
name = center;
position = "{178, 246}";
},
{
name = top;
position = "{151, 491}";
},
{
name = topright;
position = "{319, 263}";
}
);
layerId = UUID0;
paths = (
{
closed = 1;
nodes = (
"176 -89 LINE"
);
},
{
closed = 1;
nodes = (
"162 491 LINE",
"142 491 LINE",
"99 150 LINE",
"79 0 LINE",
"99 0 LINE",
"119 151 LINE"
);
},
{
closed = 1;
nodes = (
"304 19 LINE",
"94 19 LINE",
"88 3 LINE",
"91 0 LINE",
"300 0 LINE",
"305 16 LINE"
);
},
{
closed = 1;
nodes = (
"249 285 LINE",
"237 285 OFFCURVE",
"229 277 OFFCURVE",
"229 265 CURVE SMOOTH",
"229 253 OFFCURVE",
"237 245 OFFCURVE",
"249 245 CURVE SMOOTH",
"261 245 OFFCURVE",
"269 253 OFFCURVE",
"269 265 CURVE SMOOTH",
"269 277 OFFCURVE",
"261 285 OFFCURVE",
"249 285 CURVE SMOOTH"
);
}
);
width = 364;
}
);
leftKerningGroup = B;
},
{
glyphname = lslash.sc;
lastChange = "2016-12-06 12:48:50 +0000";
layers = (
{
anchors = (
{
name = bottom;
position = "{210, 0}";
},
{
name = center;
position = "{186, 246}";
},
{
name = top;
position = "{159, 491}";
},
{
name = topright;
position = "{327, 263}";
}
);
layerId = UUID0;
paths = (
{
closed = 1;
nodes = (
"278 350 LINE",
"31 234 LINE",
"32 220 LINE",
"37 217 LINE",
"283 334 LINE",
"282 349 LINE"
);
},
{
closed = 1;
nodes = (
"170 491 LINE",
"150 491 LINE",
"107 150 LINE",
"87 0 LINE",
"107 0 LINE",
"127 151 LINE"
);
},
{
closed = 1;
nodes = (
"312 19 LINE",
"102 19 LINE",
"96 3 LINE",
"99 0 LINE",
"308 0 LINE",
"313 16 LINE"
);
}
);
width = 361;
}
);
leftKerningGroup = B;
rightKerningGroup = L;
},
{
glyphname = m.sc;
lastChange = "2016-12-06 12:48:50 +0000";
layers = (
{
anchors = (
{
name = bottom;
position = "{295, 0}";
},
{
name = top;
position = "{355, 491}";
}
);
layerId = UUID0;
paths = (
{
closed = 1;
nodes = (
"553 491 LINE",
"530 491 LINE",
"493 423 LINE",
"309 91 LINE",
"306 91 LINE",
"212 415 LINE",
"191 491 LINE",
"167 491 LINE",
"51 0 LINE",
"72 0 LINE",
"107 151 LINE",
"178 447 LINE",
"182 447 LINE",
"293 62 LINE",
"316 62 LINE",
"527 447 LINE",
"531 447 LINE",
"529 150 LINE",
"524 0 LINE",
"544 0 LINE"
);
}
);
width = 650;
}
);
leftKerningGroup = M;
rightKerningGroup = M;
},
{
glyphname = n.sc;
lastChange = "2016-12-06 12:48:50 +0000";
layers = (
{
anchors = (
{
name = bottom;
position = "{254, 0}";
},
{
name = top;
position = "{314, 491}";
}
);
layerId = UUID0;
paths = (
{
closed = 1;
nodes = (
"494 492 LINE",
"474 490 LINE",
"417 40 LINE",
"413 40 LINE",
"161 491 LINE",
"141 491 LINE",
"97 146 LINE",
"78 0 LINE",
"98 0 LINE",
"117 154 LINE",
"156 451 LINE",
"158 451 LINE",
"410 0 LINE",
"430 0 LINE",
"449 137 LINE"
);
}
);
width = 566;
}
);
leftKerningGroup = B;
rightKerningGroup = H;
},
{
glyphname = eng.sc;
lastChange = "2016-12-06 12:48:50 +0000";
layers = (
{
layerId = UUID0;
paths = (
{
closed = 1;
nodes = (
"494 492 LINE",
"474 490 LINE",
"418 40 LINE",
"413 40 LINE",
"161 491 LINE",
"141 491 LINE",
"98 146 LINE",
"78 0 LINE",
"98 0 LINE",
"117 154 LINE",
"155 451 LINE",
"158 451 LINE",
"409 3 LINE",
"398 -38 OFFCURVE",
"376 -68 OFFCURVE",
"334 -99 CURVE",
"333 -104 LINE",
"341 -115 LINE",
"402 -72 OFFCURVE",
"426 -32 OFFCURVE",
"435 35 CURVE SMOOTH",
"448 137 LINE"
);
}
);
width = 566;
}
);
leftKerningGroup = B;
rightKerningGroup = H;
},
{
glyphname = o.sc;
lastChange = "2016-12-06 12:48:50 +0000";
layers = (
{
anchors = (
{
name = bottom;
position = "{237, 0}";
},
{
name = center;
position = "{267, 246}";
},
{
name = ogonek;
position = "{350, 25}";
},
{
name = top;
position = "{297, 491}";
},
{
name = topleft;
position = "{50, 491}";
},
{
name = topright;
position = "{543, 491}";
}
);
layerId = UUID0;
paths = (
{
closed = 1;
nodes = (
"303 495 LINE",
"146 495 OFFCURVE",
"57 384 OFFCURVE",
"57 198 CURVE SMOOTH",
"57 70 OFFCURVE",
"121 -4 OFFCURVE",
"236 -4 CURVE SMOOTH",
"392 -4 OFFCURVE",
"482 110 OFFCURVE",
"482 297 CURVE SMOOTH",
"482 422 OFFCURVE",
"418 495 OFFCURVE",
"303 495 CURVE"
);
},
{
closed = 1;
nodes = (
"301 475 LINE",
"406 475 OFFCURVE",
"461 410 OFFCURVE",
"461 294 CURVE SMOOTH",
"461 120 OFFCURVE",
"377 16 OFFCURVE",
"235 16 CURVE SMOOTH",
"133 16 OFFCURVE",
"79 81 OFFCURVE",
"79 200 CURVE SMOOTH",
"79 374 OFFCURVE",
"160 475 OFFCURVE",
"301 475 CURVE SMOOTH"
);
}
);
width = 533;
}
);
leftKerningGroup = C;
rightKerningGroup = D;
},
{
glyphname = ohorn.sc;
lastChange = "2016-12-06 12:48:50 +0000";
layers = (
{
anchors = (
{
name = bottom;
position = "{239, 0}";
},
{
name = top;
position = "{286, 491}";
}
);
layerId = UUID0;
paths = (
{
closed = 1;
nodes = (
"489 572 LINE",
"502 556 OFFCURVE",
"510 538 OFFCURVE",
"510 522 CURVE SMOOTH",
"510 486 OFFCURVE",
"472 467 OFFCURVE",
"438 467 CURVE SMOOTH",
"399 467 OFFCURVE",
"380 495 OFFCURVE",
"305 495 CURVE SMOOTH",
"145 495 OFFCURVE",
"57 383 OFFCURVE",
"57 197 CURVE SMOOTH",
"57 69 OFFCURVE",
"121 -4 OFFCURVE",
"236 -4 CURVE SMOOTH",
"391 -4 OFFCURVE",
"481 113 OFFCURVE",
"481 296 CURVE SMOOTH",
"481 363 OFFCURVE",
"464 417 OFFCURVE",
"429 451 CURVE",
"481 445 OFFCURVE",
"530 476 OFFCURVE",
"530 529 CURVE SMOOTH",
"530 559 OFFCURVE",
"514 581 OFFCURVE",
"504 581 CURVE SMOOTH",
"501 581 OFFCURVE",
"497 580 OFFCURVE",
"491 576 CURVE"
);
},
{
closed = 1;
nodes = (
"237 15 LINE",
"134 15 OFFCURVE",
"79 81 OFFCURVE",
"79 200 CURVE SMOOTH",
"79 374 OFFCURVE",
"160 475 OFFCURVE",
"300 475 CURVE SMOOTH",
"405 475 OFFCURVE",
"461 411 OFFCURVE",
"461 294 CURVE SMOOTH",
"461 122 OFFCURVE",
"378 15 OFFCURVE",
"237 15 CURVE SMOOTH"
);
}
);
width = 538;
}
);
leftKerningGroup = C;
rightKerningGroup = D;
},
{
glyphname = oslash.sc;
lastChange = "2016-12-06 12:48:50 +0000";
layers = (
{
anchors = (
{
name = bottom;
position = "{237, 0}";
},
{
name = center;
position = "{267, 246}";
},
{
name = ogonek;
position = "{350, 25}";
},
{
name = top;
position = "{279, 491}";
},
{
name = topleft;
position = "{50, 491}";
},
{
name = topright;
position = "{543, 491}";
}
);
layerId = UUID0;
paths = (
{
closed = 1;
nodes = (
"443 555 LINE",
"427 560 LINE",
"80 -70 LINE",
"82 -74 LINE",
"98 -80 LINE",
"445 550 LINE"
);
},
{
closed = 1;
nodes = (
"303 495 LINE",
"146 495 OFFCURVE",
"57 384 OFFCURVE",
"57 198 CURVE SMOOTH",
"57 70 OFFCURVE",
"121 -4 OFFCURVE",
"236 -4 CURVE SMOOTH",
"392 -4 OFFCURVE",
"482 110 OFFCURVE",
"482 297 CURVE SMOOTH",
"482 422 OFFCURVE",
"418 495 OFFCURVE",
"303 495 CURVE"
);
},
{
closed = 1;
nodes = (
"301 475 LINE",
"406 475 OFFCURVE",
"461 410 OFFCURVE",
"461 294 CURVE SMOOTH",
"461 120 OFFCURVE",
"377 16 OFFCURVE",
"235 16 CURVE SMOOTH",
"133 16 OFFCURVE",
"79 81 OFFCURVE",
"79 200 CURVE SMOOTH",
"79 374 OFFCURVE",
"160 475 OFFCURVE",
"301 475 CURVE SMOOTH"
);
}
);
width = 533;
}
);
leftKerningGroup = C;
rightKerningGroup = D;
},
{
glyphname = oe.sc;
lastChange = "2016-12-06 12:48:50 +0000";
layers = (
{
anchors = (
{
name = top;
position = "{444, 491}";
}
);
layerId = UUID0;
paths = (
{
closed = 1;
nodes = (
"332 500 LINE",
"157 500 OFFCURVE",
"58 386 OFFCURVE",
"58 203 CURVE SMOOTH",
"58 71 OFFCURVE",
"133 -9 OFFCURVE",
"266 -9 CURVE SMOOTH",
"307 -9 OFFCURVE",
"348 0 OFFCURVE",
"393 0 CURVE SMOOTH",
"619 0 LINE",
"624 16 LINE",
"622 19 LINE",
"504 19 LINE",
"395 19 LINE",
"412 145 LINE",
"424 244 LINE",
"516 244 LINE",
"607 244 LINE",
"613 260 LINE",
"610 264 LINE",
"519 264 LINE",
"426 264 LINE",
"453 472 LINE",
"569 472 LINE",
"676 471 LINE",
"681 487 LINE",
"679 491 LINE",
"455 491 LINE SMOOTH",
"412 491 OFFCURVE",
"374 500 OFFCURVE",
"332 500 CURVE SMOOTH"
);
},
{
closed = 1;
nodes = (
"332 481 LINE",
"366 481 OFFCURVE",
"406 473 OFFCURVE",
"420 472 CURVE SMOOTH",
"429 471 OFFCURVE",
"430 466 OFFCURVE",
"428 447 CURVE SMOOTH",
"378 38 LINE SMOOTH",
"376 25 OFFCURVE",
"372 21 OFFCURVE",
"354 18 CURVE SMOOTH",
"338 15 OFFCURVE",
"300 10 OFFCURVE",
"269 10 CURVE SMOOTH",
"142 10 OFFCURVE",
"79 83 OFFCURVE",
"79 205 CURVE SMOOTH",
"79 376 OFFCURVE",
"172 481 OFFCURVE",
"332 481 CURVE SMOOTH"
);
}
);
width = 691;
}
);
leftKerningGroup = C;
rightKerningGroup = AE;
},
{
glyphname = p.sc;
lastChange = "2016-12-06 12:48:50 +0000";
layers = (
{
layerId = UUID0;
paths = (
{
closed = 1;
nodes = (
"141 491 LINE",
"146 473 LINE",
"256 474 LINE",
"325 470 OFFCURVE",
"360 434 OFFCURVE",
"360 371 CURVE SMOOTH",
"360 280 OFFCURVE",
"307 218 OFFCURVE",
"217 209 CURVE",
"115 209 LINE",
"113 190 LINE",
"192 190 LINE",
"311 190 OFFCURVE",
"382 265 OFFCURVE",
"382 373 CURVE SMOOTH",
"382 448 OFFCURVE",
"335 492 OFFCURVE",
"253 492 CURVE"
);
},
{
closed = 1;
nodes = (
"161 491 LINE",
"141 491 LINE",
"98 150 LINE",
"79 0 LINE",
"99 0 LINE",
"118 151 LINE"
);
}
);
width = 424;
}
);
leftKerningGroup = B;
rightKerningGroup = P;
},
{
glyphname = thorn.sc;
lastChange = "2016-12-06 12:48:50 +0000";
layers = (
{
layerId = UUID0;
paths = (
{
closed = 1;
nodes = (
"161 491 LINE",
"141 491 LINE",
"98 150 LINE",
"78 0 LINE",
"98 0 LINE",
"118 151 LINE"
);
},
{
closed = 1;
nodes = (
"132 397 LINE",
"137 379 LINE",
"247 380 LINE",
"316 376 OFFCURVE",
"351 340 OFFCURVE",
"351 277 CURVE SMOOTH",
"351 186 OFFCURVE",
"298 124 OFFCURVE",
"208 115 CURVE",
"106 115 LINE",
"104 96 LINE",
"183 96 LINE",
"302 96 OFFCURVE",
"373 171 OFFCURVE",
"373 279 CURVE SMOOTH",
"373 354 OFFCURVE",
"326 398 OFFCURVE",
"244 398 CURVE"
);
}
);
width = 426;
}
);
leftKerningGroup = B;
rightKerningGroup = Thorn;
},
{
glyphname = q.sc;
lastChange = "2016-12-06 12:48:50 +0000";
layers = (
{
layerId = UUID0;
paths = (
{
closed = 1;
nodes = (
"303 495 LINE",
"146 495 OFFCURVE",
"57 384 OFFCURVE",
"57 198 CURVE SMOOTH",
"57 70 OFFCURVE",
"121 -4 OFFCURVE",
"236 -4 CURVE SMOOTH",
"392 -4 OFFCURVE",
"482 110 OFFCURVE",
"482 297 CURVE SMOOTH",
"482 422 OFFCURVE",
"418 495 OFFCURVE",
"303 495 CURVE"
);
},
{
closed = 1;
nodes = (
"253 0 LINE",
"327 -76 OFFCURVE",
"427 -127 OFFCURVE",
"532 -141 CURVE",
"536 -141 LINE",
"539 -137 OFFCURVE",
"541 -134 OFFCURVE",
"544 -129 CURVE",
"545 -124 LINE",
"439 -111 OFFCURVE",
"341 -63 OFFCURVE",
"270 9 CURVE"
);
},
{
closed = 1;
nodes = (
"301 475 LINE",
"406 475 OFFCURVE",
"461 410 OFFCURVE",
"461 294 CURVE SMOOTH",
"461 120 OFFCURVE",
"377 16 OFFCURVE",
"235 16 CURVE SMOOTH",
"133 16 OFFCURVE",
"79 81 OFFCURVE",
"79 200 CURVE SMOOTH",
"79 374 OFFCURVE",
"160 475 OFFCURVE",
"301 475 CURVE SMOOTH"
);
}
);
width = 527;
}
);
leftKerningGroup = C;
rightKerningGroup = D;
},
{
glyphname = r.sc;
lastChange = "2016-12-06 12:48:50 +0000";
layers = (
{
anchors = (
{
name = bottom;
position = "{209, 0}";
},
{
name = top;
position = "{258, 491}";
}
);
layerId = UUID0;
paths = (
{
closed = 1;
nodes = (
"141 491 LINE",
"146 473 LINE",
"255 474 LINE",
"324 470 OFFCURVE",
"361 435 OFFCURVE",
"361 373 CURVE SMOOTH",
"361 295 OFFCURVE",
"315 241 OFFCURVE",
"235 221 CURVE",
"117 222 LINE",
"114 201 LINE",
"234 201 LINE",
"328 223 OFFCURVE",
"382 287 OFFCURVE",
"382 376 CURVE SMOOTH",
"382 450 OFFCURVE",
"333 492 OFFCURVE",
"251 492 CURVE"
);
},
{
closed = 1;
nodes = (
"161 491 LINE",
"141 491 LINE",
"98 150 LINE",
"79 0 LINE",
"99 0 LINE",
"118 151 LINE"
);
},
{
closed = 1;
nodes = (
"221 214 LINE",
"257 140 OFFCURVE",
"298 67 OFFCURVE",
"342 -3 CURVE",
"348 -6 LINE",
"353 -4 OFFCURVE",
"357 -2 OFFCURVE",
"363 1 CURVE",
"363 5 LINE",
"318 73 OFFCURVE",
"279 142 OFFCURVE",
"244 214 CURVE"
);
}
);
width = 450;
}
);
leftKerningGroup = B;
rightKerningGroup = R;
},
{
glyphname = s.sc;
lastChange = "2016-12-06 12:48:50 +0000";
layers = (
{
anchors = (
{
name = bottom;
position = "{182, 0}";
},
{
name = top;
position = "{222, 491}";
}
);
layerId = UUID0;
paths = (
{
closed = 1;
nodes = (
"240 493 LINE",
"150 493 OFFCURVE",
"88 432 OFFCURVE",
"88 363 CURVE SMOOTH",
"88 231 OFFCURVE",
"296 247 OFFCURVE",
"296 135 CURVE SMOOTH",
"296 77 OFFCURVE",
"240 17 OFFCURVE",
"158 17 CURVE SMOOTH",
"122 17 OFFCURVE",
"78 29 OFFCURVE",
"47 54 CURVE",
"42 53 LINE",
"40 33 LINE",
"71 9 OFFCURVE",
"117 -3 OFFCURVE",
"157 -3 CURVE SMOOTH",
"249 -3 OFFCURVE",
"316 61 OFFCURVE",
"316 134 CURVE SMOOTH",
"316 268 OFFCURVE",
"108 251 OFFCURVE",
"108 362 CURVE SMOOTH",
"108 417 OFFCURVE",
"158 473 OFFCURVE",
"239 473 CURVE SMOOTH",
"264 473 OFFCURVE",
"296 468 OFFCURVE",
"325 452 CURVE",
"331 453 LINE",
"338 471 LINE",
"302 488 OFFCURVE",
"266 493 OFFCURVE",
"240 493 CURVE SMOOTH"
);
}
);
width = 387;
}
);
leftKerningGroup = S;
rightKerningGroup = S;
},
{
glyphname = germandbls.sc;
lastChange = "2016-12-06 12:48:50 +0000";
layers = (
{
layerId = UUID0;
paths = (
{
closed = 1;
nodes = (
"295 493 LINE",
"193 493 OFFCURVE",
"115 429 OFFCURVE",
"102 333 CURVE SMOOTH",
"79 146 LINE",
"60 0 LINE",
"80 0 LINE",
"100 151 LINE",
"122 333 LINE SMOOTH",
"133 418 OFFCURVE",
"201 474 OFFCURVE",
"292 474 CURVE SMOOTH",
"335 474 OFFCURVE",
"377 464 OFFCURVE",
"422 440 CURVE",
"249 262 LINE",
"251 250 LINE",
"358 239 OFFCURVE",
"423 203 OFFCURVE",
"423 137 CURVE SMOOTH",
"423 71 OFFCURVE",
"365 16 OFFCURVE",
"287 16 CURVE SMOOTH",
"252 16 OFFCURVE",
"205 28 OFFCURVE",
"175 53 CURVE",
"171 52 LINE",
"165 33 LINE",
"197 9 OFFCURVE",
"245 -3 OFFCURVE",
"285 -3 CURVE SMOOTH",
"372 -3 OFFCURVE",
"443 57 OFFCURVE",
"443 140 CURVE SMOOTH",
"443 212 OFFCURVE",
"383 252 OFFCURVE",
"281 268 CURVE",
"449 442 LINE",
"447 451 LINE",
"391 480 OFFCURVE",
"344 493 OFFCURVE",
"295 493 CURVE SMOOTH"
);
}
);
width = 508;
}
);
leftKerningGroup = uni1E9E;
rightKerningGroup = uni1E9E;
},
{
glyphname = t.sc;
lastChange = "2016-12-06 12:48:50 +0000";
layers = (
{
anchors = (
{
name = bottom;
position = "{176, 0}";
},
{
name = center;
position = "{223, 246}";
},
{
name = top;
position = "{238, 491}";
}
);
layerId = UUID0;
paths = (
{
closed = 1;
nodes = (
"249 483 LINE",
"229 483 LINE",
"187 150 LINE",
"168 0 LINE",
"188 0 LINE",
"207 151 LINE"
);
},
{
closed = 1;
nodes = (
"402 491 LINE",
"78 491 LINE",
"73 475 LINE",
"75 471 LINE",
"156 472 LINE",
"318 472 LINE",
"398 471 LINE",
"403 487 LINE"
);
}
);
width = 411;
}
);
leftKerningGroup = T;
rightKerningGroup = T;
},
{
glyphname = tbar.sc;
lastChange = "2016-12-06 12:48:50 +0000";
layers = (
{
anchors = (
{
name = bottom;
position = "{176, 0}";
},
{
name = center;
position = "{223, 246}";
},
{
name = top;
position = "{238, 491}";
}
);
layerId = UUID0;
paths = (
{
closed = 1;
nodes = (
"314 260 LINE",
"103 260 LINE",
"99 243 LINE",
"101 240 LINE",
"312 240 LINE",
"316 257 LINE"
);
},
{
closed = 1;
nodes = (
"249 483 LINE",
"229 483 LINE",
"187 150 LINE",
"168 0 LINE",
"188 0 LINE",
"207 151 LINE"
);
},
{
closed = 1;
nodes = (
"402 491 LINE",
"78 491 LINE",
"73 475 LINE",
"75 471 LINE",
"156 472 LINE",
"318 472 LINE",
"398 471 LINE",
"403 487 LINE"
);
}
);
width = 409;
}
);
leftKerningGroup = T;
rightKerningGroup = T;
},
{
glyphname = u.sc;
lastChange = "2016-12-06 12:48:50 +0000";
layers = (
{
anchors = (
{
name = bottom;
position = "{231, 0}";
},
{
name = ogonek;
position = "{340, 27}";
},
{
name = top;
position = "{292, 491}";
},
{
name = topright;
position = "{532, 491}";
}
);
layerId = UUID0;
paths = (
{
closed = 1;
nodes = (
"468 491 LINE",
"448 491 LINE",
"408 177 LINE SMOOTH",
"395 73 OFFCURVE",
"334 16 OFFCURVE",
"235 16 CURVE SMOOTH",
"147 16 OFFCURVE",
"100 61 OFFCURVE",
"100 143 CURVE SMOOTH",
"100 154 OFFCURVE",
"100 165 OFFCURVE",
"102 177 CURVE SMOOTH",
"144 491 LINE",
"123 491 LINE",
"93 248 LINE",
"82 176 LINE SMOOTH",
"80 163 OFFCURVE",
"79 150 OFFCURVE",
"79 139 CURVE SMOOTH",
"79 47 OFFCURVE",
"135 -3 OFFCURVE",
"234 -3 CURVE SMOOTH",
"346 -3 OFFCURVE",
"416 63 OFFCURVE",
"428 176 CURVE",
"436 240 LINE"
);
}
);
width = 522;
}
);
leftKerningGroup = U;
rightKerningGroup = U;
},
{
glyphname = uhorn.sc;
lastChange = "2016-12-06 12:48:50 +0000";
layers = (
{
anchors = (
{
name = bottom;
position = "{235, 0}";
},
{
name = ogonek;
position = "{440, 10}";
},
{
name = top;
position = "{291, 491}";
}
);
layerId = UUID0;
paths = (
{
closed = 1;
nodes = (
"510 587 LINE",
"507 587 OFFCURVE",
"503 586 OFFCURVE",
"497 582 CURVE",
"495 578 LINE",
"511 561 OFFCURVE",
"516 548 OFFCURVE",
"516 535 CURVE SMOOTH",
"516 509 OFFCURVE",
"493 491 OFFCURVE",
"457 491 CURVE",
"456 473 LINE",
"501 474 OFFCURVE",
"536 500 OFFCURVE",
"536 538 CURVE SMOOTH",
"536 566 OFFCURVE",
"518 587 OFFCURVE",
"510 587 CURVE SMOOTH"
);
},
{
closed = 1;
nodes = (
"468 491 LINE",
"448 491 LINE",
"408 177 LINE SMOOTH",
"395 73 OFFCURVE",
"334 16 OFFCURVE",
"235 16 CURVE SMOOTH",
"147 16 OFFCURVE",
"100 61 OFFCURVE",
"100 143 CURVE SMOOTH",
"100 154 OFFCURVE",
"100 165 OFFCURVE",
"102 177 CURVE SMOOTH",
"144 491 LINE",
"123 491 LINE",
"93 248 LINE",
"82 176 LINE SMOOTH",
"80 163 OFFCURVE",
"79 150 OFFCURVE",
"79 139 CURVE SMOOTH",
"79 47 OFFCURVE",
"135 -3 OFFCURVE",
"234 -3 CURVE SMOOTH",
"346 -3 OFFCURVE",
"416 63 OFFCURVE",
"428 176 CURVE",
"436 240 LINE"
);
}
);
width = 530;
}
);
leftKerningGroup = U;
rightKerningGroup = Uhorn;
},
{
glyphname = v.sc;
lastChange = "2016-12-06 12:48:50 +0000";
layers = (
{
layerId = UUID0;
paths = (
{
closed = 1;
nodes = (
"466 491 LINE",
"443 491 LINE",
"426 456 LINE",
"201 30 LINE",
"199 30 LINE",
"96 456 LINE",
"91 491 LINE",
"68 491 LINE",
"186 0 LINE",
"207 0 LINE"
);
}
);
width = 460;
}
);
leftKerningGroup = V;
rightKerningGroup = V;
},
{
glyphname = w.sc;
lastChange = "2016-12-06 12:48:50 +0000";
layers = (
{
anchors = (
{
name = top;
position = "{375, 491}";
}
);
layerId = UUID0;
paths = (
{
closed = 1;
nodes = (
"733 491 LINE",
"711 491 LINE",
"695 456 LINE",
"475 31 LINE",
"471 31 LINE",
"371 455 LINE",
"365 491 LINE",
"343 491 LINE",
"373 363 LINE",
"201 31 LINE",
"199 31 LINE",
"98 456 LINE",
"94 491 LINE",
"71 491 LINE",
"186 0 LINE",
"207 0 LINE",
"377 331 LINE",
"380 331 LINE",
"460 0 LINE",
"481 0 LINE"
);
}
);
width = 728;
}
);
leftKerningGroup = w.sc;
rightKerningGroup = w.sc;
},
{
glyphname = x.sc;
lastChange = "2016-12-06 12:48:50 +0000";
layers = (
{
layerId = UUID0;
paths = (
{
closed = 1;
nodes = (
"449 491 LINE",
"421 491 LINE",
"398 459 LINE",
"242 271 LINE",
"132 463 LINE",
"118 491 LINE",
"91 491 LINE",
"227 257 LINE",
"18 0 LINE",
"45 0 LINE",
"66 29 LINE",
"238 237 LINE",
"359 30 LINE",
"375 0 LINE",
"400 0 LINE",
"253 252 LINE"
);
}
);
width = 483;
}
);
leftKerningGroup = X;
rightKerningGroup = K;
},
{
glyphname = y.sc;
lastChange = "2016-12-06 12:48:50 +0000";
layers = (
{
anchors = (
{
name = bottom;
position = "{184, 0}";
},
{
name = top;
position = "{246, 491}";
},
{
name = topleft;
position = "{50, 491}";
}
);
layerId = UUID0;
paths = (
{
closed = 1;
nodes = (
"421 491 LINE",
"396 491 LINE",
"384 470 LINE",
"208 217 LINE",
"204 217 LINE",
"104 470 LINE",
"98 491 LINE",
"73 491 LINE",
"198 176 LINE",
"206 176 LINE"
);
},
{
closed = 1;
nodes = (
"215 206 LINE",
"195 206 LINE",
"188 149 LINE",
"168 0 LINE",
"188 0 LINE",
"208 149 LINE"
);
}
);
width = 428;
}
);
leftKerningGroup = Y;
rightKerningGroup = Y;
},
{
glyphname = z.sc;
lastChange = "2016-12-06 12:48:50 +0000";
layers = (
{
anchors = (
{
name = bottom;
position = "{188, 0}";
},
{
name = top;
position = "{249, 491}";
}
);
layerId = UUID0;
paths = (
{
closed = 1;
nodes = (
"415 492 LINE",
"385 491 LINE",
"149 491 LINE",
"96 492 LINE",
"91 475 LINE",
"94 471 LINE",
"141 472 LINE",
"386 472 LINE",
"19 16 LINE",
"17 -1 LINE",
"47 0 LINE",
"292 0 LINE",
"352 0 LINE",
"357 16 LINE",
"354 20 LINE",
"298 19 LINE",
"46 19 LINE",
"412 474 LINE"
);
}
);
width = 436;
}
);
leftKerningGroup = Z;
rightKerningGroup = Z;
},
{
glyphname = Gamma;
lastChange = "2016-12-06 12:48:41 +0000";
layers = (
{
layerId = UUID0;
paths = (
{
closed = 1;
nodes = (
"178 637 LINE",
"158 637 LINE",
"104 195 LINE",
"80 0 LINE",
"100 0 LINE",
"124 195 LINE"
);
},
{
closed = 1;
nodes = (
"436 637 LINE",
"170 637 LINE",
"164 621 LINE",
"168 617 LINE",
"302 617 LINE",
"433 617 LINE",
"439 633 LINE"
);
}
);
width = 394;
}
);
leftKerningGroup = B;
rightKerningGroup = Gamma;
unicode = 0393;
},
{
color = 0;
glyphname = Theta;
lastChange = "2016-12-06 12:48:41 +0000";
layers = (
{
layerId = UUID0;
paths = (
{
closed = 1;
nodes = (
"176 303 LINE",
"474 313 LINE",
"478 330 LINE",
"476 333 LINE",
"177 323 LINE",
"173 306 LINE"
);
},
{
closed = 1;
nodes = (
"371 642 LINE",
"171 642 OFFCURVE",
"56 498 OFFCURVE",
"56 258 CURVE SMOOTH",
"56 90 OFFCURVE",
"135 -5 OFFCURVE",
"281 -5 CURVE SMOOTH",
"482 -5 OFFCURVE",
"598 144 OFFCURVE",
"598 385 CURVE SMOOTH",
"598 549 OFFCURVE",
"518 642 OFFCURVE",
"371 642 CURVE"
);
},
{
closed = 1;
nodes = (
"368 622 LINE",
"504 622 OFFCURVE",
"577 535 OFFCURVE",
"577 382 CURVE SMOOTH",
"577 155 OFFCURVE",
"469 15 OFFCURVE",
"284 15 CURVE SMOOTH",
"149 15 OFFCURVE",
"76 104 OFFCURVE",
"76 261 CURVE SMOOTH",
"76 486 OFFCURVE",
"183 622 OFFCURVE",
"368 622 CURVE SMOOTH"
);
}
);
width = 630;
}
);
leftKerningGroup = C;
rightKerningGroup = D;
unicode = 0398;
},
{
color = 0;
glyphname = Lambda;
lastChange = "2016-12-06 12:48:41 +0000";
layers = (
{
background = {
paths = (
{
closed = 1;
nodes = (
"340 637 LINE",
"320 637 LINE",
"-8 0 LINE",
"16 0 LINE",
"35 43 LINE",
"323 603 LINE",
"327 603 LINE",
"460 43 LINE",
"468 0 LINE",
"491 0 LINE"
);
}
);
};
layerId = UUID0;
paths = (
{
closed = 1;
nodes = (
"321 637 LINE",
"300 637 LINE",
"-8 0 LINE",
"16 0 LINE",
"35 43 LINE",
"304 603 LINE",
"307 603 LINE",
"428 43 LINE",
"434 0 LINE",
"457 0 LINE"
);
}
);
width = 511;
}
);
unicode = 039B;
},
{
color = 0;
glyphname = Xi;
lastChange = "2016-12-06 12:48:41 +0000";
layers = (
{
background = {
paths = (
{
closed = 1;
nodes = (
"51 0 LINE",
"438 0 LINE",
"445 18 LINE",
"441 22 LINE",
"240 22 LINE",
"52 22 LINE",
"49 18 LINE"
);
},
{
closed = 1;
nodes = (
"128 319 LINE",
"264 320 LINE",
"434 319 LINE",
"440 337 LINE",
"438 341 LINE",
"280 341 LINE",
"132 341 LINE",
"125 323 LINE"
);
},
{
closed = 1;
nodes = (
"129 615 LINE",
"309 615 LINE",
"510 615 LINE",
"517 633 LINE",
"514 637 LINE",
"133 637 LINE",
"127 619 LINE"
);
}
);
};
layerId = UUID0;
paths = (
{
closed = 1;
nodes = (
"25 0 LINE",
"397 0 LINE",
"404 18 LINE",
"400 22 LINE",
"209 22 LINE",
"26 22 LINE",
"23 18 LINE"
);
},
{
closed = 1;
nodes = (
"102 319 LINE",
"233 320 LINE",
"393 319 LINE",
"399 337 LINE",
"397 341 LINE",
"249 341 LINE",
"106 341 LINE",
"99 323 LINE"
);
},
{
closed = 1;
nodes = (
"103 615 LINE",
"278 615 LINE",
"469 615 LINE",
"476 633 LINE",
"473 637 LINE",
"107 637 LINE",
"101 619 LINE"
);
}
);
width = 455;
}
);
leftKerningGroup = Xi;
rightKerningGroup = AE;
unicode = 039E;
},
{
color = 0;
glyphname = Pi;
lastChange = "2016-12-06 12:48:41 +0000";
layers = (
{
layerId = UUID0;
paths = (
{
closed = 1;
nodes = (
"469 0 LINE",
"489 0 LINE",
"513 195 LINE",
"567 637 LINE",
"547 637 LINE",
"493 195 LINE"
);
},
{
closed = 1;
nodes = (
"80 0 LINE",
"100 0 LINE",
"124 195 LINE",
"178 637 LINE",
"158 637 LINE",
"104 195 LINE"
);
},
{
closed = 1;
nodes = (
"170 617 LINE",
"349 617 LINE",
"554 617 LINE",
"556 637 LINE",
"172 637 LINE"
);
}
);
width = 622;
}
);
leftKerningGroup = B;
rightKerningGroup = H;
unicode = 03A0;
},
{
color = 0;
glyphname = Sigma;
lastChange = "2016-12-06 12:48:41 +0000";
layers = (
{
background = {
paths = (
{
closed = 1;
nodes = (
"502 638 LINE",
"441 637 LINE",
"183 637 LINE",
"111 637 LINE",
"109 619 LINE",
"279 328 LINE",
"26 18 LINE",
"24 0 LINE",
"90 0 LINE",
"343 0 LINE",
"417 0 LINE",
"422 16 LINE",
"419 21 LINE",
"349 20 LINE",
"52 20 LINE",
"301 325 LINE",
"302 332 LINE",
"135 617 LINE",
"439 617 LINE",
"501 616 LINE",
"506 633 LINE"
);
}
);
};
layerId = UUID0;
paths = (
{
closed = 1;
nodes = (
"477 638 LINE",
"416 637 LINE",
"183 637 LINE",
"111 637 LINE",
"109 619 LINE",
"267 329 LINE",
"26 18 LINE",
"24 0 LINE",
"90 0 LINE",
"318 0 LINE",
"392 0 LINE",
"397 16 LINE",
"394 21 LINE",
"324 20 LINE",
"52 20 LINE",
"288 325 LINE",
"289 331 LINE",
"133 617 LINE",
"414 617 LINE",
"476 616 LINE",
"481 633 LINE"
);
}
);
width = 495;
}
);
leftKerningGroup = X;
rightKerningGroup = AE;
unicode = 03A3;
},
{
color = 0;
glyphname = Phi;
lastChange = "2016-12-06 12:48:41 +0000";
layers = (
{
background = {
paths = (
{
closed = 1;
nodes = (
"543 53 OFFCURVE",
"671 172 OFFCURVE",
"671 362 CURVE SMOOTH",
"671 502 OFFCURVE",
"581 583 OFFCURVE",
"406 583 CURVE SMOOTH",
"190 583 OFFCURVE",
"67 469 OFFCURVE",
"67 281 CURVE SMOOTH",
"67 137 OFFCURVE",
"159 53 OFFCURVE",
"330 53 CURVE SMOOTH"
);
},
{
closed = 1;
nodes = (
"173 73 OFFCURVE",
"87 151 OFFCURVE",
"87 284 CURVE SMOOTH",
"87 457 OFFCURVE",
"202 563 OFFCURVE",
"404 563 CURVE SMOOTH",
"567 563 OFFCURVE",
"650 488 OFFCURVE",
"650 359 CURVE SMOOTH",
"650 184 OFFCURVE",
"531 73 OFFCURVE",
"333 73 CURVE SMOOTH"
);
},
{
closed = 1;
nodes = (
"318 -12 LINE",
"338 -12 LINE",
"364 195 LINE",
"420 649 LINE",
"400 649 LINE",
"344 195 LINE"
);
}
);
};
layerId = UUID0;
paths = (
{
closed = 1;
nodes = (
"333 73 LINE",
"173 73 OFFCURVE",
"102 152 OFFCURVE",
"102 286 CURVE SMOOTH",
"102 456 OFFCURVE",
"222 563 OFFCURVE",
"404 563 CURVE",
"564 563 OFFCURVE",
"635 484 OFFCURVE",
"635 350 CURVE SMOOTH",
"635 180 OFFCURVE",
"515 73 OFFCURVE",
"333 73 CURVE"
);
},
{
closed = 1;
nodes = (
"318 -12 LINE",
"338 -12 LINE",
"364 195 LINE",
"420 649 LINE",
"400 649 LINE",
"344 195 LINE"
);
},
{
closed = 1;
nodes = (
"331 53 LINE",
"527 53 OFFCURVE",
"655 165 OFFCURVE",
"655 353 CURVE SMOOTH",
"655 497 OFFCURVE",
"577 583 OFFCURVE",
"406 583 CURVE",
"210 583 OFFCURVE",
"82 471 OFFCURVE",
"82 283 CURVE SMOOTH",
"82 139 OFFCURVE",
"160 53 OFFCURVE",
"331 53 CURVE"
);
}
);
width = 715;
}
);
leftKerningGroup = C;
rightKerningGroup = D;
unicode = 03A6;
},
{
color = 0;
glyphname = Psi;
lastChange = "2016-12-06 12:48:41 +0000";
layers = (
{
background = {
paths = (
{
closed = 1;
nodes = (
"398 637 LINE",
"379 637 LINE",
"325 195 LINE",
"301 0 LINE",
"320 0 LINE",
"344 195 LINE"
);
},
{
closed = 1;
nodes = (
"642 637 LINE",
"622 637 LINE",
"588 359 LINE SMOOTH",
"571 222 OFFCURVE",
"479 151 OFFCURVE",
"329 151 CURVE SMOOTH",
"177 151 OFFCURVE",
"104 222 OFFCURVE",
"121 359 CURVE SMOOTH",
"155 637 LINE",
"135 637 LINE",
"112 452 LINE",
"101 359 LINE SMOOTH",
"83 209 OFFCURVE",
"162 131 OFFCURVE",
"327 131 CURVE SMOOTH",
"490 131 OFFCURVE",
"594 212 OFFCURVE",
"608 359 CURVE",
"618 442 LINE"
);
}
);
};
layerId = UUID0;
paths = (
{
closed = 1;
nodes = (
"388 637 LINE",
"369 637 LINE",
"314 195 LINE",
"289 0 LINE",
"309 0 LINE",
"333 195 LINE"
);
},
{
closed = 1;
nodes = (
"619 637 LINE",
"599 637 LINE",
"563 353 LINE SMOOTH",
"547 216 OFFCURVE",
"482 151 OFFCURVE",
"332 151 CURVE SMOOTH",
"180 151 OFFCURVE",
"107 235 OFFCURVE",
"123 362 CURVE SMOOTH",
"158 637 LINE",
"138 637 LINE",
"115 455 LINE",
"103 362 LINE SMOOTH",
"85 222 OFFCURVE",
"164 131 OFFCURVE",
"329 131 CURVE SMOOTH",
"492 131 OFFCURVE",
"569 206 OFFCURVE",
"583 353 CURVE",
"594 436 LINE"
);
}
);
width = 651;
}
);
leftKerningGroup = Psi;
rightKerningGroup = Psi;
unicode = 03A8;
},
{
glyphname = alpha;
lastChange = "2016-12-06 12:48:41 +0000";
layers = (
{
anchors = (
{
name = bottom;
position = "{208, 0}";
},
{
name = top;
position = "{273, 452}";
}
);
layerId = UUID0;
paths = (
{
closed = 1;
nodes = (
"106 -4 LINE",
"176 59 OFFCURVE",
"248 157 OFFCURVE",
"308 271 CURVE",
"313 271 LINE",
"331 355 LINE",
"272 222 OFFCURVE",
"134 24 OFFCURVE",
"101 24 CURVE SMOOTH",
"80 24 OFFCURVE",
"63 77 OFFCURVE",
"63 141 CURVE SMOOTH",
"63 308 OFFCURVE",
"152 434 OFFCURVE",
"272 437 CURVE",
"338 398 LINE",
"340 417 LINE",
"276 457 LINE",
"272 457 LINE",
"135 448 OFFCURVE",
"43 321 OFFCURVE",
"43 137 CURVE SMOOTH",
"43 62 OFFCURVE",
"57 24 OFFCURVE",
"95 -4 CURVE"
);
},
{
closed = 1;
nodes = (
"178 167 LINE"
);
},
{
closed = 1;
nodes = (
"276 -4 LINE",
"303 0 LINE",
"310 106 LINE",
"356 456 LINE",
"337 453 LINE"
);
}
);
width = 414;
}
);
leftKerningGroup = alpha;
rightKerningGroup = alpha;
unicode = 03B1;
},
{
glyphname = beta;
lastChange = "2016-12-06 12:48:41 +0000";
layers = (
{
layerId = UUID0;
paths = (
{
closed = 1;
nodes = (
"40 -189 LINE",
"65 -185 LINE",
"74 -79 LINE",
"145 471 LINE SMOOTH",
"164 614 OFFCURVE",
"214 684 OFFCURVE",
"302 684 CURVE SMOOTH",
"359 684 OFFCURVE",
"389 653 OFFCURVE",
"389 595 CURVE SMOOTH",
"389 504 OFFCURVE",
"314 419 OFFCURVE",
"194 374 CURVE",
"192 357 LINE",
"194 354 LINE",
"309 354 OFFCURVE",
"366 305 OFFCURVE",
"366 207 CURVE SMOOTH",
"366 98 OFFCURVE",
"301 17 OFFCURVE",
"212 17 CURVE SMOOTH",
"163 17 OFFCURVE",
"121 42 OFFCURVE",
"90 93 CURVE",
"87 63 LINE",
"117 19 OFFCURVE",
"158 -3 OFFCURVE",
"211 -3 CURVE SMOOTH",
"313 -3 OFFCURVE",
"386 84 OFFCURVE",
"386 207 CURVE SMOOTH",
"386 314 OFFCURVE",
"329 366 OFFCURVE",
"214 371 CURVE",
"214 361 LINE",
"337 415 OFFCURVE",
"409 502 OFFCURVE",
"409 598 CURVE SMOOTH",
"409 666 OFFCURVE",
"371 704 OFFCURVE",
"302 704 CURVE SMOOTH",
"204 704 OFFCURVE",
"147 628 OFFCURVE",
"126 469 CURVE SMOOTH"
);
}
);
width = 436;
}
);
leftKerningGroup = b;
rightKerningGroup = beta;
unicode = 03B2;
},
{
glyphname = gamma;
lastChange = "2016-12-06 12:48:41 +0000";
layers = (
{
background = {
paths = (
{
closed = 1;
nodes = (
"295 449 LINE",
"294 444 LINE",
"311 421 OFFCURVE",
"322 399 OFFCURVE",
"322 374 CURVE SMOOTH",
"322 344 OFFCURVE",
"309 309 OFFCURVE",
"284 268 CURVE SMOOTH",
"135 30 LINE",
"132 30 LINE",
"96 382 LINE",
"90 456 LINE",
"67 450 LINE",
"119 -21 LINE",
"124 -21 LINE",
"301 258 LINE SMOOTH",
"328 301 OFFCURVE",
"342 339 OFFCURVE",
"342 373 CURVE SMOOTH",
"342 402 OFFCURVE",
"332 428 OFFCURVE",
"313 455 CURVE"
);
},
{
closed = 1;
nodes = (
"139 14 LINE",
"119 14 LINE",
"93 -189 LINE",
"118 -185 LINE",
"127 -79 LINE"
);
}
);
};
layerId = UUID0;
paths = (
{
closed = 1;
nodes = (
"295 449 LINE",
"294 444 LINE",
"311 421 OFFCURVE",
"322 399 OFFCURVE",
"322 374 CURVE SMOOTH",
"322 344 OFFCURVE",
"309 309 OFFCURVE",
"284 268 CURVE SMOOTH",
"135 30 LINE",
"132 30 LINE",
"96 382 LINE",
"90 456 LINE",
"67 450 LINE",
"119 -21 LINE",
"124 -21 LINE",
"301 258 LINE SMOOTH",
"328 301 OFFCURVE",
"342 339 OFFCURVE",
"342 373 CURVE SMOOTH",
"342 402 OFFCURVE",
"332 428 OFFCURVE",
"313 455 CURVE"
);
},
{
closed = 1;
nodes = (
"139 14 LINE",
"119 14 LINE",
"93 -189 LINE",
"118 -185 LINE",
"127 -79 LINE"
);
}
);
width = 358;
}
);
leftKerningGroup = gamma;
rightKerningGroup = gamma;
unicode = 03B3;
},
{
glyphname = delta;
lastChange = "2016-12-06 12:48:41 +0000";
layers = (
{
layerId = UUID0;
paths = (
{
closed = 1;
nodes = (
"155 -5 LINE",
"260 -5 OFFCURVE",
"338 113 OFFCURVE",
"338 274 CURVE SMOOTH",
"338 488 OFFCURVE",
"166 486 OFFCURVE",
"166 592 CURVE SMOOTH",
"166 647 OFFCURVE",
"212 685 OFFCURVE",
"279 685 CURVE SMOOTH",
"306 685 OFFCURVE",
"330 679 OFFCURVE",
"355 665 CURVE",
"360 666 LINE",
"367 684 LINE",
"340 698 OFFCURVE",
"313 705 OFFCURVE",
"282 705 CURVE SMOOTH",
"202 705 OFFCURVE",
"147 658 OFFCURVE",
"147 590 CURVE SMOOTH",
"147 470 OFFCURVE",
"318 479 OFFCURVE",
"318 271 CURVE SMOOTH",
"318 124 OFFCURVE",
"249 15 OFFCURVE",
"157 15 CURVE SMOOTH",
"97 15 OFFCURVE",
"65 64 OFFCURVE",
"65 154 CURVE SMOOTH",
"65 323 OFFCURVE",
"136 426 OFFCURVE",
"270 446 CURVE",
"239 472 LINE",
"233 457 LINE",
"115 430 OFFCURVE",
"45 317 OFFCURVE",
"45 154 CURVE SMOOTH",
"45 51 OFFCURVE",
"83 -5 OFFCURVE",
"155 -5 CURVE SMOOTH"
);
}
);
width = 386;
}
);
leftKerningGroup = a;
rightKerningGroup = delta;
unicode = 03B4;
},
{
color = 0;
glyphname = epsilon;
lastChange = "2016-12-06 12:48:41 +0000";
layers = (
{
anchors = (
{
name = top;
position = "{201, 452}";
}
);
background = {
paths = (
{
closed = 1;
nodes = (
"216 1 OFFCURVE",
"250 22 OFFCURVE",
"294 78 CURVE",
"286 89 LINE",
"280 89 LINE",
"241 40 OFFCURVE",
"200 16 OFFCURVE",
"154 16 CURVE SMOOTH",
"97 16 OFFCURVE",
"57 55 OFFCURVE",
"57 112 CURVE SMOOTH",
"57 177 OFFCURVE",
"106 225 OFFCURVE",
"171 225 CURVE SMOOTH",
"258 225 LINE",
"263 241 LINE",
"260 245 LINE",
"162 245 LINE",
"125 261 OFFCURVE",
"99 295 OFFCURVE",
"99 333 CURVE SMOOTH",
"99 391 OFFCURVE",
"154 437 OFFCURVE",
"219 437 CURVE SMOOTH",
"254 437 OFFCURVE",
"286 425 OFFCURVE",
"319 401 CURVE",
"324 404 LINE",
"330 419 LINE",
"283 447 OFFCURVE",
"259 456 OFFCURVE",
"225 456 CURVE SMOOTH",
"142 456 OFFCURVE",
"79 405 OFFCURVE",
"79 334 CURVE SMOOTH",
"79 289 OFFCURVE",
"103 253 OFFCURVE",
"144 235 CURVE",
"144 239 LINE",
"79 228 OFFCURVE",
"37 177 OFFCURVE",
"37 109 CURVE SMOOTH",
"37 38 OFFCURVE",
"84 -5 OFFCURVE",
"158 -5 CURVE"
);
}
);
};
layerId = UUID0;
paths = (
{
closed = 1;
nodes = (
"148 -5 LINE SMOOTH",
"206 -5 OFFCURVE",
"250 22 OFFCURVE",
"294 78 CURVE",
"286 89 LINE",
"280 89 LINE",
"241 40 OFFCURVE",
"200 16 OFFCURVE",
"154 16 CURVE SMOOTH",
"97 16 OFFCURVE",
"57 55 OFFCURVE",
"57 112 CURVE SMOOTH",
"57 177 OFFCURVE",
"124 225 OFFCURVE",
"189 225 CURVE SMOOTH",
"258 225 LINE",
"263 241 LINE",
"260 245 LINE",
"182 245 LINE",
"135 260 OFFCURVE",
"99 294 OFFCURVE",
"99 336 CURVE SMOOTH",
"99 394 OFFCURVE",
"144 437 OFFCURVE",
"209 437 CURVE SMOOTH",
"234 437 OFFCURVE",
"286 425 OFFCURVE",
"319 401 CURVE",
"324 404 LINE",
"330 419 LINE",
"283 447 OFFCURVE",
"239 456 OFFCURVE",
"215 456 CURVE SMOOTH",
"132 456 OFFCURVE",
"79 408 OFFCURVE",
"79 337 CURVE SMOOTH",
"79 292 OFFCURVE",
"110 253 OFFCURVE",
"164 235 CURVE",
"164 239 LINE",
"95 228 OFFCURVE",
"37 179 OFFCURVE",
"37 109 CURVE SMOOTH",
"37 38 OFFCURVE",
"89 -5 OFFCURVE",
"148 -5 CURVE SMOOTH"
);
}
);
width = 347;
}
);
leftKerningGroup = epsilon;
rightKerningGroup = epsilon;
unicode = 03B5;
},
{
color = 0;
glyphname = zeta;
lastChange = "2016-12-06 12:48:41 +0000";
layers = (
{
background = {
paths = (
{
closed = 1;
nodes = (
"139 -156 LINE",
"246 -114 OFFCURVE",
"285 -79 OFFCURVE",
"285 -24 CURVE SMOOTH",
"285 3 OFFCURVE",
"272 25 OFFCURVE",
"233 35 CURVE SMOOTH",
"142 58 LINE SMOOTH",
"77 75 OFFCURVE",
"51 106 OFFCURVE",
"51 161 CURVE SMOOTH",
"51 260 OFFCURVE",
"140 389 OFFCURVE",
"399 683 CURVE",
"403 701 LINE",
"365 700 LINE",
"199 700 LINE",
"133 701 LINE",
"127 684 LINE",
"130 679 LINE",
"190 680 LINE",
"371 680 LINE",
"121 399 OFFCURVE",
"31 264 OFFCURVE",
"31 158 CURVE SMOOTH",
"31 94 OFFCURVE",
"59 56 OFFCURVE",
"129 39 CURVE SMOOTH",
"225 15 LINE SMOOTH",
"253 8 OFFCURVE",
"265 -7 OFFCURVE",
"265 -28 CURVE SMOOTH",
"265 -70 OFFCURVE",
"229 -100 OFFCURVE",
"135 -136 CURVE",
"134 -140 LINE"
);
}
);
};
layerId = UUID0;
paths = (
{
closed = 1;
nodes = (
"263 -36 LINE",
"263 -82 OFFCURVE",
"221 -120 OFFCURVE",
"132 -153 CURVE",
"131 -157 LINE",
"134 -173 LINE",
"233 -137 OFFCURVE",
"283 -91 OFFCURVE",
"283 -36 CURVE SMOOTH",
"283 -9 OFFCURVE",
"270 15 OFFCURVE",
"231 25 CURVE SMOOTH",
"140 48 LINE SMOOTH",
"75 65 OFFCURVE",
"51 106 OFFCURVE",
"51 161 CURVE SMOOTH",
"51 260 OFFCURVE",
"140 389 OFFCURVE",
"399 683 CURVE",
"403 701 LINE",
"365 700 LINE",
"199 700 LINE",
"133 701 LINE",
"127 684 LINE",
"130 679 LINE",
"190 680 LINE",
"371 680 LINE",
"121 399 OFFCURVE",
"31 264 OFFCURVE",
"31 158 CURVE SMOOTH",
"31 94 OFFCURVE",
"57 46 OFFCURVE",
"127 29 CURVE SMOOTH",
"223 5 LINE SMOOTH",
"251 -2 OFFCURVE",
"263 -18 OFFCURVE",
"263 -36 CURVE"
);
}
);
width = 326;
}
);
leftKerningGroup = zeta;
rightKerningGroup = zeta;
unicode = 03B6;
},
{
glyphname = eta;
lastChange = "2016-12-06 12:48:41 +0000";
layers = (
{
anchors = (
{
name = bottom;
position = "{72, 0}";
},
{
name = top;
position = "{272, 452}";
}
);
layerId = UUID0;
paths = (
{
closed = 1;
nodes = (
"320 462 LINE",
"250 416 OFFCURVE",
"185 319 OFFCURVE",
"107 184 CURVE",
"94 184 LINE",
"82 98 LINE",
"196 314 OFFCURVE",
"293 436 OFFCURVE",
"327 436 CURVE SMOOTH",
"344 436 OFFCURVE",
"362 410 OFFCURVE",
"361 376 CURVE",
"360 361 LINE",
"271 -189 LINE",
"296 -185 LINE",
"308 -84 LINE",
"381 364 LINE",
"382 377 LINE",
"384 419 OFFCURVE",
"362 453 OFFCURVE",
"331 462 CURVE"
);
},
{
closed = 1;
nodes = (
"138 456 LINE",
"113 452 LINE",
"106 362 LINE",
"58 -4 LINE",
"83 0 LINE",
"92 106 LINE"
);
}
);
width = 442;
}
);
leftKerningGroup = m;
rightKerningGroup = a;
unicode = 03B7;
},
{
glyphname = theta;
lastChange = "2016-12-06 12:48:41 +0000";
layers = (
{
layerId = UUID0;
paths = (
{
closed = 1;
nodes = (
"172 -8 LINE",
"289 -8 OFFCURVE",
"378 211 OFFCURVE",
"378 482 CURVE SMOOTH",
"378 620 OFFCURVE",
"345 707 OFFCURVE",
"281 707 CURVE SMOOTH",
"165 707 OFFCURVE",
"74 491 OFFCURVE",
"74 219 CURVE SMOOTH",
"74 79 OFFCURVE",
"108 -8 OFFCURVE",
"172 -8 CURVE SMOOTH"
);
},
{
closed = 1;
nodes = (
"174 12 LINE",
"122 12 OFFCURVE",
"94 92 OFFCURVE",
"94 219 CURVE SMOOTH",
"94 474 OFFCURVE",
"177 687 OFFCURVE",
"279 687 CURVE SMOOTH",
"331 687 OFFCURVE",
"358 606 OFFCURVE",
"358 480 CURVE SMOOTH",
"358 227 OFFCURVE",
"277 12 OFFCURVE",
"174 12 CURVE SMOOTH"
);
},
{
closed = 1;
nodes = (
"94 332 LINE",
"354 343 LINE",
"357 363 LINE",
"96 352 LINE"
);
}
);
width = 420;
}
);
leftKerningGroup = theta;
rightKerningGroup = theta;
unicode = 03B8;
},
{
glyphname = kappa;
lastChange = "2016-12-06 12:48:41 +0000";
layers = (
{
layerId = UUID0;
paths = (
{
closed = 1;
nodes = (
"315 -7 LINE",
"323 -5 OFFCURVE",
"327 -3 OFFCURVE",
"333 1 CURVE",
"334 5 LINE",
"272 75 OFFCURVE",
"183 174 OFFCURVE",
"128 246 CURVE",
"127 232 LINE",
"377 452 LINE",
"344 452 LINE",
"310 418 LINE",
"107 241 LINE",
"106 236 LINE",
"312 -6 LINE"
);
},
{
closed = 1;
nodes = (
"57 -4 LINE",
"84 0 LINE",
"91 106 LINE",
"137 456 LINE",
"112 452 LINE",
"106 362 LINE"
);
}
);
width = 381;
}
);
leftKerningGroup = m;
rightKerningGroup = x;
unicode = 03BA;
},
{
glyphname = lambda;
lastChange = "2016-12-06 12:48:41 +0000";
layers = (
{
layerId = UUID0;
paths = (
{
closed = 1;
nodes = (
"288 -2 LINE",
"297 -2 OFFCURVE",
"308 0 OFFCURVE",
"320 6 CURVE",
"327 24 LINE",
"323 27 LINE",
"292 10 OFFCURVE",
"280 16 OFFCURVE",
"276 49 CURVE SMOOTH",
"211 531 LINE SMOOTH",
"190 689 OFFCURVE",
"173 714 OFFCURVE",
"109 698 CURVE",
"104 681 LINE",
"104 677 LINE",
"159 691 OFFCURVE",
"173 669 OFFCURVE",
"192 527 CURVE SMOOTH",
"256 42 LINE SMOOTH",
"260 13 OFFCURVE",
"269 -2 OFFCURVE",
"288 -2 CURVE SMOOTH"
);
},
{
closed = 1;
nodes = (
"21 -2 LINE",
"39 44 LINE",
"205 413 LINE",
"218 413 LINE",
"208 467 LINE",
"-3 2 LINE"
);
}
);
width = 365;
}
);
leftKerningGroup = lambda;
rightKerningGroup = lambda;
unicode = 03BB;
},
{
color = 0;
glyphname = xi;
lastChange = "2016-12-06 12:48:41 +0000";
layers = (
{
background = {
paths = (
{
closed = 1;
nodes = (
"123 -173 LINE",
"222 -137 OFFCURVE",
"272 -91 OFFCURVE",
"272 -36 CURVE SMOOTH",
"272 -6 OFFCURVE",
"256 15 OFFCURVE",
"223 27 CURVE SMOOTH",
"159 51 LINE SMOOTH",
"94 75 OFFCURVE",
"62 121 OFFCURVE",
"62 185 CURVE SMOOTH",
"62 292 OFFCURVE",
"134 362 OFFCURVE",
"243 362 CURVE SMOOTH",
"306 362 LINE",
"310 376 LINE",
"308 382 LINE",
"231 382 LINE",
"161 409 OFFCURVE",
"123 458 OFFCURVE",
"123 524 CURVE SMOOTH",
"123 623 OFFCURVE",
"186 684 OFFCURVE",
"286 684 CURVE SMOOTH",
"317 684 OFFCURVE",
"345 675 OFFCURVE",
"369 658 CURVE",
"375 658 LINE",
"384 675 LINE",
"357 694 OFFCURVE",
"325 704 OFFCURVE",
"289 704 CURVE SMOOTH",
"173 704 OFFCURVE",
"102 634 OFFCURVE",
"102 520 CURVE SMOOTH",
"102 447 OFFCURVE",
"143 393 OFFCURVE",
"220 367 CURVE",
"244 378 LINE",
"118 378 OFFCURVE",
"42 303 OFFCURVE",
"42 180 CURVE SMOOTH",
"42 110 OFFCURVE",
"79 59 OFFCURVE",
"150 32 CURVE SMOOTH",
"217 7 LINE SMOOTH",
"241 -2 OFFCURVE",
"252 -17 OFFCURVE",
"252 -36 CURVE SMOOTH",
"252 -82 OFFCURVE",
"210 -120 OFFCURVE",
"121 -153 CURVE",
"120 -157 LINE"
);
}
);
};
layerId = UUID0;
paths = (
{
closed = 1;
nodes = (
"133 -173 LINE",
"232 -137 OFFCURVE",
"282 -91 OFFCURVE",
"282 -36 CURVE SMOOTH",
"282 -4 OFFCURVE",
"259 21 OFFCURVE",
"225 28 CURVE SMOOTH",
"159 41 LINE SMOOTH",
"91 54 OFFCURVE",
"62 91 OFFCURVE",
"62 155 CURVE SMOOTH",
"62 262 OFFCURVE",
"156 362 OFFCURVE",
"258 362 CURVE SMOOTH",
"316 362 LINE",
"320 376 LINE",
"318 382 LINE",
"251 382 LINE",
"179 401 OFFCURVE",
"130 435 OFFCURVE",
"130 506 CURVE SMOOTH",
"130 605 OFFCURVE",
"206 684 OFFCURVE",
"296 684 CURVE SMOOTH",
"327 684 OFFCURVE",
"355 675 OFFCURVE",
"379 658 CURVE",
"385 658 LINE",
"394 675 LINE",
"367 694 OFFCURVE",
"331 704 OFFCURVE",
"299 704 CURVE SMOOTH",
"194 704 OFFCURVE",
"109 616 OFFCURVE",
"109 505 CURVE SMOOTH",
"109 426 OFFCURVE",
"170 382 OFFCURVE",
"240 369 CURVE",
"256 378 LINE",
"143 378 OFFCURVE",
"42 273 OFFCURVE",
"42 150 CURVE SMOOTH",
"42 80 OFFCURVE",
"76 36 OFFCURVE",
"155 21 CURVE SMOOTH",
"222 8 LINE SMOOTH",
"247 3 OFFCURVE",
"262 -17 OFFCURVE",
"262 -36 CURVE SMOOTH",
"262 -82 OFFCURVE",
"220 -120 OFFCURVE",
"131 -153 CURVE",
"130 -157 LINE"
);
}
);
width = 330;
}
);
leftKerningGroup = xi;
rightKerningGroup = xi;
unicode = 03BE;
},
{
color = 0;
glyphname = pi;
lastChange = "2016-12-06 12:48:41 +0000";
layers = (
{
background = {
paths = (
{
closed = 1;
nodes = (
"410 1 OFFCURVE",
"430 18 OFFCURVE",
"467 69 CURVE",
"459 80 LINE",
"452 80 LINE",
"423 37 OFFCURVE",
"396 15 OFFCURVE",
"374 15 CURVE SMOOTH",
"349 15 OFFCURVE",
"334 34 OFFCURVE",
"334 67 CURVE",
"336 87 LINE",
"395 439 LINE",
"376 439 LINE",
"316 86 LINE",
"314 64 LINE",
"314 19 OFFCURVE",
"336 -5 OFFCURVE",
"378 -5 CURVE"
);
},
{
closed = 1;
nodes = (
"95 -4 LINE",
"122 0 LINE",
"131 106 LINE",
"180 442 LINE",
"162 439 LINE"
);
},
{
closed = 1;
nodes = (
"38 432 LINE",
"524 432 LINE",
"527 448 LINE",
"524 452 LINE",
"37 452 LINE",
"34 436 LINE"
);
}
);
};
layerId = UUID0;
paths = (
{
closed = 1;
nodes = (
"328 0 LINE",
"340 101 LINE",
"395 439 LINE",
"376 439 LINE",
"303 -4 LINE",
"328 0 LINE"
);
},
{
closed = 1;
nodes = (
"95 -4 LINE",
"122 0 LINE",
"131 106 LINE",
"180 442 LINE",
"162 439 LINE"
);
},
{
closed = 1;
nodes = (
"68 432 LINE",
"484 432 LINE",
"487 448 LINE",
"484 452 LINE",
"67 452 LINE",
"64 436 LINE"
);
}
);
width = 525;
}
);
leftKerningGroup = pi;
rightKerningGroup = pi;
unicode = 03C0;
},
{
glyphname = rho;
lastChange = "2016-12-06 12:48:41 +0000";
layers = (
{
layerId = UUID0;
paths = (
{
closed = 1;
nodes = (
"21 -189 LINE",
"46 -185 LINE",
"55 -79 LINE",
"99 260 LINE SMOOTH",
"113 366 OFFCURVE",
"175 437 OFFCURVE",
"253 437 CURVE SMOOTH",
"315 437 OFFCURVE",
"341 397 OFFCURVE",
"341 305 CURVE SMOOTH",
"341 133 OFFCURVE",
"262 19 OFFCURVE",
"142 17 CURVE",
"59 31 LINE",
"55 11 LINE",
"138 -3 LINE",
"275 -1 OFFCURVE",
"361 119 OFFCURVE",
"361 307 CURVE SMOOTH",
"361 410 OFFCURVE",
"328 457 OFFCURVE",
"255 457 CURVE SMOOTH",
"164 457 OFFCURVE",
"94 380 OFFCURVE",
"79 263 CURVE SMOOTH"
);
}
);
width = 405;
}
);
leftKerningGroup = rho;
rightKerningGroup = b;
unicode = 03C1;
},
{
glyphname = sigma;
lastChange = "2016-12-06 12:48:41 +0000";
layers = (
{
layerId = UUID0;
paths = (
{
closed = 1;
nodes = (
"153 -5 LINE",
"264 -5 OFFCURVE",
"339 122 OFFCURVE",
"339 278 CURVE SMOOTH",
"339 326 OFFCURVE",
"331 377 OFFCURVE",
"316 428 CURVE",
"323 444 LINE",
"293 437 LINE",
"310 385 OFFCURVE",
"318 332 OFFCURVE",
"318 282 CURVE SMOOTH",
"318 137 OFFCURVE",
"253 15 OFFCURVE",
"155 15 CURVE SMOOTH",
"91 15 OFFCURVE",
"67 56 OFFCURVE",
"67 165 CURVE SMOOTH",
"67 325 OFFCURVE",
"140 432 OFFCURVE",
"248 432 CURVE SMOOTH",
"412 432 LINE",
"415 448 LINE",
"412 452 LINE",
"256 452 LINE SMOOTH",
"127 452 OFFCURVE",
"47 341 OFFCURVE",
"47 163 CURVE SMOOTH",
"47 43 OFFCURVE",
"77 -5 OFFCURVE",
"153 -5 CURVE SMOOTH"
);
}
);
width = 419;
}
);
leftKerningGroup = a;
rightKerningGroup = sigma;
unicode = 03C3;
},
{
glyphname = tau;
lastChange = "2016-12-06 12:48:41 +0000";
layers = (
{
background = {
paths = (
{
closed = 1;
nodes = (
"222 3 OFFCURVE",
"245 25 OFFCURVE",
"288 90 CURVE",
"280 101 LINE",
"273 101 LINE",
"240 47 OFFCURVE",
"206 15 OFFCURVE",
"181 15 CURVE SMOOTH",
"156 15 OFFCURVE",
"141 34 OFFCURVE",
"141 67 CURVE",
"143 87 LINE",
"202 439 LINE",
"183 439 LINE",
"123 86 LINE",
"121 64 LINE",
"121 19 OFFCURVE",
"143 -5 OFFCURVE",
"185 -5 CURVE"
);
},
{
closed = 1;
nodes = (
"38 432 LINE",
"359 432 LINE",
"362 448 LINE",
"359 452 LINE",
"37 452 LINE",
"34 436 LINE"
);
}
);
};
layerId = UUID0;
paths = (
{
closed = 1;
nodes = (
"185 -5 LINE",
"222 3 OFFCURVE",
"245 25 OFFCURVE",
"288 90 CURVE",
"280 101 LINE",
"273 101 LINE",
"240 47 OFFCURVE",
"206 15 OFFCURVE",
"181 15 CURVE SMOOTH",
"156 15 OFFCURVE",
"141 34 OFFCURVE",
"141 67 CURVE",
"143 87 LINE",
"202 439 LINE",
"183 439 LINE",
"123 86 LINE",
"121 64 LINE",
"121 19 OFFCURVE",
"143 -5 OFFCURVE",
"185 -5 CURVE"
);
},
{
closed = 1;
nodes = (
"38 432 LINE",
"349 432 LINE",
"352 448 LINE",
"349 452 LINE",
"37 452 LINE",
"34 436 LINE"
);
}
);
width = 356;
}
);
leftKerningGroup = pi;
rightKerningGroup = pi;
unicode = 03C4;
},
{
glyphname = upsilon;
lastChange = "2016-12-06 12:48:41 +0000";
layers = (
{
anchors = (
{
name = top;
position = "{235, 452}";
}
);
layerId = UUID0;
paths = (
{
closed = 1;
nodes = (
"182 -3 LINE",
"269 -3 OFFCURVE",
"316 46 OFFCURVE",
"330 152 CURVE SMOOTH",
"370 456 LINE",
"345 452 LINE",
"339 362 LINE",
"311 152 LINE SMOOTH",
"299 59 OFFCURVE",
"259 17 OFFCURVE",
"183 17 CURVE SMOOTH",
"105 17 OFFCURVE",
"72 62 OFFCURVE",
"84 153 CURVE SMOOTH",
"124 456 LINE",
"99 452 LINE",
"93 362 LINE",
"65 152 LINE SMOOTH",
"51 51 OFFCURVE",
"92 -3 OFFCURVE",
"182 -3 CURVE SMOOTH"
);
}
);
width = 415;
}
);
leftKerningGroup = upsilon;
rightKerningGroup = upsilon;
unicode = 03C5;
},
{
color = 0;
glyphname = phi;
lastChange = "2016-12-06 12:48:41 +0000";
layers = (
{
background = {
paths = (
{
closed = 1;
nodes = (
"194 -189 LINE",
"218 -185 LINE",
"228 -79 LINE",
"282 345 LINE SMOOTH",
"290 405 OFFCURVE",
"321 437 OFFCURVE",
"372 437 CURVE SMOOTH",
"427 437 OFFCURVE",
"463 371 OFFCURVE",
"463 276 CURVE SMOOTH",
"463 105 OFFCURVE",
"384 15 OFFCURVE",
"233 15 CURVE SMOOTH",
"121 15 OFFCURVE",
"63 75 OFFCURVE",
"63 188 CURVE SMOOTH",
"63 310 OFFCURVE",
"104 380 OFFCURVE",
"208 436 CURVE",
"209 439 LINE",
"200 453 LINE",
"90 395 OFFCURVE",
"43 315 OFFCURVE",
"43 185 CURVE SMOOTH",
"43 61 OFFCURVE",
"107 -5 OFFCURVE",
"232 -5 CURVE SMOOTH",
"396 -5 OFFCURVE",
"484 96 OFFCURVE",
"484 281 CURVE SMOOTH",
"484 386 OFFCURVE",
"440 457 OFFCURVE",
"373 457 CURVE SMOOTH",
"310 457 OFFCURVE",
"274 419 OFFCURVE",
"264 347 CURVE SMOOTH"
);
}
);
};
layerId = UUID0;
paths = (
{
closed = 1;
nodes = (
"194 -189 LINE",
"218 -185 LINE",
"228 -79 LINE",
"281 326 LINE SMOOTH",
"291 399 OFFCURVE",
"321 437 OFFCURVE",
"372 437 CURVE SMOOTH",
"427 437 OFFCURVE",
"463 371 OFFCURVE",
"463 276 CURVE SMOOTH",
"463 105 OFFCURVE",
"384 15 OFFCURVE",
"233 15 CURVE SMOOTH",
"121 15 OFFCURVE",
"63 75 OFFCURVE",
"63 188 CURVE SMOOTH",
"63 310 OFFCURVE",
"104 380 OFFCURVE",
"208 436 CURVE",
"209 439 LINE",
"200 453 LINE",
"90 395 OFFCURVE",
"43 315 OFFCURVE",
"43 185 CURVE SMOOTH",
"43 61 OFFCURVE",
"107 -5 OFFCURVE",
"232 -5 CURVE SMOOTH",
"396 -5 OFFCURVE",
"484 96 OFFCURVE",
"484 281 CURVE SMOOTH",
"484 386 OFFCURVE",
"440 457 OFFCURVE",
"373 457 CURVE SMOOTH",
"310 457 OFFCURVE",
"273 410 OFFCURVE",
"262 328 CURVE SMOOTH"
);
}
);
width = 529;
}
);
leftKerningGroup = a;
rightKerningGroup = b;
unicode = 03C6;
},
{
glyphname = chi;
lastChange = "2016-12-06 12:48:41 +0000";
layers = (
{
layerId = UUID0;
paths = (
{
closed = 1;
nodes = (
"301 -188 LINE",
"309 -188 OFFCURVE",
"317 -186 OFFCURVE",
"327 -182 CURVE",
"332 -166 LINE",
"328 -163 LINE",
"301 -173 OFFCURVE",
"292 -168 OFFCURVE",
"283 -138 CURVE SMOOTH",
"196 142 LINE",
"380 452 LINE",
"354 452 LINE",
"332 410 LINE",
"178 147 LINE",
"176 137 LINE",
"265 -147 LINE SMOOTH",
"274 -177 OFFCURVE",
"284 -188 OFFCURVE",
"301 -188 CURVE SMOOTH"
);
},
{
closed = 1;
nodes = (
"-24 -185 LINE",
"2 -185 LINE",
"25 -143 LINE",
"189 137 LINE",
"189 147 LINE",
"111 396 LINE SMOOTH",
"95 447 OFFCURVE",
"82 458 OFFCURVE",
"43 451 CURVE",
"38 436 LINE",
"41 432 LINE",
"67 435 OFFCURVE",
"76 437 OFFCURVE",
"92 387 CURVE SMOOTH",
"170 142 LINE"
);
}
);
width = 374;
}
);
leftKerningGroup = chi;
rightKerningGroup = chi;
unicode = 03C7;
},
{
glyphname = psi;
lastChange = "2016-12-06 12:48:41 +0000";
layers = (
{
layerId = UUID0;
paths = (
{
closed = 1;
nodes = (
"256 -3 LINE",
"354 -3 OFFCURVE",
"446 65 OFFCURVE",
"463 196 CURVE SMOOTH",
"497 456 LINE",
"472 452 LINE",
"466 362 LINE",
"444 196 LINE SMOOTH",
"428 78 OFFCURVE",
"345 17 OFFCURVE",
"257 17 CURVE SMOOTH",
"220 17 LINE SMOOTH",
"135 17 OFFCURVE",
"68 78 OFFCURVE",
"84 197 CURVE SMOOTH",
"118 456 LINE",
"93 452 LINE",
"87 362 LINE",
"65 196 LINE SMOOTH",
"48 66 OFFCURVE",
"122 -3 OFFCURVE",
"219 -3 CURVE SMOOTH"
);
},
{
closed = 1;
nodes = (
"203 -189 LINE",
"227 -185 LINE",
"237 -79 LINE",
"316 543 LINE",
"292 539 LINE",
"285 449 LINE"
);
}
);
width = 536;
}
);
leftKerningGroup = upsilon;
rightKerningGroup = upsilon;
unicode = 03C8;
},
{
glyphname = omega;
lastChange = "2016-12-06 12:48:41 +0000";
layers = (
{
anchors = (
{
name = bottom;
position = "{242, 0}";
},
{
name = top;
position = "{300, 452}";
}
);
layerId = UUID0;
paths = (
{
closed = 1;
nodes = (
"136 -11 LINE",
"194 -11 OFFCURVE",
"233 35 OFFCURVE",
"259 133 CURVE",
"252 133 LINE",
"251 41 OFFCURVE",
"284 -11 OFFCURVE",
"344 -11 CURVE SMOOTH",
"431 -11 OFFCURVE",
"485 85 OFFCURVE",
"485 242 CURVE SMOOTH",
"485 329 OFFCURVE",
"460 396 OFFCURVE",
"405 453 CURVE",
"394 442 LINE",
"395 436 LINE",
"442 382 OFFCURVE",
"465 317 OFFCURVE",
"465 239 CURVE SMOOTH",
"465 101 OFFCURVE",
"417 9 OFFCURVE",
"346 9 CURVE SMOOTH",
"283 9 OFFCURVE",
"259 82 OFFCURVE",
"277 212 CURVE SMOOTH",
"289 298 LINE",
"285 300 LINE",
"267 297 LINE",
"257 223 LINE SMOOTH",
"237 79 OFFCURVE",
"199 9 OFFCURVE",
"139 9 CURVE SMOOTH",
"90 9 OFFCURVE",
"66 56 OFFCURVE",
"66 144 CURVE SMOOTH",
"66 275 OFFCURVE",
"104 363 OFFCURVE",
"197 435 CURVE",
"199 441 LINE",
"189 453 LINE",
"86 374 OFFCURVE",
"46 284 OFFCURVE",
"46 140 CURVE SMOOTH",
"46 40 OFFCURVE",
"75 -11 OFFCURVE",
"136 -11 CURVE SMOOTH"
);
}
);
width = 539;
}
);
leftKerningGroup = omega;
rightKerningGroup = omega;
unicode = 03C9;
},
{
glyphname = gamma.sc;
lastChange = "2016-12-06 12:48:50 +0000";
layers = (
{
layerId = UUID0;
paths = (
{
closed = 1;
nodes = (
"160 491 LINE",
"139 491 LINE",
"97 150 LINE",
"79 0 LINE",
"100 0 LINE",
"118 151 LINE"
);
},
{
closed = 1;
nodes = (
"370 491 LINE",
"152 491 LINE",
"147 475 LINE",
"150 471 LINE",
"259 471 LINE",
"367 471 LINE",
"373 487 LINE"
);
}
);
width = 364;
}
);
leftKerningGroup = gamma.sc;
rightKerningGroup = gamma.sc;
},
{
glyphname = delta.sc;
lastChange = "2016-12-06 12:48:50 +0000";
layers = (
{
layerId = UUID0;
paths = (
{
closed = 1;
nodes = (
"13 0 LINE",
"420 0 LINE",
"422 16 LINE",
"295 491 LINE",
"274 491 LINE",
"15 16 LINE"
);
},
{
closed = 1;
nodes = (
"36 19 LINE",
"278 460 LINE",
"282 460 LINE",
"400 19 LINE"
);
}
);
width = 494;
}
);
leftKerningGroup = delta.sc;
rightKerningGroup = delta.sc;
},
{
glyphname = theta.sc;
lastChange = "2016-12-06 12:48:50 +0000";
layers = (
{
layerId = UUID0;
paths = (
{
closed = 1;
nodes = (
"158 232 LINE",
"399 239 LINE",
"403 256 LINE",
"400 258 LINE",
"159 251 LINE",
"155 234 LINE"
);
},
{
closed = 1;
nodes = (
"314 495 LINE",
"150 495 OFFCURVE",
"57 385 OFFCURVE",
"57 201 CURVE SMOOTH",
"57 70 OFFCURVE",
"123 -4 OFFCURVE",
"244 -4 CURVE SMOOTH",
"408 -4 OFFCURVE",
"503 109 OFFCURVE",
"503 294 CURVE SMOOTH",
"503 422 OFFCURVE",
"437 495 OFFCURVE",
"314 495 CURVE"
);
},
{
closed = 1;
nodes = (
"312 475 LINE",
"422 475 OFFCURVE",
"481 409 OFFCURVE",
"481 291 CURVE SMOOTH",
"481 119 OFFCURVE",
"396 15 OFFCURVE",
"247 15 CURVE SMOOTH",
"137 15 OFFCURVE",
"78 83 OFFCURVE",
"78 204 CURVE SMOOTH",
"78 374 OFFCURVE",
"162 475 OFFCURVE",
"312 475 CURVE SMOOTH"
);
}
);
width = 554;
}
);
leftKerningGroup = theta.sc;
rightKerningGroup = theta.sc;
},
{
glyphname = lambda.sc;
lastChange = "2016-12-06 12:48:50 +0000";
layers = (
{
layerId = UUID0;
paths = (
{
closed = 1;
nodes = (
"291 491 LINE",
"270 491 LINE",
"6 0 LINE",
"30 0 LINE",
"45 35 LINE",
"274 460 LINE",
"277 460 LINE",
"388 35 LINE",
"395 0 LINE",
"418 0 LINE"
);
}
);
width = 487;
}
);
leftKerningGroup = delta.sc;
rightKerningGroup = delta.sc;
},
{
glyphname = xi.sc;
lastChange = "2016-12-06 12:48:50 +0000";
layers = (
{
layerId = UUID0;
paths = (
{
closed = 1;
nodes = (
"55 0 LINE",
"376 0 LINE",
"382 18 LINE",
"378 22 LINE",
"212 21 LINE",
"57 22 LINE",
"54 18 LINE"
);
},
{
closed = 1;
nodes = (
"117 243 LINE",
"230 244 LINE",
"370 243 LINE",
"375 261 LINE",
"373 265 LINE",
"243 265 LINE",
"120 265 LINE",
"114 246 LINE"
);
},
{
closed = 1;
nodes = (
"115 469 LINE",
"264 469 LINE",
"430 469 LINE",
"437 487 LINE",
"434 491 LINE",
"119 491 LINE",
"113 473 LINE"
);
}
);
width = 486;
}
);
leftKerningGroup = xi.sc;
rightKerningGroup = xi.sc;
},
{
glyphname = pi.sc;
lastChange = "2016-12-06 12:48:50 +0000";
layers = (
{
layerId = UUID0;
paths = (
{
closed = 1;
nodes = (
"413 0 LINE",
"434 0 LINE",
"453 151 LINE",
"494 491 LINE",
"473 491 LINE",
"432 150 LINE"
);
},
{
closed = 1;
nodes = (
"79 0 LINE",
"100 0 LINE",
"118 151 LINE",
"160 491 LINE",
"139 491 LINE",
"97 150 LINE"
);
},
{
closed = 1;
nodes = (
"152 471 LINE",
"305 471 LINE",
"479 471 LINE",
"481 491 LINE",
"154 491 LINE"
);
}
);
width = 568;
}
);
leftKerningGroup = gamma.sc;
rightKerningGroup = pi.sc;
},
{
glyphname = sigma.sc;
lastChange = "2016-12-06 12:48:50 +0000";
layers = (
{
layerId = UUID0;
paths = (
{
closed = 1;
nodes = (
"423 492 LINE",
"371 491 LINE",
"160 491 LINE",
"100 491 LINE",
"98 473 LINE",
"239 253 LINE",
"35 17 LINE",
"33 0 LINE",
"88 0 LINE",
"295 0 LINE",
"358 0 LINE",
"362 16 LINE",
"359 20 LINE",
"301 19 LINE",
"61 19 LINE",
"261 251 LINE",
"262 257 LINE",
"125 471 LINE",
"370 471 LINE",
"422 470 LINE",
"426 487 LINE"
);
}
);
width = 445;
}
);
leftKerningGroup = sigma.sc;
rightKerningGroup = xi.sc;
},
{
glyphname = phi.sc;
lastChange = "2016-12-06 12:48:50 +0000";
layers = (
{
layerId = UUID0;
paths = (
{
closed = 1;
nodes = (
"285 40 LINE",
"460 40 OFFCURVE",
"565 131 OFFCURVE",
"565 277 CURVE SMOOTH",
"565 387 OFFCURVE",
"490 450 OFFCURVE",
"345 450 CURVE SMOOTH",
"167 450 OFFCURVE",
"66 363 OFFCURVE",
"66 218 CURVE SMOOTH",
"66 106 OFFCURVE",
"143 40 OFFCURVE",
"285 40 CURVE SMOOTH"
);
},
{
closed = 1;
nodes = (
"288 59 LINE",
"157 59 OFFCURVE",
"86 119 OFFCURVE",
"86 221 CURVE SMOOTH",
"86 352 OFFCURVE",
"179 431 OFFCURVE",
"342 431 CURVE SMOOTH",
"475 431 OFFCURVE",
"544 374 OFFCURVE",
"544 274 CURVE SMOOTH",
"544 142 OFFCURVE",
"448 59 OFFCURVE",
"288 59 CURVE SMOOTH"
);
},
{
closed = 1;
nodes = (
"274 -10 LINE",
"294 -10 LINE",
"314 151 LINE",
"356 500 LINE",
"336 500 LINE",
"293 150 LINE"
);
}
);
width = 627;
}
);
leftKerningGroup = theta.sc;
rightKerningGroup = theta.sc;
},
{
glyphname = psi.sc;
lastChange = "2016-12-06 12:48:50 +0000";
layers = (
{
layerId = UUID0;
paths = (
{
closed = 1;
nodes = (
"341 491 LINE",
"321 491 LINE",
"280 150 LINE",
"261 0 LINE",
"281 0 LINE",
"300 151 LINE"
);
},
{
closed = 1;
nodes = (
"542 491 LINE",
"521 491 LINE",
"495 277 LINE SMOOTH",
"482 173 OFFCURVE",
"409 119 OFFCURVE",
"286 119 CURVE SMOOTH",
"162 119 OFFCURVE",
"101 173 OFFCURVE",
"114 277 CURVE SMOOTH",
"140 491 LINE",
"120 491 LINE",
"103 348 LINE",
"94 276 LINE SMOOTH",
"80 161 OFFCURVE",
"146 100 OFFCURVE",
"283 100 CURVE SMOOTH",
"419 100 OFFCURVE",
"505 163 OFFCURVE",
"516 276 CURVE",
"524 341 LINE"
);
}
);
width = 597;
}
);
leftKerningGroup = psi.sc;
rightKerningGroup = psi.sc;
},
{
glyphname = omega.sc;
lastChange = "2016-12-06 12:48:50 +0000";
layers = (
{
anchors = (
{
name = bottom;
position = "{286, 0}";
},
{
name = top;
position = "{346, 491}";
},
{
name = topleft;
position = "{90, 491}";
}
);
layerId = UUID0;
paths = (
{
closed = 1;
nodes = (
"64 -1 LINE",
"111 0 LINE",
"197 0 LINE",
"231 -1 LINE",
"233 1 LINE",
"235 20 LINE",
"154 77 OFFCURVE",
"117 142 OFFCURVE",
"117 227 CURVE SMOOTH",
"117 380 OFFCURVE",
"205 475 OFFCURVE",
"343 475 CURVE SMOOTH",
"453 475 OFFCURVE",
"516 407 OFFCURVE",
"516 294 CURVE SMOOTH",
"516 176 OFFCURVE",
"464 92 OFFCURVE",
"340 20 CURVE",
"338 1 LINE",
"340 -1 LINE",
"373 0 LINE",
"456 0 LINE",
"506 0 LINE",
"512 18 LINE",
"509 21 LINE",
"461 19 LINE",
"373 19 LINE",
"373 22 LINE",
"488 90 OFFCURVE",
"537 178 OFFCURVE",
"537 298 CURVE SMOOTH",
"537 421 OFFCURVE",
"468 495 OFFCURVE",
"346 495 CURVE SMOOTH",
"193 495 OFFCURVE",
"97 391 OFFCURVE",
"97 223 CURVE SMOOTH",
"97 137 OFFCURVE",
"130 71 OFFCURVE",
"202 22 CURVE",
"202 19 LINE",
"117 19 LINE",
"67 20 LINE",
"61 2 LINE"
);
}
);
width = 627;
}
);
leftKerningGroup = omega.sc;
rightKerningGroup = omega.sc;
},
{
glyphname = zero;
lastChange = "2016-12-06 12:48:41 +0000";
layers = (
{
layerId = UUID0;
paths = (
{
closed = 1;
nodes = (
"301 495 LINE",
"143 495 OFFCURVE",
"56 383 OFFCURVE",
"56 198 CURVE SMOOTH",
"56 69 OFFCURVE",
"124 -4 OFFCURVE",
"244 -4 CURVE SMOOTH",
"401 -4 OFFCURVE",
"488 104 OFFCURVE",
"488 288 CURVE SMOOTH",
"488 421 OFFCURVE",
"421 495 OFFCURVE",
"301 495 CURVE SMOOTH"
);
},
{
closed = 1;
nodes = (
"299 475 LINE",
"408 475 OFFCURVE",
"468 406 OFFCURVE",
"468 283 CURVE SMOOTH",
"468 115 OFFCURVE",
"387 16 OFFCURVE",
"246 16 CURVE SMOOTH",
"135 16 OFFCURVE",
"76 83 OFFCURVE",
"76 203 CURVE SMOOTH",
"76 373 OFFCURVE",
"158 475 OFFCURVE",
"299 475 CURVE SMOOTH"
);
}
);
width = 539;
}
);
unicode = 0030;
},
{
glyphname = one;
lastChange = "2016-12-06 12:48:41 +0000";
layers = (
{
layerId = UUID0;
paths = (
{
closed = 1;
nodes = (
"215 493 LINE",
"41 440 LINE",
"39 424 LINE",
"44 421 LINE",
"195 466 LINE",
"163 201 LINE",
"138 0 LINE",
"158 0 LINE",
"184 206 LINE",
"218 489 LINE"
);
}
);
width = 328;
}
);
unicode = 0031;
},
{
glyphname = two;
lastChange = "2016-12-06 12:48:41 +0000";
layers = (
{
layerId = UUID0;
paths = (
{
closed = 1;
nodes = (
"246 492 LINE",
"187 492 OFFCURVE",
"131 460 OFFCURVE",
"88 412 CURVE",
"90 395 LINE",
"94 395 LINE",
"138 444 OFFCURVE",
"191 472 OFFCURVE",
"244 472 CURVE SMOOTH",
"301 472 OFFCURVE",
"331 439 OFFCURVE",
"331 399 CURVE SMOOTH",
"331 346 OFFCURVE",
"279 286 OFFCURVE",
"191 191 CURVE SMOOTH",
"29 17 LINE",
"27 1 LINE",
"29 -1 LINE",
"67 0 LINE",
"289 0 LINE",
"371 -1 LINE",
"377 17 LINE",
"375 21 LINE",
"297 20 LINE",
"63 20 LINE",
"61 23 LINE",
"206 178 LINE SMOOTH",
"302 280 OFFCURVE",
"351 344 OFFCURVE",
"351 403 CURVE SMOOTH",
"351 454 OFFCURVE",
"309 492 OFFCURVE",
"246 492 CURVE SMOOTH"
);
}
);
width = 439;
}
);
unicode = 0032;
},
{
glyphname = three;
lastChange = "2016-12-06 12:48:41 +0000";
layers = (
{
layerId = UUID0;
paths = (
{
closed = 1;
nodes = (
"208 493 LINE",
"158 493 OFFCURVE",
"115 471 OFFCURVE",
"64 428 CURVE",
"65 409 LINE",
"69 409 LINE",
"118 452 OFFCURVE",
"161 472 OFFCURVE",
"207 472 CURVE SMOOTH",
"266 472 OFFCURVE",
"305 437 OFFCURVE",
"305 384 CURVE SMOOTH",
"305 295 OFFCURVE",
"205 228 OFFCURVE",
"141 228 CURVE SMOOTH",
"98 228 LINE",
"95 212 LINE",
"98 209 LINE",
"145 209 LINE",
"245 204 OFFCURVE",
"299 161 OFFCURVE",
"299 88 CURVE SMOOTH",
"299 -12 OFFCURVE",
"214 -79 OFFCURVE",
"94 -79 CURVE SMOOTH",
"69 -79 OFFCURVE",
"35 -76 OFFCURVE",
"8 -71 CURVE",
"5 -74 LINE",
"6 -91 LINE",
"32 -96 OFFCURVE",
"67 -99 OFFCURVE",
"92 -99 CURVE SMOOTH",
"223 -99 OFFCURVE",
"319 -21 OFFCURVE",
"319 89 CURVE SMOOTH",
"319 157 OFFCURVE",
"277 204 OFFCURVE",
"200 221 CURVE",
"201 224 LINE",
"274 257 OFFCURVE",
"326 322 OFFCURVE",
"326 388 CURVE SMOOTH",
"326 451 OFFCURVE",
"278 493 OFFCURVE",
"208 493 CURVE SMOOTH"
);
}
);
width = 392;
}
);
unicode = 0033;
},
{
glyphname = four;
lastChange = "2016-12-06 12:48:41 +0000";
layers = (
{
layerId = UUID0;
paths = (
{
closed = 1;
nodes = (
"344 491 LINE",
"322 491 LINE",
"19 119 LINE",
"17 102 LINE",
"20 98 LINE",
"62 99 LINE",
"331 99 LINE",
"402 98 LINE",
"408 115 LINE",
"404 119 LINE",
"45 119 LINE",
"316 452 LINE",
"320 452 LINE",
"278 109 LINE",
"253 -95 LINE",
"255 -98 LINE",
"271 -95 LINE",
"273 -92 LINE",
"298 111 LINE"
);
}
);
width = 458;
}
);
unicode = 0034;
},
{
glyphname = five;
lastChange = "2016-12-06 12:48:41 +0000";
layers = (
{
layerId = UUID0;
paths = (
{
closed = 1;
nodes = (
"375 492 LINE",
"310 491 LINE",
"174 491 LINE",
"125 492 LINE",
"115 484 LINE",
"86 252 LINE",
"89 247 LINE",
"161 230 LINE SMOOTH",
"264 205 OFFCURVE",
"312 164 OFFCURVE",
"312 101 CURVE SMOOTH",
"312 -4 OFFCURVE",
"221 -79 OFFCURVE",
"90 -79 CURVE SMOOTH",
"70 -79 OFFCURVE",
"44 -77 OFFCURVE",
"16 -72 CURVE",
"12 -75 LINE",
"14 -92 LINE",
"41 -97 OFFCURVE",
"66 -99 OFFCURVE",
"86 -99 CURVE SMOOTH",
"231 -99 OFFCURVE",
"332 -15 OFFCURVE",
"332 103 CURVE SMOOTH",
"332 177 OFFCURVE",
"281 224 OFFCURVE",
"170 250 CURVE SMOOTH",
"106 265 LINE",
"133 471 LINE",
"328 471 LINE",
"369 470 LINE",
"373 472 LINE",
"377 490 LINE"
);
}
);
width = 403;
}
);
unicode = 0035;
},
{
glyphname = six;
lastChange = "2016-12-06 12:48:41 +0000";
layers = (
{
layerId = UUID0;
paths = (
{
closed = 1;
nodes = (
"409 592 LINE",
"405 592 LINE",
"126 499 OFFCURVE",
"54 299 OFFCURVE",
"54 170 CURVE SMOOTH",
"54 60 OFFCURVE",
"106 -6 OFFCURVE",
"207 -6 CURVE",
"361 -6 OFFCURVE",
"397 118 OFFCURVE",
"397 192 CURVE SMOOTH",
"397 285 OFFCURVE",
"341 335 OFFCURVE",
"250 335 CURVE SMOOTH",
"190 335 OFFCURVE",
"139 313 OFFCURVE",
"93 276 CURVE",
"87 281 LINE",
"77 243 LINE",
"128 288 OFFCURVE",
"187 315 OFFCURVE",
"249 315 CURVE SMOOTH",
"329 315 OFFCURVE",
"377 271 OFFCURVE",
"377 190 CURVE SMOOTH",
"377 122 OFFCURVE",
"344 14 OFFCURVE",
"208 14 CURVE",
"118 14 OFFCURVE",
"74 73 OFFCURVE",
"74 173 CURVE SMOOTH",
"74 303 OFFCURVE",
"148 486 OFFCURVE",
"416 577 CURVE",
"416 581 LINE"
);
}
);
width = 455;
}
);
unicode = 0036;
},
{
glyphname = seven;
lastChange = "2016-12-06 12:48:41 +0000";
layers = (
{
layerId = UUID0;
paths = (
{
closed = 1;
nodes = (
"64 492 LINE",
"59 475 LINE",
"62 470 LINE",
"120 471 LINE",
"377 471 LINE",
"52 -95 LINE",
"52 -99 LINE",
"72 -105 LINE",
"118 -19 LINE",
"401 474 LINE",
"403 492 LINE",
"366 491 LINE",
"128 491 LINE"
);
}
);
width = 401;
}
);
unicode = 0037;
},
{
glyphname = eight;
lastChange = "2016-12-06 12:48:41 +0000";
layers = (
{
layerId = UUID0;
paths = (
{
closed = 1;
nodes = (
"269 589 LINE",
"175 589 OFFCURVE",
"107 529 OFFCURVE",
"107 439 CURVE SMOOTH",
"107 368 OFFCURVE",
"147 335 OFFCURVE",
"206 308 CURVE",
"206 305 LINE",
"131 278 OFFCURVE",
"48 230 OFFCURVE",
"48 131 CURVE SMOOTH",
"48 48 OFFCURVE",
"107 -4 OFFCURVE",
"202 -4 CURVE SMOOTH",
"313 -4 OFFCURVE",
"386 67 OFFCURVE",
"386 161 CURVE SMOOTH",
"386 247 OFFCURVE",
"326 276 OFFCURVE",
"260 304 CURVE",
"260 307 LINE",
"327 332 OFFCURVE",
"398 376 OFFCURVE",
"398 468 CURVE SMOOTH",
"398 547 OFFCURVE",
"346 589 OFFCURVE",
"269 589 CURVE SMOOTH"
);
},
{
closed = 1;
nodes = (
"230 296 LINE",
"301 265 OFFCURVE",
"366 241 OFFCURVE",
"366 159 CURVE SMOOTH",
"366 77 OFFCURVE",
"301 16 OFFCURVE",
"203 16 CURVE SMOOTH",
"119 16 OFFCURVE",
"68 60 OFFCURVE",
"68 132 CURVE SMOOTH",
"68 233 OFFCURVE",
"163 272 OFFCURVE",
"230 296 CURVE"
);
},
{
closed = 1;
nodes = (
"268 569 LINE",
"337 569 OFFCURVE",
"378 533 OFFCURVE",
"378 467 CURVE SMOOTH",
"378 377 OFFCURVE",
"302 338 OFFCURVE",
"233 316 CURVE",
"174 342 OFFCURVE",
"126 369 OFFCURVE",
"126 439 CURVE SMOOTH",
"126 516 OFFCURVE",
"184 569 OFFCURVE",
"268 569 CURVE SMOOTH"
);
}
);
width = 456;
}
);
unicode = 0038;
},
{
glyphname = zero.lf;
lastChange = "2016-12-06 12:48:50 +0000";
layers = (
{
layerId = UUID0;
paths = (
{
closed = 1;
nodes = (
"317 587 LINE",
"162 587 OFFCURVE",
"74 450 OFFCURVE",
"74 230 CURVE SMOOTH",
"74 81 OFFCURVE",
"135 -4 OFFCURVE",
"247 -4 CURVE SMOOTH",
"402 -4 OFFCURVE",
"489 134 OFFCURVE",
"489 354 CURVE SMOOTH",
"489 502 OFFCURVE",
"428 587 OFFCURVE",
"317 587 CURVE SMOOTH"
);
},
{
closed = 1;
nodes = (
"315 567 LINE",
"415 567 OFFCURVE",
"469 489 OFFCURVE",
"469 351 CURVE SMOOTH",
"469 145 OFFCURVE",
"387 16 OFFCURVE",
"249 16 CURVE SMOOTH",
"148 16 OFFCURVE",
"94 95 OFFCURVE",
"94 233 CURVE SMOOTH",
"94 438 OFFCURVE",
"175 567 OFFCURVE",
"315 567 CURVE SMOOTH"
);
}
);
width = 547;
}
);
},
{
glyphname = one.lf;
lastChange = "2016-12-06 12:48:50 +0000";
layers = (
{
layerId = UUID0;
paths = (
{
closed = 1;
nodes = (
"231 593 LINE",
"55 540 LINE",
"53 524 LINE",
"57 521 LINE",
"212 566 LINE",
"167 201 LINE",
"142 0 LINE",
"162 0 LINE",
"188 206 LINE",
"235 589 LINE"
);
}
);
width = 338;
}
);
},
{
glyphname = two.lf;
lastChange = "2016-12-06 12:48:50 +0000";
layers = (
{
layerId = UUID0;
paths = (
{
closed = 1;
nodes = (
"283 589 LINE",
"215 589 OFFCURVE",
"153 550 OFFCURVE",
"104 494 CURVE",
"106 476 LINE",
"110 476 LINE",
"161 535 OFFCURVE",
"221 569 OFFCURVE",
"282 569 CURVE SMOOTH",
"348 569 OFFCURVE",
"382 529 OFFCURVE",
"382 481 CURVE SMOOTH",
"382 417 OFFCURVE",
"324 350 OFFCURVE",
"221 232 CURVE SMOOTH",
"34 18 LINE",
"32 1 LINE",
"33 -1 LINE",
"77 0 LINE",
"330 0 LINE",
"423 -1 LINE",
"429 16 LINE",
"427 21 LINE",
"337 20 LINE",
"66 20 LINE",
"64 23 LINE",
"234 217 LINE SMOOTH",
"346 344 OFFCURVE",
"402 414 OFFCURVE",
"402 483 CURVE SMOOTH",
"402 546 OFFCURVE",
"354 589 OFFCURVE",
"283 589 CURVE SMOOTH"
);
}
);
width = 482;
}
);
},
{
glyphname = three.lf;
lastChange = "2016-12-06 12:48:50 +0000";
layers = (
{
layerId = UUID0;
paths = (
{
closed = 1;
nodes = (
"228 590 LINE",
"178 590 OFFCURVE",
"133 569 OFFCURVE",
"82 524 CURVE",
"83 506 LINE",
"87 506 LINE",
"136 549 OFFCURVE",
"179 569 OFFCURVE",
"225 569 CURVE SMOOTH",
"284 569 OFFCURVE",
"323 534 OFFCURVE",
"323 481 CURVE SMOOTH",
"323 392 OFFCURVE",
"223 325 OFFCURVE",
"159 325 CURVE SMOOTH",
"116 325 LINE",
"113 309 LINE",
"116 306 LINE",
"163 306 LINE",
"263 301 OFFCURVE",
"317 258 OFFCURVE",
"317 185 CURVE SMOOTH",
"317 85 OFFCURVE",
"232 18 OFFCURVE",
"112 18 CURVE SMOOTH",
"87 18 OFFCURVE",
"53 21 OFFCURVE",
"26 26 CURVE",
"23 23 LINE",
"24 6 LINE",
"50 1 OFFCURVE",
"85 -2 OFFCURVE",
"110 -2 CURVE SMOOTH",
"241 -2 OFFCURVE",
"337 76 OFFCURVE",
"337 186 CURVE SMOOTH",
"337 254 OFFCURVE",
"295 301 OFFCURVE",
"218 318 CURVE",
"219 321 LINE",
"292 354 OFFCURVE",
"344 419 OFFCURVE",
"344 485 CURVE SMOOTH",
"344 548 OFFCURVE",
"298 590 OFFCURVE",
"228 590 CURVE SMOOTH"
);
}
);
width = 418;
}
);
},
{
glyphname = four.lf;
lastChange = "2016-12-06 12:48:50 +0000";
layers = (
{
layerId = UUID0;
paths = (
{
closed = 1;
nodes = (
"363 586 LINE",
"341 586 LINE",
"38 214 LINE",
"36 197 LINE",
"39 193 LINE",
"81 194 LINE",
"350 194 LINE",
"421 193 LINE",
"427 210 LINE",
"423 214 LINE",
"64 214 LINE",
"335 547 LINE",
"339 547 LINE",
"297 204 LINE",
"272 0 LINE",
"274 -3 LINE",
"290 0 LINE",
"292 3 LINE",
"317 206 LINE"
);
}
);
width = 479;
}
);
},
{
glyphname = five.lf;
lastChange = "2016-12-06 12:48:50 +0000";
layers = (
{
layerId = UUID0;
paths = (
{
closed = 1;
nodes = (
"390 587 LINE",
"325 586 LINE",
"189 586 LINE",
"140 587 LINE",
"130 579 LINE",
"101 347 LINE",
"104 342 LINE",
"176 325 LINE SMOOTH",
"279 300 OFFCURVE",
"327 259 OFFCURVE",
"327 196 CURVE SMOOTH",
"327 91 OFFCURVE",
"236 16 OFFCURVE",
"105 16 CURVE SMOOTH",
"85 16 OFFCURVE",
"59 18 OFFCURVE",
"31 23 CURVE",
"27 20 LINE",
"29 3 LINE",
"56 -2 OFFCURVE",
"81 -4 OFFCURVE",
"101 -4 CURVE SMOOTH",
"246 -4 OFFCURVE",
"347 80 OFFCURVE",
"347 198 CURVE SMOOTH",
"347 272 OFFCURVE",
"296 319 OFFCURVE",
"185 345 CURVE SMOOTH",
"121 360 LINE",
"148 566 LINE",
"343 566 LINE",
"384 565 LINE",
"388 567 LINE",
"392 585 LINE"
);
}
);
width = 409;
}
);
},
{
glyphname = seven.lf;
lastChange = "2016-12-06 12:48:50 +0000";
layers = (
{
layerId = UUID0;
paths = (
{
closed = 1;
nodes = (
"78 587 LINE",
"73 570 LINE",
"76 565 LINE",
"134 566 LINE",
"391 566 LINE",
"66 0 LINE",
"66 -4 LINE",
"86 -10 LINE",
"132 76 LINE",
"415 569 LINE",
"417 587 LINE",
"380 586 LINE",
"142 586 LINE"
);
}
);
width = 411;
}
);
},
{
glyphname = zero.tf;
lastChange = "2016-12-06 12:48:50 +0000";
layers = (
{
layerId = UUID0;
paths = (
{
closed = 1;
nodes = (
"283 587 LINE",
"140 587 OFFCURVE",
"58 447 OFFCURVE",
"58 225 CURVE SMOOTH",
"58 79 OFFCURVE",
"113 -4 OFFCURVE",
"213 -4 CURVE SMOOTH",
"356 -4 OFFCURVE",
"437 137 OFFCURVE",
"437 359 CURVE SMOOTH",
"437 504 OFFCURVE",
"383 587 OFFCURVE",
"283 587 CURVE SMOOTH"
);
},
{
closed = 1;
nodes = (
"281 567 LINE",
"370 567 OFFCURVE",
"417 491 OFFCURVE",
"417 356 CURVE SMOOTH",
"417 148 OFFCURVE",
"342 16 OFFCURVE",
"215 16 CURVE SMOOTH",
"126 16 OFFCURVE",
"78 93 OFFCURVE",
"78 228 CURVE SMOOTH",
"78 435 OFFCURVE",
"153 567 OFFCURVE",
"281 567 CURVE SMOOTH"
);
}
);
width = 481;
}
);
},
{
glyphname = one.tf;
lastChange = "2016-12-06 12:48:50 +0000";
layers = (
{
layerId = UUID0;
paths = (
{
closed = 1;
nodes = (
"301 593 LINE",
"88 540 LINE",
"86 524 LINE",
"91 521 LINE",
"283 566 LINE",
"238 201 LINE",
"213 0 LINE",
"233 0 LINE",
"259 206 LINE",
"306 589 LINE"
);
}
);
width = 475;
}
);
},
{
glyphname = two.tf;
lastChange = "2016-12-06 12:48:50 +0000";
layers = (
{
layerId = UUID0;
paths = (
{
closed = 1;
nodes = (
"282 589 LINE",
"215 589 OFFCURVE",
"154 550 OFFCURVE",
"106 494 CURVE",
"108 476 LINE",
"112 476 LINE",
"162 535 OFFCURVE",
"221 569 OFFCURVE",
"281 569 CURVE SMOOTH",
"345 569 OFFCURVE",
"379 529 OFFCURVE",
"379 481 CURVE SMOOTH",
"379 417 OFFCURVE",
"322 350 OFFCURVE",
"220 232 CURVE SMOOTH",
"36 18 LINE",
"34 1 LINE",
"35 -1 LINE",
"78 0 LINE",
"327 0 LINE",
"418 -1 LINE",
"424 16 LINE",
"422 21 LINE",
"334 20 LINE",
"68 20 LINE",
"66 23 LINE",
"233 217 LINE SMOOTH",
"344 344 OFFCURVE",
"399 414 OFFCURVE",
"399 483 CURVE SMOOTH",
"399 546 OFFCURVE",
"352 589 OFFCURVE",
"282 589 CURVE SMOOTH"
);
}
);
width = 475;
}
);
},
{
glyphname = three.tf;
lastChange = "2016-12-06 12:48:50 +0000";
layers = (
{
layerId = UUID0;
paths = (
{
closed = 1;
nodes = (
"259 590 LINE",
"208 590 OFFCURVE",
"161 569 OFFCURVE",
"109 524 CURVE",
"110 506 LINE",
"114 506 LINE",
"164 549 OFFCURVE",
"209 569 OFFCURVE",
"256 569 CURVE SMOOTH",
"317 569 OFFCURVE",
"358 534 OFFCURVE",
"358 481 CURVE SMOOTH",
"358 392 OFFCURVE",
"255 325 OFFCURVE",
"189 325 CURVE SMOOTH",
"145 325 LINE",
"142 309 LINE",
"145 306 LINE",
"193 306 LINE",
"297 301 OFFCURVE",
"353 258 OFFCURVE",
"353 184 CURVE SMOOTH",
"353 85 OFFCURVE",
"265 18 OFFCURVE",
"142 18 CURVE SMOOTH",
"116 18 OFFCURVE",
"81 21 OFFCURVE",
"53 26 CURVE",
"50 23 LINE",
"51 6 LINE",
"78 1 OFFCURVE",
"114 -2 OFFCURVE",
"140 -2 CURVE SMOOTH",
"274 -2 OFFCURVE",
"373 76 OFFCURVE",
"373 185 CURVE SMOOTH",
"373 254 OFFCURVE",
"329 301 OFFCURVE",
"249 318 CURVE",
"250 321 LINE",
"325 354 OFFCURVE",
"379 419 OFFCURVE",
"379 485 CURVE SMOOTH",
"379 548 OFFCURVE",
"331 590 OFFCURVE",
"259 590 CURVE SMOOTH"
);
}
);
width = 476;
}
);
},
{
glyphname = four.tf;
lastChange = "2016-12-06 12:48:50 +0000";
layers = (
{
layerId = UUID0;
paths = (
{
closed = 1;
nodes = (
"360 586 LINE",
"338 586 LINE",
"35 214 LINE",
"33 197 LINE",
"36 193 LINE",
"78 194 LINE",
"347 194 LINE",
"418 193 LINE",
"424 210 LINE",
"420 214 LINE",
"61 214 LINE",
"332 547 LINE",
"336 547 LINE",
"294 204 LINE",
"269 0 LINE",
"271 -3 LINE",
"287 0 LINE",
"289 3 LINE",
"314 206 LINE"
);
}
);
width = 475;
}
);
},
{
glyphname = five.tf;
lastChange = "2016-12-06 12:48:50 +0000";
layers = (
{
layerId = UUID0;
paths = (
{
closed = 1;
nodes = (
"432 587 LINE",
"364 586 LINE",
"222 586 LINE",
"171 587 LINE",
"161 579 LINE",
"132 347 LINE",
"135 342 LINE",
"210 325 LINE SMOOTH",
"318 300 OFFCURVE",
"369 259 OFFCURVE",
"369 195 CURVE SMOOTH",
"369 91 OFFCURVE",
"274 16 OFFCURVE",
"137 16 CURVE SMOOTH",
"117 16 OFFCURVE",
"90 18 OFFCURVE",
"61 23 CURVE",
"56 20 LINE",
"59 3 LINE",
"87 -2 OFFCURVE",
"113 -4 OFFCURVE",
"133 -4 CURVE SMOOTH",
"284 -4 OFFCURVE",
"389 80 OFFCURVE",
"389 197 CURVE SMOOTH",
"389 272 OFFCURVE",
"335 319 OFFCURVE",
"219 345 CURVE SMOOTH",
"152 360 LINE",
"179 566 LINE",
"383 566 LINE",
"426 565 LINE",
"430 567 LINE",
"434 585 LINE"
);
}
);
width = 475;
}
);
},
{
glyphname = six.tf;
lastChange = "2016-12-06 12:48:50 +0000";
layers = (
{
layerId = UUID0;
paths = (
{
closed = 1;
nodes = (
"418 592 LINE",
"414 592 LINE",
"135 499 OFFCURVE",
"63 299 OFFCURVE",
"63 170 CURVE SMOOTH",
"63 60 OFFCURVE",
"115 -6 OFFCURVE",
"216 -6 CURVE",
"370 -6 OFFCURVE",
"406 118 OFFCURVE",
"406 192 CURVE SMOOTH",
"406 285 OFFCURVE",
"350 335 OFFCURVE",
"259 335 CURVE SMOOTH",
"199 335 OFFCURVE",
"148 313 OFFCURVE",
"102 276 CURVE",
"96 281 LINE",
"86 243 LINE",
"137 288 OFFCURVE",
"196 315 OFFCURVE",
"258 315 CURVE SMOOTH",
"338 315 OFFCURVE",
"386 271 OFFCURVE",
"386 190 CURVE SMOOTH",
"386 122 OFFCURVE",
"353 14 OFFCURVE",
"217 14 CURVE",
"127 14 OFFCURVE",
"83 73 OFFCURVE",
"83 173 CURVE SMOOTH",
"83 303 OFFCURVE",
"157 486 OFFCURVE",
"425 577 CURVE",
"425 581 LINE"
);
}
);
width = 475;
}
);
},
{
glyphname = seven.tf;
lastChange = "2016-12-06 12:48:50 +0000";
layers = (
{
layerId = UUID0;
paths = (
{
closed = 1;
nodes = (
"101 587 LINE",
"96 570 LINE",
"99 565 LINE",
"161 566 LINE",
"437 566 LINE",
"94 0 LINE",
"94 -4 LINE",
"114 -10 LINE",
"162 76 LINE",
"462 569 LINE",
"464 587 LINE",
"424 586 LINE",
"169 586 LINE"
);
}
);
width = 476;
}
);
},
{
glyphname = eight.tf;
lastChange = "2016-12-06 12:48:50 +0000";
layers = (
{
layerId = UUID0;
paths = (
{
closed = 1;
nodes = (
"242 477 LINE"
);
},
{
closed = 1;
nodes = (
"280 589 LINE",
"185 589 OFFCURVE",
"116 529 OFFCURVE",
"116 439 CURVE SMOOTH",
"116 368 OFFCURVE",
"157 335 OFFCURVE",
"217 308 CURVE",
"217 305 LINE",
"141 278 OFFCURVE",
"56 230 OFFCURVE",
"56 131 CURVE SMOOTH",
"56 48 OFFCURVE",
"116 -4 OFFCURVE",
"213 -4 CURVE SMOOTH",
"326 -4 OFFCURVE",
"400 67 OFFCURVE",
"400 161 CURVE SMOOTH",
"400 247 OFFCURVE",
"339 276 OFFCURVE",
"271 304 CURVE",
"271 307 LINE",
"339 332 OFFCURVE",
"412 376 OFFCURVE",
"412 468 CURVE SMOOTH",
"412 547 OFFCURVE",
"359 589 OFFCURVE",
"280 589 CURVE SMOOTH"
);
},
{
closed = 1;
nodes = (
"241 296 LINE",
"314 265 OFFCURVE",
"380 241 OFFCURVE",
"380 159 CURVE SMOOTH",
"380 77 OFFCURVE",
"314 16 OFFCURVE",
"214 16 CURVE SMOOTH",
"128 16 OFFCURVE",
"76 60 OFFCURVE",
"76 132 CURVE SMOOTH",
"76 233 OFFCURVE",
"173 272 OFFCURVE",
"241 296 CURVE"
);
},
{
closed = 1;
nodes = (
"279 569 LINE",
"350 569 OFFCURVE",
"392 533 OFFCURVE",
"392 467 CURVE SMOOTH",
"392 377 OFFCURVE",
"314 338 OFFCURVE",
"244 316 CURVE",
"184 342 OFFCURVE",
"135 369 OFFCURVE",
"135 439 CURVE SMOOTH",
"135 516 OFFCURVE",
"194 569 OFFCURVE",
"279 569 CURVE SMOOTH"
);
}
);
width = 477;
}
);
},
{
glyphname = nine.tf;
lastChange = "2016-12-06 12:48:50 +0000";
layers = (
{
layerId = UUID0;
paths = (
{
closed = 1;
nodes = (
"79 -6 LINE",
"83 -6 LINE",
"362 87 OFFCURVE",
"434 287 OFFCURVE",
"434 416 CURVE SMOOTH",
"434 526 OFFCURVE",
"382 592 OFFCURVE",
"281 592 CURVE",
"127 592 OFFCURVE",
"91 468 OFFCURVE",
"91 394 CURVE SMOOTH",
"91 301 OFFCURVE",
"147 251 OFFCURVE",
"238 251 CURVE SMOOTH",
"298 251 OFFCURVE",
"349 273 OFFCURVE",
"395 310 CURVE",
"401 305 LINE",
"411 343 LINE",
"360 298 OFFCURVE",
"301 271 OFFCURVE",
"239 271 CURVE SMOOTH",
"159 271 OFFCURVE",
"111 315 OFFCURVE",
"111 396 CURVE SMOOTH",
"111 464 OFFCURVE",
"144 572 OFFCURVE",
"280 572 CURVE",
"370 572 OFFCURVE",
"414 513 OFFCURVE",
"414 413 CURVE SMOOTH",
"414 283 OFFCURVE",
"340 100 OFFCURVE",
"72 9 CURVE",
"72 5 LINE"
);
}
);
width = 475;
}
);
},
{
glyphname = zero.tosf;
lastChange = "2016-12-06 12:48:50 +0000";
layers = (
{
layerId = UUID0;
paths = (
{
closed = 1;
nodes = (
"271 495 LINE",
"124 495 OFFCURVE",
"42 382 OFFCURVE",
"42 194 CURVE SMOOTH",
"42 68 OFFCURVE",
"104 -4 OFFCURVE",
"213 -4 CURVE SMOOTH",
"359 -4 OFFCURVE",
"441 105 OFFCURVE",
"441 292 CURVE SMOOTH",
"441 422 OFFCURVE",
"380 495 OFFCURVE",
"271 495 CURVE SMOOTH"
);
},
{
closed = 1;
nodes = (
"268 475 LINE",
"367 475 OFFCURVE",
"421 407 OFFCURVE",
"421 287 CURVE SMOOTH",
"421 116 OFFCURVE",
"346 16 OFFCURVE",
"215 16 CURVE SMOOTH",
"114 16 OFFCURVE",
"62 82 OFFCURVE",
"62 199 CURVE SMOOTH",
"62 372 OFFCURVE",
"138 475 OFFCURVE",
"268 475 CURVE SMOOTH"
);
}
);
width = 479;
}
);
},
{
glyphname = one.tosf;
lastChange = "2016-12-06 12:48:50 +0000";
layers = (
{
layerId = UUID0;
paths = (
{
closed = 1;
nodes = (
"291 493 LINE",
"78 440 LINE",
"76 424 LINE",
"81 421 LINE",
"273 466 LINE",
"240 201 LINE",
"216 0 LINE",
"235 0 LINE",
"261 206 LINE",
"295 489 LINE"
);
}
);
width = 475;
}
);
},
{
glyphname = two.tosf;
lastChange = "2016-12-06 12:48:50 +0000";
layers = (
{
layerId = UUID0;
paths = (
{
closed = 1;
nodes = (
"266 492 LINE",
"205 492 OFFCURVE",
"146 460 OFFCURVE",
"102 412 CURVE",
"104 395 LINE",
"108 395 LINE",
"154 444 OFFCURVE",
"207 472 OFFCURVE",
"262 472 CURVE SMOOTH",
"321 472 OFFCURVE",
"352 439 OFFCURVE",
"352 399 CURVE SMOOTH",
"352 346 OFFCURVE",
"299 289 OFFCURVE",
"209 194 CURVE SMOOTH",
"43 17 LINE",
"41 1 LINE",
"43 -1 LINE",
"82 0 LINE",
"310 0 LINE",
"394 -1 LINE",
"400 17 LINE",
"398 21 LINE",
"318 20 LINE",
"77 20 LINE",
"75 23 LINE",
"224 181 LINE SMOOTH",
"321 284 OFFCURVE",
"372 344 OFFCURVE",
"372 403 CURVE SMOOTH",
"372 454 OFFCURVE",
"331 492 OFFCURVE",
"266 492 CURVE SMOOTH"
);
}
);
width = 475;
}
);
},
{
glyphname = three.tosf;
lastChange = "2016-12-06 12:48:50 +0000";
layers = (
{
layerId = UUID0;
paths = (
{
closed = 1;
nodes = (
"251 493 LINE",
"198 493 OFFCURVE",
"151 472 OFFCURVE",
"97 427 CURVE",
"98 409 LINE",
"102 409 LINE",
"154 452 OFFCURVE",
"200 472 OFFCURVE",
"249 472 CURVE SMOOTH",
"312 472 OFFCURVE",
"354 437 OFFCURVE",
"354 383 CURVE SMOOTH",
"354 295 OFFCURVE",
"248 228 OFFCURVE",
"180 228 CURVE SMOOTH",
"134 228 LINE",
"131 212 LINE",
"135 209 LINE",
"184 209 LINE",
"292 204 OFFCURVE",
"350 161 OFFCURVE",
"350 87 CURVE SMOOTH",
"350 -12 OFFCURVE",
"260 -79 OFFCURVE",
"132 -79 CURVE SMOOTH",
"106 -79 OFFCURVE",
"70 -76 OFFCURVE",
"41 -71 CURVE",
"38 -74 LINE",
"39 -91 LINE",
"67 -96 OFFCURVE",
"104 -99 OFFCURVE",
"130 -99 CURVE SMOOTH",
"269 -99 OFFCURVE",
"370 -22 OFFCURVE",
"370 88 CURVE SMOOTH",
"370 157 OFFCURVE",
"325 204 OFFCURVE",
"242 221 CURVE",
"243 224 LINE",
"320 255 OFFCURVE",
"375 322 OFFCURVE",
"375 387 CURVE SMOOTH",
"375 451 OFFCURVE",
"326 493 OFFCURVE",
"251 493 CURVE SMOOTH"
);
}
);
width = 475;
}
);
},
{
glyphname = four.tosf;
lastChange = "2016-12-06 12:48:50 +0000";
layers = (
{
layerId = UUID0;
paths = (
{
closed = 1;
nodes = (
"356 491 LINE",
"334 491 LINE",
"28 119 LINE",
"26 102 LINE",
"29 98 LINE",
"71 99 LINE",
"344 99 LINE",
"415 98 LINE",
"421 115 LINE",
"417 119 LINE",
"54 119 LINE",
"328 452 LINE",
"332 452 LINE",
"290 109 LINE",
"265 -95 LINE",
"267 -98 LINE",
"283 -95 LINE",
"285 -92 LINE",
"310 111 LINE"
);
}
);
width = 476;
}
);
},
{
glyphname = five.tosf;
lastChange = "2016-12-06 12:48:50 +0000";
layers = (
{
layerId = UUID0;
paths = (
{
closed = 1;
nodes = (
"420 492 LINE",
"352 491 LINE",
"208 491 LINE",
"156 492 LINE",
"146 484 LINE",
"117 252 LINE",
"120 247 LINE",
"196 230 LINE SMOOTH",
"306 205 OFFCURVE",
"357 164 OFFCURVE",
"357 100 CURVE SMOOTH",
"357 -4 OFFCURVE",
"262 -79 OFFCURVE",
"123 -79 CURVE SMOOTH",
"102 -79 OFFCURVE",
"75 -77 OFFCURVE",
"45 -72 CURVE",
"41 -75 LINE",
"43 -92 LINE",
"72 -97 OFFCURVE",
"98 -99 OFFCURVE",
"119 -99 CURVE SMOOTH",
"272 -99 OFFCURVE",
"377 -16 OFFCURVE",
"377 102 CURVE SMOOTH",
"377 177 OFFCURVE",
"323 224 OFFCURVE",
"205 250 CURVE SMOOTH",
"137 265 LINE",
"164 471 LINE",
"371 471 LINE",
"414 470 LINE",
"418 472 LINE",
"422 490 LINE"
);
}
);
width = 476;
}
);
},
{
glyphname = six.tosf;
lastChange = "2016-12-06 12:48:50 +0000";
layers = (
{
layerId = UUID0;
paths = (
{
closed = 1;
nodes = (
"422 592 LINE",
"418 592 LINE",
"137 499 OFFCURVE",
"64 300 OFFCURVE",
"64 171 CURVE SMOOTH",
"64 60 OFFCURVE",
"117 -6 OFFCURVE",
"219 -6 CURVE",
"374 -6 OFFCURVE",
"411 118 OFFCURVE",
"411 192 CURVE SMOOTH",
"411 285 OFFCURVE",
"354 335 OFFCURVE",
"262 335 CURVE SMOOTH",
"201 335 OFFCURVE",
"150 313 OFFCURVE",
"103 276 CURVE",
"97 281 LINE",
"87 243 LINE",
"139 288 OFFCURVE",
"198 315 OFFCURVE",
"261 315 CURVE SMOOTH",
"342 315 OFFCURVE",
"391 271 OFFCURVE",
"391 190 CURVE SMOOTH",
"391 122 OFFCURVE",
"357 14 OFFCURVE",
"220 14 CURVE",
"129 14 OFFCURVE",
"84 73 OFFCURVE",
"84 174 CURVE SMOOTH",
"84 303 OFFCURVE",
"159 486 OFFCURVE",
"429 577 CURVE",
"429 581 LINE"
);
}
);
width = 475;
}
);
},
{
glyphname = seven.tosf;
lastChange = "2016-12-06 12:48:50 +0000";
layers = (
{
layerId = UUID0;
paths = (
{
closed = 1;
nodes = (
"94 492 LINE",
"89 475 LINE",
"92 470 LINE",
"153 471 LINE",
"425 471 LINE",
"85 -95 LINE",
"85 -99 LINE",
"105 -105 LINE",
"153 -19 LINE",
"450 474 LINE",
"451 492 LINE",
"412 491 LINE",
"161 491 LINE"
);
}
);
width = 476;
}
);
},
{
glyphname = eight.tosf;
lastChange = "2016-12-06 12:48:50 +0000";
layers = (
{
layerId = UUID0;
paths = (
{
closed = 1;
nodes = (
"279 589 LINE",
"184 589 OFFCURVE",
"115 529 OFFCURVE",
"115 439 CURVE SMOOTH",
"115 368 OFFCURVE",
"156 335 OFFCURVE",
"216 308 CURVE",
"216 305 LINE",
"140 278 OFFCURVE",
"56 230 OFFCURVE",
"56 131 CURVE SMOOTH",
"56 48 OFFCURVE",
"116 -4 OFFCURVE",
"212 -4 CURVE SMOOTH",
"324 -4 OFFCURVE",
"397 67 OFFCURVE",
"397 161 CURVE SMOOTH",
"397 247 OFFCURVE",
"337 276 OFFCURVE",
"270 304 CURVE",
"270 307 LINE",
"338 332 OFFCURVE",
"409 376 OFFCURVE",
"409 468 CURVE SMOOTH",
"409 547 OFFCURVE",
"357 589 OFFCURVE",
"279 589 CURVE SMOOTH"
);
},
{
closed = 1;
nodes = (
"240 296 LINE",
"312 265 OFFCURVE",
"377 241 OFFCURVE",
"377 159 CURVE SMOOTH",
"377 77 OFFCURVE",
"312 16 OFFCURVE",
"213 16 CURVE SMOOTH",
"128 16 OFFCURVE",
"76 60 OFFCURVE",
"76 132 CURVE SMOOTH",
"76 233 OFFCURVE",
"172 272 OFFCURVE",
"240 296 CURVE"
);
},
{
closed = 1;
nodes = (
"278 569 LINE",
"348 569 OFFCURVE",
"389 533 OFFCURVE",
"389 467 CURVE SMOOTH",
"389 377 OFFCURVE",
"312 338 OFFCURVE",
"243 316 CURVE",
"183 342 OFFCURVE",
"134 369 OFFCURVE",
"134 439 CURVE SMOOTH",
"134 516 OFFCURVE",
"193 569 OFFCURVE",
"278 569 CURVE SMOOTH"
);
}
);
width = 477;
}
);
},
{
glyphname = nine.tosf;
lastChange = "2016-12-06 12:48:50 +0000";
layers = (
{
layerId = UUID0;
paths = (
{
closed = 1;
nodes = (
"263 498 LINE",
"108 498 OFFCURVE",
"71 374 OFFCURVE",
"71 300 CURVE SMOOTH",
"71 207 OFFCURVE",
"128 157 OFFCURVE",
"220 157 CURVE SMOOTH",
"281 157 OFFCURVE",
"332 179 OFFCURVE",
"379 216 CURVE",
"385 211 LINE",
"395 249 LINE",
"343 204 OFFCURVE",
"284 177 OFFCURVE",
"221 177 CURVE SMOOTH",
"140 177 OFFCURVE",
"91 221 OFFCURVE",
"91 302 CURVE SMOOTH",
"91 370 OFFCURVE",
"125 478 OFFCURVE",
"262 478 CURVE",
"353 478 OFFCURVE",
"398 419 OFFCURVE",
"398 318 CURVE SMOOTH",
"398 189 OFFCURVE",
"323 6 OFFCURVE",
"53 -85 CURVE",
"53 -89 LINE",
"60 -100 LINE",
"64 -100 LINE",
"345 -7 OFFCURVE",
"418 192 OFFCURVE",
"418 321 CURVE SMOOTH",
"418 432 OFFCURVE",
"365 498 OFFCURVE",
"263 498 CURVE"
);
}
);
width = 475;
}
);
},
{
glyphname = zero.dnom;
lastChange = "2016-12-06 12:48:50 +0000";
layers = (
{
layerId = UUID0;
paths = (
{
closed = 1;
nodes = (
"207 370 LINE",
"103 370 OFFCURVE",
"43 284 OFFCURVE",
"43 145 CURVE SMOOTH",
"43 50 OFFCURVE",
"83 -3 OFFCURVE",
"159 -3 CURVE SMOOTH",
"264 -3 OFFCURVE",
"322 84 OFFCURVE",
"322 222 CURVE SMOOTH",
"322 317 OFFCURVE",
"282 370 OFFCURVE",
"207 370 CURVE SMOOTH"
);
},
{
closed = 1;
nodes = (
"202 350 LINE",
"269 350 OFFCURVE",
"304 303 OFFCURVE",
"304 218 CURVE SMOOTH",
"304 93 OFFCURVE",
"252 17 OFFCURVE",
"164 17 CURVE SMOOTH",
"97 17 OFFCURVE",
"62 65 OFFCURVE",
"62 150 CURVE SMOOTH",
"62 274 OFFCURVE",
"113 350 OFFCURVE",
"202 350 CURVE SMOOTH"
);
}
);
width = 376;
}
);
},
{
glyphname = one.dnom;
lastChange = "2016-12-06 12:48:50 +0000";
layers = (
{
layerId = UUID0;
paths = (
{
closed = 1;
nodes = (
"153 374 LINE",
"30 339 LINE",
"28 323 LINE",
"32 321 LINE",
"133 348 LINE",
"106 126 LINE",
"90 0 LINE",
"110 0 LINE",
"126 130 LINE",
"156 370 LINE"
);
}
);
width = 240;
}
);
},
{
glyphname = two.dnom;
lastChange = "2016-12-06 12:48:50 +0000";
layers = (
{
layerId = UUID0;
paths = (
{
closed = 1;
nodes = (
"186 371 LINE",
"140 371 OFFCURVE",
"96 348 OFFCURVE",
"63 312 CURVE",
"65 295 LINE",
"68 295 LINE",
"101 331 OFFCURVE",
"142 352 OFFCURVE",
"182 352 CURVE SMOOTH",
"224 352 OFFCURVE",
"246 328 OFFCURVE",
"246 299 CURVE SMOOTH",
"246 260 OFFCURVE",
"208 219 OFFCURVE",
"141 147 CURVE SMOOTH",
"18 16 LINE",
"16 1 LINE",
"18 -1 LINE",
"47 0 LINE",
"216 0 LINE",
"281 -1 LINE",
"286 16 LINE",
"285 20 LINE",
"224 19 LINE",
"49 19 LINE",
"47 21 LINE",
"155 137 LINE SMOOTH",
"228 215 OFFCURVE",
"267 259 OFFCURVE",
"267 304 CURVE SMOOTH",
"267 343 OFFCURVE",
"235 371 OFFCURVE",
"186 371 CURVE SMOOTH"
);
}
);
width = 336;
}
);
},
{
glyphname = three.dnom;
lastChange = "2016-12-06 12:48:50 +0000";
layers = (
{
layerId = UUID0;
paths = (
{
closed = 1;
nodes = (
"148 372 LINE",
"114 372 OFFCURVE",
"83 359 OFFCURVE",
"48 331 CURVE",
"50 314 LINE",
"53 314 LINE",
"85 340 OFFCURVE",
"114 353 OFFCURVE",
"144 353 CURVE SMOOTH",
"183 353 OFFCURVE",
"208 332 OFFCURVE",
"208 299 CURVE SMOOTH",
"208 246 OFFCURVE",
"144 206 OFFCURVE",
"103 206 CURVE SMOOTH",
"74 206 LINE",
"71 191 LINE",
"73 189 LINE",
"106 189 LINE",
"170 186 OFFCURVE",
"206 160 OFFCURVE",
"206 116 CURVE SMOOTH",
"206 56 OFFCURVE",
"151 17 OFFCURVE",
"74 17 CURVE SMOOTH",
"57 17 OFFCURVE",
"33 19 OFFCURVE",
"14 22 CURVE",
"12 20 LINE",
"12 4 LINE",
"31 0 OFFCURVE",
"54 -2 OFFCURVE",
"71 -2 CURVE SMOOTH",
"160 -2 OFFCURVE",
"226 48 OFFCURVE",
"226 117 CURVE SMOOTH",
"226 159 OFFCURVE",
"198 189 OFFCURVE",
"147 200 CURVE",
"147 202 LINE",
"197 223 OFFCURVE",
"230 264 OFFCURVE",
"230 304 CURVE SMOOTH",
"230 345 OFFCURVE",
"197 372 OFFCURVE",
"148 372 CURVE SMOOTH"
);
}
);
width = 294;
}
);
},
{
glyphname = four.dnom;
lastChange = "2016-12-06 12:48:50 +0000";
layers = (
{
layerId = UUID0;
paths = (
{
closed = 1;
nodes = (
"241 369 LINE",
"222 369 LINE",
"19 136 LINE",
"17 121 LINE",
"20 118 LINE",
"51 119 LINE",
"229 119 LINE",
"279 118 LINE",
"284 134 LINE",
"281 137 LINE",
"41 137 LINE",
"215 337 LINE",
"218 337 LINE",
"192 129 LINE",
"176 0 LINE",
"178 -2 LINE",
"194 0 LINE",
"197 2 LINE",
"211 129 LINE"
);
}
);
width = 335;
}
);
},
{
glyphname = five.dnom;
lastChange = "2016-12-06 12:48:50 +0000";
layers = (
{
layerId = UUID0;
paths = (
{
closed = 1;
nodes = (
"260 370 LINE",
"214 369 LINE",
"122 369 LINE",
"89 370 LINE",
"82 364 LINE",
"60 215 LINE",
"63 211 LINE",
"112 200 LINE SMOOTH",
"178 185 OFFCURVE",
"210 162 OFFCURVE",
"210 124 CURVE SMOOTH",
"210 60 OFFCURVE",
"149 15 OFFCURVE",
"65 15 CURVE SMOOTH",
"50 15 OFFCURVE",
"32 17 OFFCURVE",
"12 20 CURVE",
"10 18 LINE",
"11 2 LINE",
"29 -1 OFFCURVE",
"47 -3 OFFCURVE",
"61 -3 CURVE SMOOTH",
"160 -3 OFFCURVE",
"230 51 OFFCURVE",
"230 127 CURVE SMOOTH",
"230 173 OFFCURVE",
"195 202 OFFCURVE",
"123 218 CURVE SMOOTH",
"80 228 LINE",
"99 351 LINE",
"225 351 LINE",
"255 349 LINE",
"258 351 LINE",
"262 368 LINE"
);
}
);
width = 288;
}
);
},
{
glyphname = six.dnom;
lastChange = "2016-12-06 12:48:50 +0000";
layers = (
{
layerId = UUID0;
paths = (
{
closed = 1;
nodes = (
"266 373 LINE",
"263 373 LINE",
"131 329 OFFCURVE",
"47 242 OFFCURVE",
"33 130 CURVE",
"23 44 OFFCURVE",
"60 -4 OFFCURVE",
"133 -4 CURVE",
"211 -4 OFFCURVE",
"256 38 OFFCURVE",
"265 111 CURVE",
"273 176 OFFCURVE",
"238 213 OFFCURVE",
"172 213 CURVE SMOOTH",
"133 213 OFFCURVE",
"98 199 OFFCURVE",
"65 177 CURVE",
"61 182 LINE",
"53 152 LINE",
"87 179 OFFCURVE",
"127 195 OFFCURVE",
"167 195 CURVE SMOOTH",
"222 195 OFFCURVE",
"251 165 OFFCURVE",
"245 110 CURVE",
"237 48 OFFCURVE",
"198 13 OFFCURVE",
"134 13 CURVE",
"72 13 OFFCURVE",
"44 55 OFFCURVE",
"53 131 CURVE",
"66 237 OFFCURVE",
"142 316 OFFCURVE",
"275 360 CURVE",
"276 363 LINE"
);
}
);
width = 323;
}
);
},
{
glyphname = seven.dnom;
lastChange = "2016-12-06 12:48:50 +0000";
layers = (
{
layerId = UUID0;
paths = (
{
closed = 1;
nodes = (
"48 370 LINE",
"44 353 LINE",
"46 349 LINE",
"86 350 LINE",
"250 350 LINE",
"43 3 LINE",
"43 -1 LINE",
"60 -6 LINE",
"93 52 LINE",
"273 353 LINE",
"274 370 LINE",
"250 369 LINE",
"94 369 LINE"
);
}
);
width = 288;
}
);
},
